<?xml version="1.0" encoding="UTF-8" standalone="no"?>
<svg
   xmlns:dc="http://purl.org/dc/elements/1.1/"
   xmlns:cc="http://creativecommons.org/ns#"
   xmlns:rdf="http://www.w3.org/1999/02/22-rdf-syntax-ns#"
   xmlns:svg="http://www.w3.org/2000/svg"
   xmlns="http://www.w3.org/2000/svg"
   xmlns:sodipodi="http://sodipodi.sourceforge.net/DTD/sodipodi-0.dtd"
   xmlns:inkscape="http://www.inkscape.org/namespaces/inkscape"
   height="496pt"
   viewBox="0 0 496 496"
   width="496pt"
   version="1.1"
   id="svg18"
   sodipodi:docname="cogwheels_white.svg"
   inkscape:version="0.92.4 (5da689c313, 2019-01-14)">
  <metadata
     id="metadata24">
    <rdf:RDF>
      <cc:Work
         rdf:about="">
        <dc:format>image/svg+xml</dc:format>
        <dc:type
           rdf:resource="http://purl.org/dc/dcmitype/StillImage" />
        <dc:title></dc:title>
      </cc:Work>
    </rdf:RDF>
  </metadata>
  <defs
     id="defs22" />
  <sodipodi:namedview
     pagecolor="#ffffff"
     bordercolor="#666666"
     borderopacity="1"
     objecttolerance="10"
     gridtolerance="10"
     guidetolerance="10"
     inkscape:pageopacity="0"
     inkscape:pageshadow="2"
     inkscape:window-width="1920"
     inkscape:window-height="1017"
     id="namedview20"
     showgrid="false"
     inkscape:zoom="0.71370968"
     inkscape:cx="281.79503"
     inkscape:cy="383.70888"
     inkscape:window-x="1912"
     inkscape:window-y="-8"
     inkscape:window-maximized="1"
     inkscape:current-layer="svg18" />
  <path
     d="m120 208v-16c-39.703125 0-72-32.296875-72-72h-16c0 48.519531 39.480469 88 88 88zm0 0"
     id="path2" />
  <path
     d="m120 176c30.871094 0 56-25.128906 56-56s-25.128906-56-56-56-56 25.128906-56 56 25.128906 56 56 56zm0-96c22.054688 0 40 17.945312 40 40s-17.945312 40-40 40-40-17.945312-40-40 17.945312-40 40-40zm0 0"
     id="path4" />
  <path
     d="m120 144c13.230469 0 24-10.769531 24-24s-10.769531-24-24-24-24 10.769531-24 24 10.769531 24 24 24zm0-32c4.414062 0 8 3.585938 8 8s-3.585938 8-8 8-8-3.585938-8-8 3.585938-8 8-8zm0 0"
     id="path6" />
  <path
     d="m496 381.679688v-59.359376l-21.648438-7.550781c-2.429687-7.984375-5.609374-15.679687-9.503906-22.976562l9.96875-20.625-7.726562-7.726563c-3.578125-4.699218-9.449219-10.898437-13.890625-15.386718-5.527344-5.589844-11.902344-11.65625-16.230469-15.445313l-53.226562-46.546875 4.570312-13.703125 18.519531 9.265625 30.785157-30.785156-9.265626-18.519532 19.648438-6.550781v-43.53125l-19.648438-6.542969 9.265626-18.519531-30.785157-30.785156-18.519531 9.265625-6.542969-19.65625h-43.53125l-6.542969 19.648438-18.519531-9.265626-30.785156 30.785157 9.265625 18.519531-19.65625 6.542969v6.105469l-65.847656-57.582032c-22.664063-19.832031-51.726563-30.753906-81.847656-30.753906v.214844c-1.441407-.046875-2.847657-.214844-4.304688-.214844-66.167969 0-120 53.832031-120 120 0 1.457031.167969 2.863281.214844 4.304688h-.214844c0 30.121093 10.921875 59.175781 30.753906 81.839843l57.621094 65.855469h-6.144531l-6.542969 19.648438-18.519531-9.265626-30.785157 30.785157 9.265626 18.519531-19.648438 6.542969v43.53125l19.648438 6.542969-9.265626 18.519531 30.785157 30.785156 18.519531-9.265625 6.542969 19.65625h43.53125l6.542969-19.648438 18.519531 9.265626 30.785156-30.785157-9.265625-18.519531 13.792969-4.59375 46.4375 53.074219c3.640625 4.152343 9.097656 9.933593 14.234375 15.109375 4.863281 4.890625 11.558594 11.335937 16.582031 15.167968l7.753906 7.753907 20.625-9.96875c7.292969 3.886719 14.992188 7.074219 22.972657 9.503906l7.578124 21.640625h59.359376l7.550781-21.648438c7.984375-2.429687 15.679687-5.609374 22.976562-9.503906l20.625 9.96875 41.984375-41.984375-9.96875-20.625c3.886719-7.296875 7.074219-14.992187 9.503906-22.976562zm-256.847656-89.886719c-3.886719 7.296875-7.074219 14.992187-9.503906 22.976562l-21.648438 7.550781v59.359376l21.648438 7.550781c2.429687 7.984375 5.609374 15.679687 9.503906 22.976562l-2.425782 5.015625-163.335937-186.648437c14.335937 6.066406 30.089844 9.425781 46.609375 9.425781 66.167969 0 120-53.832031 120-120 0-16.535156-3.359375-32.296875-9.433594-46.640625l186.761719 163.320313-5.113281 2.472656c-7.292969-3.886719-14.992188-7.074219-22.976563-9.503906l-7.558593-21.648438h-59.359376l-7.550781 21.648438c-7.984375 2.429687-15.679687 5.609374-22.976562 9.503906l-20.625-9.96875-41.984375 41.984375zm48.847656-198.023438 18.367188-6.121093 1.34375-3.542969c.394531-1.035157.800781-2.035157 1.234374-3.027344l1.550782-3.460937-8.648438-17.296876 14.472656-14.472656 17.296876 8.648438 3.460937-1.550782c.992187-.441406 1.992187-.839843 3.027344-1.234374l3.542969-1.34375 6.121093-18.367188h20.46875l6.121094 18.367188 3.542969 1.34375c1.035156.394531 2.035156.800781 3.027344 1.234374l3.460937 1.550782 17.296875-8.648438 14.472656 14.472656-8.648437 17.296876 1.550781 3.460937c.441406.992187.839844 1.992187 1.234375 3.027344l1.34375 3.542969 18.359375 6.121093v20.46875l-18.367188 6.121094-1.34375 3.542969c-.394531 1.035156-.800781 2.035156-1.234374 3.027344l-1.550782 3.460937 8.648438 17.296875-14.472656 14.472656-17.296876-8.648437-3.460937 1.550781c-.992187.441406-1.992187.839844-3.027344 1.234375l-3.542969 1.34375-5.664062 17.007813-82.6875-72.320313zm-168-77.769531c57.34375 0 104 46.65625 104 104s-46.65625 104-104 104-104-46.65625-104-104 46.65625-104 104-104zm37.632812 360.351562-1.34375 3.542969c-.394531 1.035157-.800781 2.035157-1.234374 3.027344l-1.550782 3.460937 8.648438 17.296876-14.472656 14.472656-17.296876-8.648438-3.460937 1.550782c-.992187.441406-1.992187.839843-3.027344 1.234374l-3.542969 1.34375-6.121093 18.367188h-20.46875l-6.121094-18.367188-3.542969-1.34375c-1.035156-.394531-2.035156-.800781-3.027344-1.234374l-3.460937-1.550782-17.289063 8.648438-14.472656-14.472656 8.648438-17.296876-1.550782-3.460937c-.441406-.992187-.839843-1.992187-1.234374-3.027344l-1.34375-3.542969-18.367188-6.121093v-20.46875l18.367188-6.121094 1.34375-3.542969c.394531-1.035156.800781-2.035156 1.234374-3.027344l1.550782-3.460937-8.648438-17.289063 14.472656-14.472656 17.296876 8.648438 3.460937-1.550782c.992187-.441406 1.992187-.839843 3.027344-1.234374l3.542969-1.34375 6.121093-18.367188h8.613281l72.335938 82.664062zm303.535157.535157-1.097657 4.089843c-2.542968 9.503907-6.292968 18.574219-11.148437 26.96875l-2.128906 3.671876 8.664062 17.933593-25.90625 25.90625-17.933593-8.664062-3.671876 2.128906c-8.394531 4.847656-17.472656 8.597656-26.96875 11.148437l-4.089843 1.097657-6.566407 18.832031h-36.640624l-6.566407-18.832031-4.089843-1.097657c-9.503907-2.542968-18.574219-6.292968-26.96875-11.148437l-3.671876-2.128906-17.933593 8.664062-25.90625-25.90625 8.664062-17.933593-2.128906-3.671876c-4.847656-8.394531-8.597656-17.472656-11.148437-26.96875l-1.097657-4.089843-18.832031-6.566407v-36.640624l18.832031-6.566407 1.097657-4.089843c2.542968-9.503907 6.292968-18.574219 11.148437-26.96875l2.128906-3.671876-8.664062-17.933593 25.90625-25.90625 17.933593 8.664062 3.671876-2.128906c8.394531-4.847656 17.472656-8.597656 26.96875-11.148437l4.089843-1.097657 6.566407-18.832031h36.640624l6.566407 18.832031 4.089843 1.097657c9.503907 2.542968 18.574219 6.292968 26.96875 11.148437l3.671876 2.128906 17.933593-8.664062 25.90625 25.90625-8.664062 17.933593 2.128906 3.671876c4.847656 8.394531 8.597656 17.472656 11.148437 26.96875l1.097657 4.089843 18.832031 6.566407v36.640624zm0 0"
     id="path8" />
  <path
     d="m352 272c-44.113281 0-80 35.886719-80 80s35.886719 80 80 80 80-35.886719 80-80-35.886719-80-80-80zm0 144c-35.289062 0-64-28.710938-64-64s28.710938-64 64-64 64 28.710938 64 64-28.710938 64-64 64zm0 0"
     id="path10" />
  <path
     d="m352 304c-26.472656 0-48 21.527344-48 48s21.527344 48 48 48 48-21.527344 48-48-21.527344-48-48-48zm0 80c-17.648438 0-32-14.351562-32-32s14.351562-32 32-32 32 14.351562 32 32-14.351562 32-32 32zm0 0"
     id="path12" />
  <path
     d="m400 104c0-22.054688-17.945312-40-40-40s-40 17.945312-40 40 17.945312 40 40 40 40-17.945312 40-40zm-64 0c0-13.230469 10.769531-24 24-24s24 10.769531 24 24-10.769531 24-24 24-24-10.769531-24-24zm0 0"
     id="path14" />
  <path
     d="m64 360c0 22.054688 17.945312 40 40 40s40-17.945312 40-40-17.945312-40-40-40-40 17.945312-40 40zm64 0c0 13.230469-10.769531 24-24 24s-24-10.769531-24-24 10.769531-24 24-24 24 10.769531 24 24zm0 0"
     id="path16" />
  <path
     style="fill:#ffffff;fill-opacity:1;stroke-width:1.40112996"
     d="m 429.58619,658.38151 c -9.99853,-27.33317 -9.68761,-26.70967 -13.99348,-28.06111 -2.30623,-0.72384 -9.29064,-3.4663 -15.5209,-6.09437 l -11.32775,-4.77832 -13.6698,6.34458 -13.6698,6.3446 -16.70127,-15.63025 c -18.73361,-17.53224 -27.80786,-27.31176 -67.752,-73.01778 -15.32154,-17.53164 -28.48314,-31.87571 -29.248,-31.87571 -3.40226,0 -16.73392,4.97772 -17.30291,6.46048 -0.34685,0.90387 1.88735,6.65142 4.96489,12.77233 l 5.59553,11.12895 -20.20228,20.16622 -20.20228,20.16624 -12.08586,-5.99398 c -6.64722,-3.29667 -12.24146,-5.80457 -12.43167,-5.57309 -0.1902,0.23148 -2.21813,6.09545 -4.50652,13.03104 l -4.1607,12.61017 -28.673,0.37784 -28.67301,0.37785 -3.2679,-10.18576 c -1.79734,-5.60216 -3.80588,-11.61629 -4.46342,-13.36472 l -1.19553,-3.17898 -12.404209,6.22978 -12.404208,6.22976 -20.165271,-20.20131 -20.165269,-20.20131 6.009454,-12.11709 c 3.305201,-6.66439 5.497841,-12.58192 4.872532,-13.15006 -0.625307,-0.56815 -6.351239,-2.74354 -12.724293,-4.83421 l -11.58737,-3.80122 0.378331,-28.82262 0.37833,-28.82261 11.765826,-3.95251 c 6.471204,-2.17389 12.01992,-4.20661 12.330479,-4.51717 0.310559,-0.31056 -2.132633,-6.0033 -5.429319,-12.65051 l -5.99397,-12.08587 20.165269,-20.20131 20.165271,-20.2013 12.404208,6.22976 12.404209,6.22977 1.19553,-3.17898 c 0.65754,-1.74843 2.66209,-7.75016 4.45455,-13.33716 3.02193,-9.41921 3.54474,-10.15819 7.18662,-10.15819 2.16018,0 3.9276,-0.32872 3.9276,-0.73048 0,-0.40176 -18.056106,-21.36617 -40.124677,-46.58757 C 55.66958,290.55392 34.489455,265.50468 30.671208,260.11032 2.4395643,220.22517 -6.5419071,167.40119 6.521828,118.07719 19.69913,68.324402 59.790145,25.700628 108.92235,9.2074904 c 41.67718,-13.9905676 89.28032,-10.8807066 128.73709,8.4102526 20.0172,9.786688 25.66381,14.140155 79.05203,60.948228 24.67219,21.631319 45.19391,39.329669 45.60381,39.329669 0.40991,0 0.74529,-1.76742 0.74529,-3.92761 0,-3.64187 0.73898,-4.16468 10.15819,-7.18662 5.58701,-1.79246 11.58873,-3.797 13.33716,-4.45454 l 3.17898,-1.19553 -6.22977,-12.404212 -6.22976,-12.404208 20.20131,-20.16527 20.20131,-20.16527 12.08586,5.993971 c 6.64722,3.296685 12.33995,5.739877 12.65051,5.429318 0.31056,-0.310559 2.34328,-5.859274 4.51717,-12.330479 l 3.95251,-11.765826 28.82261,-0.37833 28.82262,-0.37833 3.80122,11.587369 c 2.09067,6.373054 4.26607,12.098986 4.83421,12.724293 0.56814,0.625309 6.48568,-1.56733 13.15007,-4.872531 l 12.11708,-6.009455 20.20131,20.16527 20.20131,20.16527 -6.22976,12.404208 -6.22977,12.404212 3.17898,1.19553 c 1.74843,0.65754 7.76255,2.66608 13.36472,4.46342 l 10.18575,3.2679 -0.37784,28.673 -0.37785,28.67301 -12.61017,4.1607 c -6.93559,2.28839 -12.79956,4.31632 -13.03104,4.50652 -0.23148,0.1902 2.27642,5.78445 5.5731,12.43167 l 5.99397,12.08586 -20.16624,20.20228 -20.16622,20.20227 -11.12895,-5.59552 c -6.12091,-3.07754 -11.88681,-5.30469 -12.81311,-4.94924 -0.9263,0.35545 -2.87567,4.58147 -4.33192,9.39117 l -2.64774,8.74489 6.23478,5.29826 c 34.4471,29.27278 82.31694,72.94602 96.91044,88.41462 l 18.05391,19.13649 -6.39577,13.68658 -6.39576,13.68657 4.77177,11.31251 c 2.62448,6.22189 5.36368,13.20405 6.08712,15.51592 1.17513,3.75532 2.7969,4.73639 15.214,9.20349 l 13.89868,5.00011 0.37186,39.34546 0.37188,39.34545 -12.28148,4.34448 c -15.55957,5.5041 -16.05947,5.80959 -17.58846,10.74811 -0.69871,2.25682 -3.53614,9.03411 -6.30542,15.06066 l -5.03504,10.95737 6.68099,13.44942 6.68098,13.4494 -27.91034,27.91033 -27.91033,27.91034 -13.16431,-6.61151 c -11.27749,-5.6639 -13.66882,-6.39944 -16.68421,-5.13179 -1.93595,0.81386 -8.78797,3.67304 -15.22671,6.35376 -6.43875,2.68071 -12.17384,5.40663 -12.74468,6.0576 -0.57082,0.65098 -3.10379,7.01579 -5.62884,14.14404 l -4.59098,12.96045 h -39.1038 c -30.00726,0 -39.25284,-0.40742 -39.74447,-1.75141 z m 69.02657,-30.12429 4.0795,-12.25989 11.56819,-3.7639 c 6.36249,-2.07015 16.84897,-6.41678 23.30327,-9.65918 l 11.73511,-5.89528 11.78597,5.65531 11.78598,5.65531 17.51892,-17.71364 17.51891,-17.71365 -5.57142,-11.73438 -5.57141,-11.73439 5.83547,-11.61605 c 3.20951,-6.38882 7.52922,-16.82173 9.59938,-23.18422 l 3.76389,-11.56819 12.29101,-4.08987 12.29101,-4.08987 -0.38141,-25.32795 -0.3814,-25.32794 -11.97858,-3.99164 -11.97857,-3.99165 -3.94338,-12.2369 c -2.16887,-6.73028 -6.49998,-17.19246 -9.62471,-23.24928 l -5.68135,-11.01238 5.90619,-11.90883 5.90617,-11.90884 -17.55123,-17.36127 c -9.65318,-9.54869 -17.89331,-17.36126 -18.3114,-17.36126 -0.41808,0 -5.76192,2.51484 -11.87519,5.58853 l -11.11505,5.58853 -13.02333,-6.34738 c -7.16285,-3.49107 -17.43691,-7.6801 -22.83126,-9.30894 -5.39435,-1.62884 -10.27094,-3.65177 -10.83687,-4.49539 -0.56592,-0.8436 -2.67152,-6.43428 -4.67909,-12.4237 l -3.65016,-10.88989 -25.32965,0.38141 -25.32964,0.3814 -3.97637,11.90961 -3.97638,11.9096 -11.11103,3.32928 c -6.11105,1.8311 -16.52957,6.04906 -23.15225,9.37323 l -12.04123,6.04395 -11.98229,-5.74951 -11.9823,-5.7495 -17.55557,17.55556 -17.55557,17.55557 5.68978,12.14166 5.68976,12.14166 -6.12436,12.21578 c -3.36842,6.71867 -7.59275,17.04834 -9.38742,22.95481 l -3.26304,10.73906 -11.9096,4.12972 -11.9096,4.1297 -0.38141,25.2883 -0.38141,25.28829 10.88989,3.65016 c 5.98942,2.00756 11.5801,4.11317 12.42371,4.67908 0.84362,0.56593 2.86654,5.44252 4.49538,10.83687 1.62884,5.39436 5.81787,15.66842 9.30894,22.83126 l 6.34739,13.02334 -5.70953,11.35569 -5.70953,11.35569 17.84911,17.88881 17.8491,17.88881 11.40957,-5.65857 11.40959,-5.65858 13.24649,6.38282 c 7.28557,3.51056 17.78586,7.73729 23.33397,9.39274 9.44801,2.81911 10.19271,3.33569 11.74732,8.14914 0.91292,2.82659 2.88157,8.44942 4.37478,12.49518 l 2.71493,7.35593 h 25.00291 25.0029 z m -341.56204,-64.1017 c 3.54921,-10.77995 3.94204,-11.33054 10.26215,-14.38313 l 6.57166,-3.17408 11.43543,5.74962 11.43544,5.74963 9.8927,-9.89271 9.8927,-9.89271 -5.45037,-11.17897 c -5.21677,-10.69984 -5.37226,-11.41569 -3.62765,-16.70187 2.61289,-7.91714 2.55335,-7.86756 13.99609,-11.65609 5.73151,-1.8976 10.61164,-4.0413 10.84478,-4.76376 0.23312,-0.72246 -19.1791,-23.69661 -43.13829,-51.05367 -58.6768,-66.99833 -52.26027,-60.47809 -59.01873,-59.97274 l -5.68019,0.42472 -4.35265,12.45789 c -4.27184,12.22659 -4.4694,12.50299 -10.64038,14.88683 l -6.28772,2.42893 -11.594036,-5.75006 -11.594031,-5.75005 -9.895858,9.89586 -9.895859,9.89585 5.828771,11.79224 5.828771,11.79223 -2.722408,6.30508 c -2.658088,6.15612 -3.00849,6.39818 -14.830819,10.24509 l -12.10841,3.94002 v 14.33617 14.33615 l 12.01077,3.91148 c 11.810852,3.84637 12.057711,4.02026 14.830819,10.44699 l 2.820048,6.53551 -5.828771,11.79224 -5.828771,11.79223 9.895859,9.89586 9.895858,9.89586 11.853869,-5.87892 11.853868,-5.87892 6.30159,2.78748 c 6.12346,2.70871 6.41133,3.12449 10.18422,14.70973 l 3.88264,11.92225 14.64323,-0.3946 14.64323,-0.39462 z M 318.0004,552.87861 c 1.31898,-2.89484 1.18179,-4.41975 -0.72478,-8.05649 -1.29344,-2.4672 -4.31007,-9.46677 -6.70362,-15.55462 l -4.35192,-11.06882 -14.31423,-4.91763 -14.31421,-4.91762 v -38.90724 -38.90723 l 7.35593,-2.71259 c 4.04577,-1.49191 10.62806,-3.78203 14.62734,-5.08914 6.91867,-2.26129 7.38692,-2.72932 9.65263,-9.64799 1.30968,-3.99927 4.25658,-11.02061 6.54866,-15.603 l 4.16742,-8.33159 -6.77548,-13.77068 -6.7755,-13.77069 27.56322,-27.56322 27.56323,-27.56323 13.9263,6.67926 13.92633,6.67924 8.21165,-4.10686 c 4.51642,-2.25879 11.48379,-5.17844 15.48306,-6.48812 6.91867,-2.26571 7.3867,-2.73397 9.64799,-9.65263 1.30711,-3.99928 3.59723,-10.58158 5.08914,-14.62734 l 2.71259,-7.35593 h 39.01421 39.0142 l 4.76553,14.29658 4.76553,14.2966 11.11394,4.36955 c 6.11267,2.40325 13.13255,5.42781 15.59975,6.72125 3.65511,1.9162 5.15376,2.04734 8.09278,0.70824 1.98384,-0.9039 3.41795,-2.21052 3.18693,-2.90359 -0.53435,-1.60306 -248.19435,-218.117848 -248.81319,-217.522957 -0.25306,0.243265 1.12406,4.833977 3.06025,10.201577 13.89533,38.52109 11.43092,82.3891 -6.76385,120.40116 -7.96075,16.63138 -15.47387,27.60589 -27.88507,40.73203 -43.11726,45.60109 -110.35837,62.30463 -167.4251,41.59051 -5.05547,-1.83503 -9.448749,-3.07943 -9.762843,-2.76534 -0.314094,0.31409 1.554323,3.08826 4.152033,6.1648 16.36882,19.38614 212.24526,242.48552 212.91627,242.50745 0.45428,0.0148 1.55807,-1.57982 2.45288,-3.5437 z M 198.35619,293.85378 c 46.51627,-13.98021 81.1025,-48.53252 95.55849,-95.46478 3.62436,-11.76675 3.8621,-14.13414 3.8621,-38.45947 0,-24.31859 -0.23847,-26.69506 -3.85783,-38.44471 C 281.61625,81.54614 255.34579,51.149938 218.009,33.653331 197.63716,24.106761 187.86294,22.125328 160.59729,22.014796 c -20.75115,-0.08412 -25.35324,0.322219 -35.72881,3.154689 -24.3182,6.63872 -45.471458,18.888592 -63.157334,36.574468 -17.685876,17.685876 -29.935748,38.839137 -36.574469,63.157337 -2.788353,10.21397 -3.25125,15.20112 -3.25125,35.02824 0,19.82713 0.462897,24.81428 3.25125,35.02825 14.062548,51.51231 54.40515,89.90841 106.737453,101.58746 6.50536,1.45181 15.5122,1.89599 31.52542,1.55471 19.43173,-0.41414 24.08837,-0.97979 34.95664,-4.24617 z m 300.38622,-72.3621 c 3.78852,-11.44275 3.73894,-11.3832 11.65608,-13.9961 5.28618,-1.7446 6.00203,-1.58912 16.70187,3.62766 l 11.17898,5.45036 9.8927,-9.89269 9.89271,-9.89271 -5.74962,-11.43543 -5.74962,-11.43543 3.17407,-6.57167 c 3.05259,-6.3201 3.60318,-6.71294 14.38314,-10.26214 l 11.20903,-3.69045 0.39462,-14.64323 0.3946,-14.64323 -11.92224,-3.88264 c -11.58525,-3.77289 -12.00103,-4.06077 -14.70974,-10.18423 l -2.78748,-6.30158 5.87892,-11.85387 5.87892,-11.853869 -9.89586,-9.895859 -9.89586,-9.895858 -11.79223,5.82877 -11.79223,5.828771 -6.53552,-2.820047 C 502.12092,66.3031 501.94703,66.05624 498.10066,54.245389 l -3.91148,-12.010771 h -14.33615 -14.33617 l -3.94001,12.10841 c -3.84692,11.822329 -4.08898,12.172731 -10.2451,14.830819 l -6.30508,2.722408 -11.79223,-5.828771 -11.79223,-5.82877 -9.89586,9.895858 -9.89586,9.895859 5.75005,11.594031 5.75006,11.594028 -2.42893,6.28773 c -2.38332,6.16964 -2.66287,6.36961 -14.88682,10.64839 l -12.4579,4.36068 v 6.1478 6.1478 l 54.64407,47.92117 c 30.05424,26.35662 55.23516,47.75451 55.95763,47.55084 0.72245,-0.20368 2.86615,-5.05973 4.76376,-10.79122 z"
     id="path834"
     inkscape:connector-curvature="0"
     transform="scale(0.75000002)" />
  <path
     style="fill:#ffffff;fill-opacity:1;stroke-width:1.40112996"
     d="m 125.89756,531.1056 c -18.01855,-4.24512 -33.351428,-19.91299 -38.267939,-39.10401 -5.979159,-23.33894 5.940719,-48.03177 28.562049,-59.16821 8.54934,-4.20883 10.4195,-4.58746 22.65865,-4.58746 11.47715,0 14.41642,0.51073 21.04641,3.65705 11.42458,5.42163 20.17894,13.9136 25.51913,24.75425 6.16217,12.50928 7.16404,28.92099 2.52105,41.29783 -9.39005,25.03111 -36.04582,39.27455 -62.03935,33.15055 z m 21.93005,-20.0749 c 9.23038,-2.77794 15.37924,-7.93591 19.63048,-16.46704 14.02444,-28.14339 -15.73796,-57.70713 -43.64494,-43.35361 -11.20094,5.76103 -17.15936,15.78852 -17.15936,28.87768 0,15.70339 9.50662,27.96147 24.51977,31.6164 6.52579,1.58869 9.54298,1.46669 16.65405,-0.67343 z"
     id="path836"
     inkscape:connector-curvature="0"
     transform="scale(0.75000002)" />
  <path
     style="fill:#ffffff;fill-opacity:1;stroke-width:1.40112996"
     d="m 145.18486,232.54971 c -12.4297,-2.35317 -26.80325,-10.35505 -37.1047,-20.6565 C 97.238417,201.05147 90.856988,189.3563 87.753837,174.6414 c -2.590961,-12.28614 -2.591842,-17.12698 -0.0054,-29.42373 6.021821,-28.62909 28.807283,-51.414556 57.436373,-57.436378 13.1148,-2.758556 19.2315,-2.632817 32.10628,0.659997 14.73404,3.768335 23.64009,8.823051 34.58256,19.627691 51.55322,50.90383 4.87686,138.02944 -66.68884,124.48073 z m 32.18008,-21.73757 c 19.06709,-6.63238 32.45445,-22.53224 35.64321,-42.33262 3.78675,-23.51358 -8.7924,-47.21305 -30.44794,-57.36478 -7.02774,-3.29448 -9.66095,-3.72758 -22.66348,-3.72758 -13.04012,0 -15.62509,0.428 -22.74846,3.76648 -10.26797,4.81225 -21.21519,15.75947 -26.02744,26.02744 -3.33848,7.12337 -3.76648,9.70834 -3.76648,22.74845 0,13.04012 0.428,15.62509 3.76648,22.74846 11.48106,24.49731 40.84603,36.96874 66.24411,28.13415 z"
     id="path838"
     inkscape:connector-curvature="0"
     transform="scale(0.75000002)" />
  <path
     style="fill:#ffffff;fill-opacity:1;stroke-width:1.40112996"
     d="M 132.87635,273.33957 C 89.077901,262.57465 54.881198,227.25938 45.831633,183.44763 c -1.225781,-5.93438 -2.228692,-13.3384 -2.228692,-16.45338 v -5.66359 h 9.670337 9.670337 l 1.004614,8.75707 c 2.577087,22.46405 11.886113,41.72994 27.989642,57.92714 9.271569,9.32549 13.632759,12.49148 24.554279,17.82504 12.71477,6.2093 29.28496,10.76759 39.14212,10.76759 h 4.26246 v 9.80791 9.80791 l -8.0565,-0.10144 c -4.43107,-0.0558 -12.96482,-1.30783 -18.96388,-2.7823 z"
     id="path840"
     inkscape:connector-curvature="0"
     transform="scale(0.75000002)" />
  <path
     style="fill:#ffffff;fill-opacity:1;stroke-width:1.40112996"
     d="m 460.88969,187.41549 c -36.49554,-15.01064 -44.8157,-61.02963 -15.82455,-87.52591 10.37542,-9.482554 20.41109,-13.296105 34.98978,-13.296105 14.57869,0 24.61436,3.813551 34.98978,13.296105 29.09011,26.58673 19.98507,74.18848 -16.82473,87.96079 -11.01266,4.12036 -26.69937,3.93762 -37.33028,-0.43488 z m 33.64117,-19.92459 c 20.13268,-10.03254 24.10341,-37.12412 7.72017,-52.67348 -5.66288,-5.37466 -13.18686,-8.13082 -22.19611,-8.13082 -13.08915,0 -23.11665,5.95842 -28.87767,17.15936 -14.32518,27.85187 15.26579,57.64169 43.35361,43.64494 z"
     id="path842"
     inkscape:connector-curvature="0"
     transform="scale(0.75000002)" />
  <path
     style="fill:#ffffff;fill-opacity:1;stroke-width:1.40112996"
     d="m 452.76685,530.38396 c -16.89569,-4.54028 -32.29919,-17.54753 -40.39919,-34.11445 -5.04827,-10.32523 -5.1715,-10.9612 -5.1715,-26.69026 0,-15.62091 0.1546,-16.43672 5.06238,-26.71317 6.67646,-13.97993 16.59481,-23.89828 30.57474,-30.57474 10.28498,-4.91185 11.08144,-5.06237 26.78583,-5.06237 15.85455,0 16.40129,0.10657 26.72605,5.20934 16.85255,8.32898 29.55394,23.60008 34.07758,40.97204 12.0818,46.39736 -31.32583,89.42362 -77.65589,76.97361 z m 27.10948,-19.48373 c 19.88924,-5.18049 32.50039,-21.57907 32.31621,-42.02154 -0.14785,-16.41057 -8.85664,-30.50778 -23.64193,-38.26998 -6.0502,-3.17633 -8.84772,-3.7275 -19.00417,-3.74427 -13.96779,-0.0231 -21.57195,2.96673 -30.66002,12.05479 -9.08806,9.08807 -12.07784,16.69223 -12.05478,30.66002 0.0168,10.15645 0.56794,12.95396 3.74426,19.00416 5.94277,11.31968 17.01474,20.13414 28.76682,22.90143 7.87793,1.85503 11.57085,1.74989 20.53361,-0.58461 z"
     id="path844"
     inkscape:connector-curvature="0"
     transform="scale(0.75000002)" />
  <path
     style="fill:#ffffff;fill-opacity:1;stroke-width:1.40112996"
     d="m 443.08186,571.79876 c -20.74125,-5.43185 -36.15014,-14.76697 -51.40334,-31.14155 -44.6117,-47.89142 -34.89175,-124.36384 20.34923,-160.09904 40.60933,-26.27004 93.29627,-21.80089 128.35708,10.88784 23.33325,21.75461 34.43519,47.17409 34.35765,78.66677 -0.11867,48.17667 -32.68134,89.83228 -79.60434,101.83315 -14.32629,3.66405 -37.75626,3.59781 -52.05628,-0.14717 z m 54.21647,-21.32418 c 25.47299,-8.97651 45.35248,-29.17543 53.65329,-54.51545 2.8582,-8.72533 3.34759,-12.89661 3.25931,-27.78101 -0.11574,-19.51382 -2.59993,-28.69344 -11.97782,-44.26049 -9.93605,-16.49363 -31.61347,-32.50893 -51.09834,-37.75152 -10.75459,-2.89362 -32.35469,-2.89836 -43.30584,-0.009 -29.90972,7.89007 -53.95928,31.94986 -61.67885,61.70512 -2.82967,10.90699 -2.8223,32.61068 0.0147,43.30584 3.78241,14.25929 11.47851,27.16316 23.05787,38.66058 18.3972,18.26701 37.13609,25.61257 63.12607,24.74515 11.30796,-0.37741 17.08059,-1.32574 24.94962,-4.09873 z"
     id="path846"
     inkscape:connector-curvature="0"
     transform="scale(0.75000002)" />
  <path
     style="fill:#ffffff;fill-opacity:1;stroke-width:1.40112996"
     d="m 146.23801,187.80575 c -6.73306,-3.33281 -12.42504,-9.46622 -15.4209,-16.61684 -3.1714,-7.5696 -1.80482,-20.82384 2.8764,-27.89764 5.76627,-8.71343 13.59875,-13.26437 23.96491,-13.92444 9.77579,-0.62247 15.74947,1.32289 23.10435,7.52405 12.94976,10.91841 13.29049,33.90568 0.67787,45.73269 -8.98447,8.42484 -24.14342,10.65639 -35.20263,5.18218 z m 21.42862,-20.10631 c 6.94987,-6.94988 2.02522,-18.97895 -7.7699,-18.97895 -5.76019,0 -11.20904,5.44886 -11.20904,11.20904 0,2.72993 1.27125,5.60203 3.43913,7.76991 2.16788,2.16788 5.03998,3.43913 7.76991,3.43913 2.72992,0 5.60202,-1.27125 7.7699,-3.43913 z"
     id="path848"
     inkscape:connector-curvature="0"
     transform="scale(0.75000002)" />
</svg>
