<svg xmlns="http://www.w3.org/2000/svg" height="640pt" version="1.1" viewBox="0 0 640 640" width="640pt">
<g id="surface1">
<path d="M 640 394.667969 L 640 245.332031 L 576 245.332031 C 570.582031 226.742188 563.128906 208.808594 553.78125 191.851562 L 599.070312 146.558594 L 493.472656 40.957031 L 448.183594 86.25 C 431.214844 76.890625 413.273438 69.421875 394.667969 64 L 394.667969 0 L 245.332031 0 L 245.332031 64 C 226.742188 69.417969 208.808594 76.871094 191.851562 86.21875 L 146.558594 40.917969 L 40.957031 146.519531 L 86.25 191.804688 C 76.882812 208.78125 69.421875 226.726562 64 245.332031 L 0 245.332031 L 0 394.667969 L 64 394.667969 C 69.417969 413.257812 76.871094 431.191406 86.21875 448.148438 L 40.917969 493.4375 L 146.519531 599.039062 L 191.804688 553.75 C 208.78125 563.109375 226.726562 570.570312 245.332031 576 L 245.332031 640 L 394.667969 640 L 394.667969 576 C 413.257812 570.582031 431.191406 563.128906 448.148438 553.78125 L 493.4375 599.070312 L 599.039062 493.472656 L 553.75 448.179688 C 563.109375 431.214844 570.570312 413.265625 576 394.667969 Z M 557.570312 381.324219 C 551.835938 403.507812 543 424.761719 531.320312 444.46875 L 527.050781 451.597656 L 568.898438 493.441406 L 493.441406 568.914062 L 451.597656 527.070312 L 444.46875 531.335938 C 424.765625 543.027344 403.507812 551.867188 381.324219 557.585938 L 373.335938 559.640625 L 373.335938 618.667969 L 266.664062 618.667969 L 266.664062 559.640625 L 258.675781 557.570312 C 236.492188 551.839844 215.234375 543.003906 195.53125 531.320312 L 188.402344 527.050781 L 146.558594 568.914062 L 71.085938 493.4375 L 112.929688 451.59375 L 108.664062 444.46875 C 96.976562 424.761719 88.140625 403.5 82.414062 381.324219 L 80.359375 373.328125 L 21.332031 373.328125 L 21.332031 266.664062 L 80.359375 266.664062 L 82.429688 258.675781 C 88.160156 236.492188 96.996094 215.234375 108.679688 195.53125 L 112.949219 188.402344 L 71.085938 146.558594 L 146.558594 71.085938 L 188.402344 112.929688 L 195.53125 108.664062 C 215.234375 96.972656 236.492188 88.132812 258.675781 82.414062 L 266.664062 80.359375 L 266.664062 21.332031 L 373.335938 21.332031 L 373.335938 80.359375 L 381.324219 82.429688 C 403.507812 88.160156 424.765625 96.996094 444.46875 108.679688 L 451.597656 112.949219 L 493.441406 71.085938 L 568.914062 146.558594 L 527.070312 188.402344 L 531.335938 195.53125 C 543.027344 215.234375 551.867188 236.492188 557.585938 258.675781 L 559.65625 266.664062 L 618.667969 266.664062 L 618.667969 373.335938 L 559.640625 373.335938 Z M 557.570312 381.324219 " style=" stroke:none;fill-rule:nonzero;fill:rgb(0%,0%,0%);fill-opacity:1;" />
<path d="M 320 138.667969 C 219.90625 138.613281 138.71875 219.71875 138.667969 319.808594 C 138.632812 391.085938 180.371094 455.761719 245.332031 485.085938 L 245.332031 485.332031 L 251.933594 488.050781 L 252 488.050781 L 266.664062 493.992188 L 266.664062 493.265625 C 283.9375 498.625 301.917969 501.34375 320 501.332031 C 323.601562 501.332031 327.148438 501.214844 330.667969 501.011719 L 330.667969 501.46875 L 342.621094 499.964844 L 352 498.832031 L 352 498.355469 C 450.546875 480.742188 516.15625 386.582031 498.546875 288.039062 C 483.089844 201.5625 407.847656 138.613281 320 138.667969 Z M 266.664062 470.859375 L 266.664062 365.355469 L 263.105469 362.152344 C 228.003906 330.757812 225.003906 276.851562 256.402344 241.753906 C 272.585938 223.65625 295.722656 213.320312 320 213.335938 C 323.128906 213.335938 326.257812 213.5 329.375 213.832031 L 279.773438 263.46875 L 289.25 329.460938 L 355.242188 338.929688 L 404.835938 289.332031 C 405.164062 292.429688 405.332031 295.546875 405.332031 298.667969 C 405.140625 338.429688 377.691406 372.859375 338.976562 381.917969 L 330.667969 383.796875 L 330.667969 479.667969 C 308.960938 481.0625 287.191406 478.066406 266.664062 470.859375 Z M 352 476.832031 L 352 400.46875 C 396.289062 386.253906 426.414062 345.175781 426.664062 298.667969 C 426.710938 287.074219 424.820312 275.554688 421.078125 264.585938 L 415.523438 248.4375 L 347.734375 316.253906 L 308.117188 310.582031 L 302.414062 270.933594 L 370.230469 203.105469 L 354.078125 197.558594 C 343.105469 193.828125 331.585938 191.949219 320 192 C 261.117188 191.972656 213.363281 239.683594 213.335938 298.5625 C 213.320312 327.230469 224.851562 354.695312 245.332031 374.761719 L 245.332031 461.515625 C 167.234375 420.257812 137.363281 323.511719 178.613281 245.410156 C 219.863281 167.308594 316.621094 137.441406 394.71875 178.691406 C 472.816406 219.941406 502.691406 316.695312 461.4375 394.796875 C 439.070312 437.132812 398.914062 467.226562 352 476.800781 Z M 352 476.832031 " style=" stroke:none;fill-rule:nonzero;fill:rgb(0%,0%,0%);fill-opacity:1;" />
</g>
</svg>