<?xml version="1.0" encoding="UTF-8" standalone="no"?>
<!-- Generator: Adobe Illustrator 19.0.0, SVG Export Plug-In . SVG Version: 6.00 Build 0)  -->

<svg
   xmlns:dc="http://purl.org/dc/elements/1.1/"
   xmlns:cc="http://creativecommons.org/ns#"
   xmlns:rdf="http://www.w3.org/1999/02/22-rdf-syntax-ns#"
   xmlns:svg="http://www.w3.org/2000/svg"
   xmlns="http://www.w3.org/2000/svg"
   xmlns:sodipodi="http://sodipodi.sourceforge.net/DTD/sodipodi-0.dtd"
   xmlns:inkscape="http://www.inkscape.org/namespaces/inkscape"
   version="1.1"
   id="Capa_1"
   x="0px"
   y="0px"
   viewBox="0 0 480.182 480.182"
   style="enable-background:new 0 0 480.182 480.182;"
   xml:space="preserve"
   sodipodi:docname="graph_icon_white.svg"
   inkscape:version="0.92.4 (5da689c313, 2019-01-14)"><metadata
   id="metadata6815"><rdf:RDF><cc:Work
       rdf:about=""><dc:format>image/svg+xml</dc:format><dc:type
         rdf:resource="http://purl.org/dc/dcmitype/StillImage" /><dc:title></dc:title></cc:Work></rdf:RDF></metadata><defs
   id="defs6813" /><sodipodi:namedview
   pagecolor="#ffffff"
   bordercolor="#666666"
   borderopacity="1"
   objecttolerance="10"
   gridtolerance="10"
   guidetolerance="10"
   inkscape:pageopacity="0"
   inkscape:pageshadow="2"
   inkscape:window-width="1920"
   inkscape:window-height="1017"
   id="namedview6811"
   showgrid="false"
   inkscape:zoom="0.98296061"
   inkscape:cx="121.78296"
   inkscape:cy="203.19697"
   inkscape:window-x="1912"
   inkscape:window-y="-8"
   inkscape:window-maximized="1"
   inkscape:current-layer="Capa_1" />
<g
   id="g6772"
   transform="matrix(-1,0,0,1,480.1823,0)">
	<g
   id="g6770">
		<path
   d="m 200.182,32.106 c -92.784,0 -168,75.216 -168,168 0,92.784 75.216,168 168,168 92.784,0 168,-75.216 168,-168 -0.101,-92.742 -75.258,-167.899 -168,-168 z m 0,16 c 49.416,0.039 95.723,24.123 124.128,64.56 l -20,20 c -4.867,-2.945 -10.439,-4.521 -16.128,-4.56 -17.673,0 -32,14.327 -32,32 0.028,5.695 1.595,11.276 4.536,16.152 l -52.384,52.384 c -9.919,-6.048 -22.385,-6.048 -32.304,0 l -36.384,-36.384 c 2.941,-4.876 4.508,-10.457 4.536,-16.152 0.022,-17.638 -14.258,-31.954 -31.896,-31.976 -14.587,-0.018 -27.332,9.849 -30.968,23.976 h -29.68 c 15.147,-69.947 76.976,-119.895 148.544,-120 z m 104,112 c 0,8.837 -7.163,16 -16,16 -8.837,0 -16,-7.163 -16,-16 0,-8.837 7.163,-16 16,-16 8.837,0 16,7.163 16,16 z m -96,96 c 0,8.837 -7.163,16 -16,16 -8.837,0 -16,-7.163 -16,-16 0,-8.837 7.163,-16 16,-16 8.837,0 16,7.163 16,16 z m -80,-80 c 0,8.837 -7.163,16 -16,16 -8.837,0 -16,-7.163 -16,-16 0,-8.837 7.163,-16 16,-16 8.837,0 16,7.163 16,16 z m 145.854,156.906 c -22.592,12.544 -48.012,19.116 -73.854,19.093 -83.89,0.057 -151.943,-67.902 -152,-151.792 -0.004,-5.414 0.282,-10.825 0.856,-16.208 h 32.28 c 3.637,14.085 16.317,23.945 30.864,24 5.695,-0.028 11.276,-1.595 16.152,-4.536 l 36.384,36.384 c -2.941,4.876 -4.508,10.457 -4.536,16.152 0,17.673 14.327,32 32,32 17.673,0 32,-14.327 32,-32 -0.028,-5.695 -1.595,-11.276 -4.536,-16.152 l 52.384,-52.384 c 4.876,2.941 10.457,4.508 16.152,4.536 17.673,0 32,-14.327 32,-32 -0.028,-5.695 -1.595,-11.276 -4.536,-16.152 l 17.44,-17.432 c 40.715,73.328 14.277,165.777 -59.05,206.491 z"
   id="path6768"
   inkscape:connector-curvature="0" />
	</g>
</g>
<g
   id="g6778"
   transform="matrix(-1,0,0,1,480.1823,0)">
	<g
   id="g6776">
		<path
   d="m 400.182,80.106 c 14.547,-0.055 27.227,-9.914 30.864,-24 h 49.136 v -16 h -49.136 c -3.637,-14.086 -16.317,-23.945 -30.864,-24 -17.673,0 -32,14.327 -32,32 0.028,5.695 1.595,11.276 4.536,16.152 L 358.662,78.314 C 291.407,-9.307 165.855,-25.817 78.234,41.438 -9.387,108.693 -25.897,234.246 41.358,321.867 c 63.484,82.707 179.855,102.77 267.368,46.095 l 24.144,24.144 11.312,11.312 64.4,64.4 c 16.379,16.379 42.933,16.379 59.312,0 16.379,-16.379 16.379,-42.933 0,-59.312 l -64.4,-64.4 -11.312,-11.312 -24.144,-24.144 c 42.859,-66.016 42.859,-151.071 0,-217.088 l 16,-16 c 4.873,2.942 10.452,4.512 16.144,4.544 z m 0,-48 c 8.837,0 16,7.163 16,16 0,8.837 -7.163,16 -16,16 -8.837,0 -16,-7.163 -16,-16 0,-8.837 7.164,-16 16,-16 z m 56.4,387.712 c 10.246,10.016 10.433,26.442 0.417,36.688 -10.016,10.246 -26.442,10.433 -36.688,0.417 -0.141,-0.137 -0.279,-0.276 -0.417,-0.417 l -64.4,-64.4 36.688,-36.688 z M 380.87,344.106 344.182,380.794 322.038,358.65 c 1.128,-0.864 2.184,-1.816 3.296,-2.704 1.112,-0.888 2.4,-1.952 3.592,-2.952 1.752,-1.472 3.48,-2.96 5.176,-4.488 0.872,-0.8 1.704,-1.6 2.56,-2.4 3.28,-3.072 6.456,-6.248 9.528,-9.528 0.8,-0.856 1.6,-1.688 2.4,-2.56 1.528,-1.696 3.016,-3.424 4.488,-5.176 1.003,-1.184 1.987,-2.381 2.952,-3.592 0.88,-1.104 1.832,-2.16 2.696,-3.288 z m -31.024,-37.16 c -2.52,3.52 -5.12,6.968 -7.864,10.288 -0.8,0.968 -1.656,1.904 -2.48,2.856 -2.448,2.848 -4.976,5.611 -7.584,8.288 -1.136,1.173 -2.291,2.328 -3.464,3.464 -2.667,2.608 -5.429,5.136 -8.288,7.584 -0.952,0.8 -1.888,1.672 -2.856,2.48 -3.32,2.744 -6.768,5.344 -10.288,7.864 C 224.206,408.935 109.107,389.762 49.942,306.946 -9.223,224.13 9.95,109.031 92.766,49.866 175.582,-9.299 290.681,9.873 349.846,92.69 c 45.781,64.082 45.781,150.174 0,214.256 z"
   id="path6774"
   inkscape:connector-curvature="0" />
	</g>
</g>
<g
   id="g6780"
   transform="matrix(-1,0,0,1,480.1823,0)">
</g>
<g
   id="g6782"
   transform="matrix(-1,0,0,1,480.1823,0)">
</g>
<g
   id="g6784"
   transform="matrix(-1,0,0,1,480.1823,0)">
</g>
<g
   id="g6786"
   transform="matrix(-1,0,0,1,480.1823,0)">
</g>
<g
   id="g6788"
   transform="matrix(-1,0,0,1,480.1823,0)">
</g>
<g
   id="g6790"
   transform="matrix(-1,0,0,1,480.1823,0)">
</g>
<g
   id="g6792"
   transform="matrix(-1,0,0,1,480.1823,0)">
</g>
<g
   id="g6794"
   transform="matrix(-1,0,0,1,480.1823,0)">
</g>
<g
   id="g6796"
   transform="matrix(-1,0,0,1,480.1823,0)">
</g>
<g
   id="g6798"
   transform="matrix(-1,0,0,1,480.1823,0)">
</g>
<g
   id="g6800"
   transform="matrix(-1,0,0,1,480.1823,0)">
</g>
<g
   id="g6802"
   transform="matrix(-1,0,0,1,480.1823,0)">
</g>
<g
   id="g6804"
   transform="matrix(-1,0,0,1,480.1823,0)">
</g>
<g
   id="g6806"
   transform="matrix(-1,0,0,1,480.1823,0)">
</g>
<g
   id="g6808"
   transform="matrix(-1,0,0,1,480.1823,0)">
</g>
<path
   style="fill:#e0e0e0;fill-opacity:1;stroke-width:1.01733482"
   d="m 261.24709,366.53393 c -38.90009,-4.46977 -75.59715,-22.77736 -102.52611,-51.14864 -24.76852,-26.09513 -40.51047,-59.50228 -45.0228,-95.5462 -1.7154,-13.70242 -0.78176,-37.85663 2.00377,-51.83936 11.72108,-58.83726 54.8397,-107.863197 111.4976,-126.772931 16.45457,-5.491762 27.74253,-7.348322 48.29022,-7.942416 16.07542,-0.464788 20.60142,-0.238254 31.02872,1.553037 37.85563,6.50317 67.68394,22.256569 94.19505,49.747792 72.83907,75.531908 58.48459,198.715918 -29.83921,256.067278 -32.13338,20.8652 -71.79434,30.2286 -109.62724,25.88144 z m 49.61584,-17.08946 c 28.30475,-6.18427 53.48953,-19.37227 73.67158,-38.57812 18.10857,-17.23265 31.16175,-37.26682 39.29262,-60.3068 5.96189,-16.89383 7.73673,-27.88667 7.78238,-48.20183 l 0.0412,-18.31202 -16.37998,-0.27881 -16.37999,-0.2788 -3.23654,6.57433 c -3.68104,7.47727 -7.36253,10.99473 -15.37889,14.69369 -7.23501,3.33842 -16.66942,3.51748 -23.52343,0.44647 l -4.70273,-2.10712 -18.54209,18.56244 -18.54208,18.56242 1.87692,3.45006 c 1.42861,2.62603 1.87784,5.63696 1.88079,12.60608 0.003,8.23769 -0.29678,9.69873 -2.99361,14.56707 -5.60241,10.11348 -14.09375,15.48691 -25.66763,16.24281 -13.25652,0.86579 -24.60748,-5.77596 -30.51818,-17.857 -3.58985,-7.33739 -3.83959,-17.48505 -0.6097,-24.77493 l 2.08271,-4.70071 -26.15853,-26.14402 -26.15853,-26.14402 -6.53509,2.21293 c -24.73432,8.37556 -48.01508,-14.89656 -39.64002,-39.62527 l 2.20964,-6.52435 -8.43728,-8.48134 c -4.64051,-4.66474 -8.82044,-8.48135 -9.28874,-8.48135 -2.43423,0 -12.46758,25.866 -16.14424,41.61988 -2.9559,12.66553 -3.7078,40.83149 -1.46759,54.97561 6.98601,44.10789 31.58387,81.70244 69.38496,106.04566 13.84459,8.91566 37.17858,17.97984 53.08776,20.62214 4.87839,0.81024 10.0143,1.69239 11.41314,1.96035 6.46168,1.23777 38.38296,-0.33575 47.58117,-2.34545 z M 297.434,269.5485 c 9.11025,-5.96927 8.73344,-20.27924 -0.71831,-27.27871 -7.12675,-5.27771 -18.72652,-2.07174 -23.07194,6.37666 -7.69929,14.96903 9.62069,30.18631 23.79025,20.90205 z m -14.27242,-44.39457 c 4.39974,-0.81333 6.918,-0.6916 11.85445,0.57306 3.44738,0.88318 6.90453,2.13408 7.68255,2.77979 1.13999,0.9461 4.96974,-2.38116 19.7289,-17.14032 l 18.31432,-18.31432 -2.21422,-6.53789 c -8.48247,-25.04615 15.04594,-48.5308 40.07656,-40.002 6.51414,2.21959 15.06628,10.20372 17.84267,16.65763 l 2.19703,5.10713 h 15.25112 15.25112 l -0.63813,-2.79767 c -1.75973,-7.71481 -8.14397,-25.16558 -12.12132,-33.13261 C 395.81841,91.146523 357.13368,60.895665 312.82593,51.36389 255.67487,39.069175 197.8146,59.599011 160.91997,105.26278 l -5.82423,7.20854 10.17009,10.1701 10.1701,10.1701 6.53586,-2.21353 c 24.74019,-8.37886 48.01462,14.89516 39.63679,39.6361 l -2.21292,6.53508 26.19244,26.20698 26.19244,26.20698 2.89728,-1.49824 c 1.5935,-0.82404 5.41119,-1.96297 8.48376,-2.53096 z m 94.79129,-36.12112 c 6.54446,-4.99169 8.2821,-14.0552 4.03857,-21.06509 -3.42662,-5.66045 -7.26616,-7.81471 -13.94238,-7.82269 -9.67803,-0.0116 -16.25918,6.55398 -16.25918,16.22059 0,13.40167 15.41502,20.86507 26.16299,12.66719 z M 200.21735,174.12668 c 5.77675,-3.93162 7.61966,-7.31489 7.61966,-13.98835 0,-6.67346 -1.84291,-10.05673 -7.61966,-13.98835 -10.02816,-6.82511 -24.42638,1.56326 -24.42638,14.23075 0,12.14213 14.66068,20.39243 24.42638,13.74595 z"
   id="path7360"
   inkscape:connector-curvature="0" /><path
   style="fill:#bdbdbd;fill-opacity:1;stroke-width:1.01733482"
   d="M 32.088286,478.47695 C 20.764832,475.80822 10.638016,467.51592 5.1557926,456.42339 1.4488786,448.92296 1.3181838,448.29233 1.3217811,437.92348 1.3280131,419.96061 -1.9118921,424.15927 59.480836,362.55397 l 53.259644,-53.44405 -6.43719,-11.28133 C 87.315843,264.55263 77.914071,222.42407 81.137544,185.06303 c 1.414675,-16.39652 4.89471,-33.64636 9.662288,-47.89406 3.632147,-10.85452 12.880488,-30.905 18.758658,-40.668933 l 3.09535,-5.141544 -8.10207,-8.054556 -8.10208,-8.054557 -3.311755,1.332181 C 83.150844,80.598954 75.061288,80.476901 66.27097,76.176198 59.941175,73.079318 53.483618,66.137212 51.081251,59.846705 L 49.365032,55.352849 H 25.087211 0.80938943 v -7.630011 -7.63001 H 25.070917 49.332444 l 1.927746,-4.323673 c 2.666833,-5.981345 9.024964,-12.6417 15.12645,-15.845463 4.37697,-2.298256 6.393279,-2.692352 13.774861,-2.692352 7.391053,0 9.395719,0.392893 13.798574,2.704369 6.193415,3.25151 12.118455,9.560568 14.991605,15.963253 2.93831,6.547928 2.95538,17.282749 0.0376,23.658031 l -2.15691,4.712812 7.3211,7.272246 7.32111,7.272246 8.80079,-10.127819 C 174.48597,17.80962 244.66736,-7.6852703 311.09649,2.9993396 376.51756,13.52181 431.39984,54.634458 460.12584,114.63811 c 44.64655,93.25894 10.1654,204.93839 -79.59342,257.79162 -18.35221,10.80645 -40.81047,19.12852 -64.68471,23.9694 -10.01927,2.03156 -14.31309,2.29941 -36.2886,2.26374 -23.25317,-0.0377 -25.81163,-0.22875 -38.15005,-2.84815 -22.63311,-4.80493 -45.80406,-13.77904 -63.79426,-24.70751 l -6.10143,-3.70642 -52.03428,51.89694 c -31.431776,31.34882 -53.846894,52.91864 -56.61228,54.47738 -9.302191,5.24328 -20.9387,7.02091 -30.778524,4.70184 z m 21.16843,-16.67463 c 3.691895,-1.84819 13.971124,-11.46614 38.595944,-36.11297 l 33.56386,-33.59387 -18.29324,-18.31444 C 97.062001,363.7081 88.351807,355.4666 87.767294,355.4666 c -0.584514,0 -15.987279,14.99297 -34.228366,33.31772 -21.971464,22.07222 -33.952089,34.86289 -35.495754,37.89572 -6.426044,12.62518 -0.344916,29.61963 12.777591,35.70851 6.148269,2.85282 16.08485,2.59318 22.435951,-0.58623 z M 293.39973,383.91159 c 84.48675,-6.81187 151.88621,-66.5076 168.29033,-149.05483 2.81333,-14.15697 3.82856,-41.75046 2.0628,-56.06574 C 458.65467,137.45938 441.60309,101.17629 413.53382,71.932757 335.51917,-9.3456063 203.04366,-2.2008372 134.10219,87.003274 88.517098,145.9863 82.978051,226.80482 120.06885,291.7593 c 29.64272,51.9112 84.97454,87.17249 144.4725,92.06792 15.07343,1.24023 14.5417,1.23868 28.85838,0.0843 z m -145.65796,-14.12957 11.08347,-11.11796 -3.47082,-2.82418 c -5.91813,-4.81552 -25.66527,-24.48446 -29.41285,-29.29638 -1.95837,-2.51455 -4.01066,-4.58925 -4.56065,-4.61043 -1.29951,-0.05 -21.890059,20.46113 -21.890059,21.80569 0,1.02623 35.619209,37.16121 36.630809,37.16121 0.29514,0 5.52418,-5.00308 11.6201,-11.11795 z M 89.076103,61.790387 c 5.18427,-3.870616 6.854087,-7.173879 6.854087,-13.558881 0,-6.673463 -1.842919,-10.056734 -7.619666,-13.988353 -6.346805,-4.319597 -17.003603,-2.323179 -21.52985,4.03335 -2.311145,3.245702 -3.542279,10.295641 -2.513641,14.394058 0.88255,3.516362 5.53006,8.784266 9.231355,10.463646 4.117442,1.868197 12.210688,1.170028 15.577715,-1.34382 z"
   id="path7362"
   inkscape:connector-curvature="0" /><path
   style="fill:#d2d2d2;fill-opacity:1;stroke-width:1.01733482"
   d="m 256.66908,365.52508 c -37.29534,-5.4018 -72.04326,-23.70467 -98.63751,-51.95562 -19.75065,-20.98102 -33.95771,-47.81952 -41.09887,-77.63969 -2.50058,-10.44199 -2.68015,-12.79018 -2.68392,-35.09805 -0.005,-26.93548 0.80077,-32.55243 7.60006,-53.00835 16.52518,-49.716666 56.38526,-89.636035 105.97707,-106.134701 19.37867,-6.447076 24.9548,-7.195746 53.25921,-7.150757 l 25.43337,0.04043 13.8251,3.655507 c 29.84332,7.890898 52.25456,20.332301 74.13758,41.156829 25.5857,24.348112 42.58128,55.022092 49.55168,89.431902 2.88848,14.25922 2.6247,50.16469 -0.47244,64.30853 -5.01895,22.92017 -14.78867,45.46484 -27.44404,63.33008 -7.63727,10.7813 -24.73554,28.55683 -34.81719,36.19626 -21.9291,16.6169 -49.90797,28.45511 -76.62955,32.42288 -11.48502,1.70535 -37.6248,1.94756 -48.00055,0.44475 z m 42.36594,-14.18163 c 56.10289,-5.70402 106.1315,-46.19248 125.36973,-101.46251 5.66212,-16.26687 6.89082,-23.91714 7.42066,-46.20346 l 0.47653,-20.04427 -16.94949,-0.30243 -16.9495,-0.30242 -2.57506,5.4467 c -3.51966,7.44474 -7.26999,11.43639 -13.89368,14.78766 -8.01549,4.05548 -16.09992,4.61521 -24.16826,1.67336 l -6.25383,-2.28027 -18.57196,18.5516 -18.57195,18.5516 1.90248,4.18938 c 3.01395,6.637 2.68554,19.09416 -0.68155,25.85102 -3.31083,6.64398 -10.26205,12.82386 -16.90703,15.03098 -6.40537,2.12751 -19.05275,1.61582 -24.01611,-0.97166 -14.19727,-7.40127 -20.81002,-23.7977 -15.4863,-38.39851 l 2.27944,-6.25159 -25.75272,-25.76758 c -28.2442,-28.26051 -25.91498,-26.69588 -35.4927,-23.84174 -10.52978,3.13783 -21.36177,0.19879 -29.60086,-8.03161 -8.97526,-8.96579 -11.18129,-19.70211 -6.98485,-33.99381 l 1.44889,-4.93443 -8.34427,-8.03659 c -4.58935,-4.42012 -8.98198,-8.03659 -9.76141,-8.03659 -3.59121,0 -15.98988,35.05956 -17.81518,50.37572 -1.58456,13.29608 -1.34792,38.03093 0.47188,49.32309 3.29167,20.42552 13.72603,45.35999 26.51656,63.36532 7.84476,11.04313 24.08607,27.16745 35.41717,35.16204 16.64466,11.74355 39.21736,21.25598 60.57465,25.52697 11.16649,2.23305 30.79233,2.66158 46.89872,1.02403 z m -1.71953,-81.30788 c 4.57146,-2.83113 6.43691,-6.7552 6.41998,-13.50477 -0.008,-3.21732 -0.44225,-5.84968 -0.96487,-5.84968 -0.52261,0 -0.66727,-0.4578 -0.32145,-1.01733 0.34581,-0.55954 0.11691,-1.01734 -0.50867,-1.01734 -0.62558,0 -0.87825,-0.41933 -0.56149,-0.93185 0.82114,-1.32865 -5.21875,-7.0868 -8.225,-7.84132 -1.3889,-0.3486 -4.61044,-0.39878 -7.15896,-0.11153 -7.9625,0.8975 -13.54234,6.6384 -14.32018,14.73353 -1.33597,13.9037 13.6335,22.97641 25.64064,15.54029 z m -19.79105,-42.75315 c 8.28632,-2.91483 14.9876,-2.48946 24.83726,1.57661 1.48475,0.61291 1.74714,0.48009 1.10478,-0.55927 -0.61433,-0.994 -0.38757,-1.18855 0.83738,-0.71849 1.22467,0.46994 6.43603,-3.99616 19.23341,-16.48289 l 17.55361,-17.12749 -1.46108,-4.96259 c -3.99352,-13.56413 -1.7387,-25.68227 6.30715,-33.89688 9.51897,-9.7186 23.19563,-12.41747 34.61467,-6.83066 6.51756,3.18875 14.2562,11.14881 16.01261,16.47078 l 1.1635,3.52547 h 15.6898 c 13.79812,0 15.68979,-0.19912 15.68979,-1.65149 0,-3.52266 -7.44431,-23.80847 -12.64726,-34.4639 C 397.17804,92.672843 360.56529,63.081822 317.54509,52.216932 259.92106,37.663797 200.26101,57.33368 161.77305,103.57488 l -7.53645,9.05464 10.23922,10.23922 10.23922,10.23922 4.86164,-1.42941 c 14.20847,-4.17757 24.9709,-1.95525 33.92102,7.00431 8.23073,8.23944 11.17011,19.07364 8.03087,29.60086 -2.83591,9.51004 -4.38598,7.2001 23.71826,35.34567 14.10749,14.12824 25.88224,25.67276 26.16613,25.65449 0.28388,-0.0183 3.03405,-0.91892 6.11148,-2.00146 z m 98.76115,-36.90259 c 1.88792,-1.27226 4.51404,-3.90462 5.83582,-5.84968 4.7906,-7.04953 0.99322,-20.5544 -6.59036,-23.43767 -4.39774,-1.67202 -12.77087,-1.12232 -16.37479,1.07503 -7.28444,4.44137 -9.82309,15.62831 -5.2322,23.05651 4.41818,7.14879 15.58395,9.72323 22.36153,5.15581 z M 202.03843,173.50841 c 8.8688,-6.31515 8.29255,-21.19836 -1.06041,-27.38785 -10.89631,-7.21085 -25.18705,0.74262 -25.18705,14.01777 0,13.62725 15.09083,21.31429 26.24746,13.37008 z"
   id="path7364"
   inkscape:connector-curvature="0" /><path
   style="fill:#d2d2d2;fill-opacity:1;stroke-width:1.01733482"
   d="M 26.984012,476.10136 C 16.193273,471.66397 7.8828449,462.79627 3.4158521,450.9528 2.0251511,447.2656 1.7118188,443.89386 1.985262,435.55834 2.3302794,425.04099 2.3943279,424.79799 6.3719006,418.91559 8.6020075,415.6175 33.389867,389.83958 61.761791,361.31335 L 113.11517,309.68068 104.8583,293.66059 C 81.030646,247.42988 75.208321,200.73904 87.186537,151.94583 91.193295,135.62433 101.18557,111.74509 111.31608,94.28179 l 1.9088,-3.290451 -8.15355,-8.161731 -8.153551,-8.16173 -5.809387,2.041836 c -3.239473,1.138583 -8.408365,2.04148 -11.684476,2.041032 -11.231122,-0.0015 -23.16009,-8.117225 -27.782819,-18.901613 L 49.713765,55.352849 H 25.261577 0.80938943 v -7.630011 -7.63001 H 25.128311 49.447231 l 3.030554,-5.369847 c 3.562468,-6.312348 9.944312,-12.376298 15.844986,-15.055711 6.581626,-2.988626 18.127687,-2.678485 24.841759,0.667279 14.50278,7.227041 21.00549,23.58354 15.3671,38.653473 l -2.14992,5.746169 6.95498,7.008679 c 3.82523,3.854773 7.42504,6.999762 7.99958,6.988863 0.57454,-0.0109 3.79143,-3.262122 7.14863,-7.22494 C 159.96396,34.349157 205.02628,9.8638524 254.74234,2.9028715 272.53351,0.41184546 301.93637,1.3409581 319,4.9333755 372.54904,16.207081 416.30684,45.986005 446.49271,91.697222 c 60.62563,91.806918 33.57951,216.700368 -59.84039,276.330748 -22.28752,14.22623 -53.70604,25.78268 -79.55181,29.26098 -13.40909,1.80459 -55.50283,0.58573 -65.69145,-1.90214 -23.39369,-5.7123 -41.70821,-12.60737 -58.49675,-22.02293 l -11.69935,-6.56136 -45.78006,45.5094 c -62.757629,62.3866 -61.86388,61.56999 -70.205302,64.14639 -9.580521,2.95912 -20.515723,2.82091 -28.243586,-0.35695 z M 52.187067,462.3446 c 4.650504,-2.00465 27.332889,-23.03933 55.442473,-51.415 l 18.82069,-18.99885 -18.54327,-18.06251 c -10.1988,-9.93439 -19.281156,-18.06253 -20.183012,-18.06253 -1.725326,0 -63.635865,61.30775 -63.237809,62.62209 0.126839,0.41881 -1.434493,2.3378 -3.469628,4.26442 -2.124924,2.01161 -4.179801,5.23033 -4.826666,7.56038 -1.361244,4.90329 -1.493682,12.70479 -0.215677,12.70479 0.507152,0 0.700504,0.84736 0.429674,1.88301 -0.270829,1.03566 0.20803,2.58346 1.064134,3.43957 0.856102,0.85609 1.331834,1.78126 1.057181,2.05591 -1.128457,1.12846 6.51351,9.42246 10.734434,11.65033 5.58907,2.94999 16.518951,3.12084 22.927476,0.35839 z M 291.76713,384.04722 c 0,-0.50715 0.92961,-0.67899 2.06581,-0.38187 2.41519,0.63158 21.33016,-1.7103 21.33865,-2.64196 0.003,-0.34765 1.93562,-0.70697 4.29436,-0.79849 2.35873,-0.0916 4.4382,-0.61517 4.62103,-1.16367 0.18283,-0.54849 1.22607,-0.76357 2.31831,-0.47794 1.09225,0.28562 1.9868,0.12258 1.98792,-0.36234 10e-4,-0.48491 1.27892,-0.97017 2.83958,-1.07836 3.9724,-0.27538 20.55709,-6.39835 20.55709,-7.58955 0,-0.53964 0.4374,-0.71083 0.972,-0.38043 1.38266,0.85453 19.23948,-8.3281 30.05671,-15.45625 40.5211,-26.70189 68.95292,-68.9553 78.91495,-117.27792 3.07715,-14.9262 3.83513,-50.46193 1.38407,-64.88732 -0.92395,-5.43773 -1.97277,-10.11569 -2.33074,-10.39546 -0.35796,-0.27976 -0.73941,-2.12015 -0.84765,-4.08975 -0.52237,-9.50448 -12.45694,-38.74018 -22.41763,-54.91566 -19.98363,-32.452057 -52.02527,-59.441375 -87.40582,-73.623691 -13.20422,-5.292914 -26.35881,-9.171736 -28.42108,-8.380366 -0.79321,0.304379 -1.44219,0.151347 -1.44219,-0.340071 0,-1.124317 -13.77963,-3.507371 -15.79933,-2.732341 -0.82244,0.315603 -1.49536,0.0737 -1.49536,-0.537558 0,-0.725151 -1.94451,-0.950129 -5.59534,-0.647373 -3.07744,0.255204 -5.59534,0.08299 -5.59534,-0.382691 0,-1.014363 -21.73627,-1.152685 -22.74422,-0.144737 -0.38608,0.386079 -2.98028,0.581038 -5.7649,0.433243 -2.7846,-0.147796 -5.06293,0.131095 -5.06293,0.619757 0,0.488663 -1.6023,0.701418 -3.56067,0.472789 -2.00527,-0.234103 -3.56067,0.03573 -3.56067,0.617707 0,0.568367 -0.83534,0.814947 -1.85633,0.547954 -2.3946,-0.626204 -20.52503,3.61211 -20.52503,4.798098 0,0.495354 -0.63198,0.658129 -1.40441,0.361723 -1.77789,-0.682239 -19.02037,5.726078 -29.37351,10.916918 -35.95351,18.026312 -64.94814,46.839088 -82.63691,82.118619 -8.7691,17.48961 -14.2879,34.39224 -17.984163,55.08078 -1.813901,10.15267 -1.822259,46.74654 -0.01301,56.97075 9.395003,53.0919 36.824253,95.97279 80.046523,125.13888 9.02133,6.08753 26.83887,15.703 27.63063,14.91124 0.3181,-0.3181 1.19396,0.0372 1.94636,0.78962 3.74125,3.74125 31.74503,11.79874 49.25652,14.17253 12.12093,1.64306 35.60672,2.12798 35.60672,0.73519 z m -143.49174,-13.87424 11.00005,-10.72699 -18.8314,-18.77572 c -10.35727,-10.32664 -19.22433,-18.77571 -19.70458,-18.77571 -1.66449,0 -20.909488,19.89107 -20.909488,21.61143 0,2.04691 34.146858,37.42918 36.102148,37.40832 0.73877,-0.008 6.29324,-4.84148 12.34327,-10.74133 z M 87.912132,62.857436 c 4.945204,-2.346653 7.795891,-6.84415 8.31639,-13.120677 0.863329,-10.410606 -5.590611,-17.508623 -16.069669,-17.673361 -10.185167,-0.160117 -15.906448,5.538568 -16.14476,16.080998 -0.105925,4.685916 0.335636,6.521189 2.1291,8.849245 2.36881,3.074899 5.243794,5.512305 7.880077,6.680717 2.899487,1.285063 10.387387,0.844637 13.888862,-0.816922 z"
   id="path7366"
   inkscape:connector-curvature="0" /><path
   style="fill:#cdcdcd;fill-opacity:1;stroke-width:1.01733482"
   d="M 30.820765,477.13765 C 19.459714,473.5352 11.02134,466.23918 5.6894133,455.4085 2.5106142,448.95145 2.3353916,448.00977 2.3353916,437.38345 c 0,-9.53465 0.3273642,-11.82089 2.1881274,-15.28142 2.6344966,-4.89946 25.062765,-28.42553 72.941815,-76.51209 l 35.664126,-35.81871 -7.73813,-15.55669 C 93.700535,270.71143 87.735515,253.27401 83.539113,230.33443 c -2.446854,-13.37571 -2.43907,-46.29007 0.01431,-60.53142 3.905908,-22.67294 10.803704,-42.55989 22.861257,-65.91101 l 6.71762,-13.009602 -8.13106,-8.131057 -8.13106,-8.131057 -4.439029,1.56618 c -16.213338,5.7204 -31.515766,0.11186 -39.49456,-14.475273 L 49.458742,55.352849 H 25.134065 0.80938943 v -7.630011 -7.63001 H 25.038622 49.267854 l 4.169288,-6.539763 C 60.722215,22.126019 70.324487,16.969923 82.50005,17.94726 c 14.644903,1.175552 25.86488,12.052116 27.75412,26.904639 0.50714,3.986943 0.12746,7.054133 -1.56158,12.614939 l -2.23164,7.347202 6.94107,6.994671 c 3.81759,3.847069 7.41349,6.868558 7.9909,6.714421 0.57741,-0.154138 5.30131,-4.972577 10.49756,-10.707642 17.31562,-19.111126 35.57063,-32.952408 58.65184,-44.470896 23.74584,-11.850163 45.38784,-18.3174944 70.1961,-20.976859 13.16041,-1.41075236 38.35144,-0.6368514 51.88407,1.5939456 75.2728,12.4083964 137.33017,68.1030624 158.71563,142.4426294 5.21963,18.14432 6.87582,30.81015 6.9174,52.90141 0.042,22.33657 -1.18068,32.24687 -6.40845,51.94113 -9.12491,34.3757 -26.87736,64.88473 -52.5222,90.2637 -22.21288,21.98257 -46.66646,36.86704 -77.55785,47.2081 -18.76077,6.28027 -30.51316,8.49587 -48.47389,9.13848 -43.38753,1.55233 -70.60882,-4.31294 -106.94089,-23.04217 l -15.38077,-7.9288 -30.3993,30.49505 c -42.959239,43.09457 -76.004111,74.69139 -80.485581,76.95864 -8.020665,4.05779 -21.291242,5.32646 -29.265824,2.7978 z m 20.621243,-14.65721 c 0.224346,-0.67303 0.826601,-0.96493 1.338345,-0.64865 0.511745,0.31627 0.930444,0.0902 0.930444,-0.50233 0,-0.59255 0.454318,-1.07738 1.009597,-1.07738 2.182646,0 26.204457,-22.39851 52.909146,-49.33376 l 18.82069,-18.9832 -17.76206,-17.29514 c -9.769143,-9.51234 -18.593272,-17.74 -19.60918,-18.2837 -1.553137,-0.83121 -4.635991,1.71799 -19.370651,16.01752 -22.81257,22.1389 -50.319369,50.87759 -52.437449,54.78587 -1.118677,2.06419 -1.67637,5.59922 -1.689795,10.71105 -0.01724,6.56734 0.397775,8.3843 2.979885,13.04584 2.990615,5.39903 8.317161,10.48053 12.897923,12.30456 3.469371,1.38149 19.473449,0.78829 19.983105,-0.74068 z M 301.68737,383.18532 c 0.16652,-0.49958 1.5656,-0.72299 3.10907,-0.49646 3.50022,0.51373 26.01465,-4.4739 26.4793,-5.86597 0.18768,-0.56225 0.77077,-0.75679 1.29576,-0.43234 1.24182,0.76749 14.13171,-3.51732 14.13171,-4.69761 0,-0.49635 0.62767,-0.66159 1.39483,-0.36721 0.76715,0.29438 2.08605,-0.15598 2.93089,-1.00082 0.84483,-0.84484 1.81947,-1.25266 2.16584,-0.90628 0.34638,0.34637 0.62978,0.0687 0.62978,-0.61716 0,-0.68581 0.43778,-0.97637 0.97286,-0.64567 1.50392,0.92948 17.89043,-7.69585 29.64437,-15.60386 39.52896,-26.59493 67.38333,-68.43713 77.29683,-116.1135 1.93483,-9.30504 2.22778,-14.02611 2.2726,-36.62405 0.0488,-24.61937 -0.0901,-26.58069 -2.72596,-38.46815 C 449.82789,109.6741 419.3149,67.330416 373.98751,40.200834 359.57443,31.574247 332.78725,20.917111 324.34891,20.452388 c -1.97325,-0.108674 -3.83262,-0.523078 -4.13192,-0.9209 -1.82102,-2.420465 -52.04982,-6.663264 -50.58649,-4.273012 0.32103,0.524381 -3.03318,0.985883 -7.72296,1.062599 -23.35901,0.3821 -59.87403,13.146589 -84.0819,29.392356 -38.79597,26.035761 -66.27697,65.310319 -77.30834,110.485479 -11.85484,48.54741 -2.89147,101.98227 24.11546,143.76361 25.77433,39.87442 65.92633,68.30169 112.70696,79.79555 7.07164,1.73748 12.10485,2.61775 26.45071,4.62602 5.41249,0.7577 37.58399,-0.25996 37.89694,-1.19877 z m -153.3961,-13.07316 11.16605,-10.78779 -18.91397,-18.46058 c -10.40268,-10.15331 -19.3368,-18.61972 -19.85357,-18.81424 -0.51679,-0.19453 -5.48371,4.31931 -11.03762,10.03074 -9.909101,10.19016 -10.071741,10.43518 -8.69435,13.09877 1.85253,3.58241 33.26531,35.74373 34.89925,35.73088 0.69748,-0.005 6.29288,-4.86448 12.43421,-10.79778 z M 87.912132,62.857436 c 6.500985,-3.084919 9.692363,-10.636912 8.094453,-19.154501 -0.78167,-4.166661 -7.118731,-11.174649 -9.335574,-10.323967 -0.782561,0.300297 -1.422836,0.136694 -1.422836,-0.36356 0,-0.500255 -2.6776,-0.812783 -5.950222,-0.694508 -10.250221,0.370453 -14.421605,4.722111 -14.955117,15.60143 l -0.334825,6.827718 4.879407,4.879407 c 4.586483,4.586483 5.199537,4.879407 10.212,4.879407 2.932925,0 6.898646,-0.743142 8.812714,-1.651426 z"
   id="path7368"
   inkscape:connector-curvature="0" /><path
   style="fill:#cdcdcd;fill-opacity:1;stroke-width:1.01733482"
   d="m 254.12574,365.2258 c -34.85713,-6.17374 -64.83135,-21.19843 -89.29878,-44.76134 -24.14461,-23.25203 -39.67174,-50.69656 -48.11447,-85.04336 -2.16198,-8.79541 -2.37552,-11.90649 -2.37414,-34.58938 0.002,-27.78337 0.79311,-33.57129 7.23358,-52.90141 16.97538,-50.949077 57.12853,-90.523479 108.72124,-107.154184 16.52228,-5.325889 26.64517,-6.532113 53.33528,-6.355327 21.08648,0.13967 23.73169,0.363456 33.57205,2.84022 22.68697,5.710184 41.90915,14.262107 58.24557,25.913381 11.85236,8.453199 29.20686,25.531385 38.57265,37.95851 8.7764,11.64508 20.28058,33.57404 24.61105,46.91295 12.31024,37.9185 10.32212,81.55446 -5.37456,117.96323 -8.90533,20.65612 -19.02884,35.26171 -36.65248,52.88003 -22.96488,22.95793 -50.40381,37.71259 -83.29139,44.78802 -12.68044,2.72807 -47.39768,3.63649 -59.1856,1.54866 z m 43.23673,-13.82877 c 17.28504,-0.1139 47.58173,-11.20199 68.33079,-25.00794 10.57122,-7.03385 27.73241,-23.29497 35.55884,-33.69385 17.26281,-22.9369 28.48205,-50.7927 29.41884,-73.04283 0.23558,-5.59534 0.68367,-16.0103 0.99574,-23.14436 l 0.56742,-12.97102 h -16.80627 -16.80628 l -2.55857,5.04911 c -3.72385,7.34866 -8.03986,11.788 -14.58564,15.00247 -7.3608,3.61469 -18.5353,3.98886 -25.49954,0.85383 l -4.40869,-1.98462 -18.20164,18.63619 c -10.0109,10.2499 -18.20164,18.98412 -18.20164,19.4094 0,0.42527 0.73758,2.5385 1.63907,4.69606 1.22204,2.92476 1.52808,6.12712 1.20282,12.58659 -0.4831,9.59434 -1.83408,13.02897 -7.66239,19.48021 -5.61108,6.2108 -10.49842,8.29428 -20.66603,8.80994 -11.30691,0.57347 -17.12876,-1.73145 -24.36101,-9.6447 -8.13583,-8.90189 -10.24409,-20.05182 -5.95768,-31.50828 l 2.18286,-5.83422 -25.06367,-24.74566 c -13.78503,-13.61012 -26.20009,-25.17772 -27.58902,-25.7058 -1.77262,-0.67394 -3.78452,-0.51586 -6.7498,0.53035 -5.56218,1.96244 -14.63349,1.89279 -20.65402,-0.15862 -5.39438,-1.83805 -14.38221,-9.89852 -17.47333,-15.67043 -2.40284,-4.48672 -2.6425,-18.58758 -0.43844,-25.79588 l 1.51824,-4.96534 -8.63958,-7.98059 c -4.75177,-4.38933 -9.09319,-7.84068 -9.6476,-7.66967 -0.5544,0.171 -1.82383,1.7078 -2.82094,3.41509 -2.78022,4.76039 -10.17267,24.86516 -10.30036,28.01321 -0.0624,1.53745 -0.42003,2.7964 -0.79483,2.79767 -0.3748,0.001 -1.44817,3.32138 -2.38525,7.378 -1.84924,8.0053 -3.31456,49.59507 -1.74738,49.59507 0.46467,0 0.65779,1.6023 0.42916,3.56067 -0.2341,2.00527 0.0357,3.56067 0.61771,3.56067 0.56837,0 0.81448,0.83713 0.54692,1.86027 -0.87847,3.35929 6.09774,27.64244 7.94129,27.64244 0.54693,0 0.71433,0.4532 0.372,1.00712 -0.97291,1.5742 6.87438,17.41273 14.01892,28.295 9.89155,15.06644 24.02706,29.75606 38.79195,40.31259 10.24962,7.32824 20.59071,13.1251 21.93354,12.29519 0.57239,-0.35376 1.04071,-0.13136 1.04071,0.49422 0,0.62558 0.4578,0.85448 1.01733,0.50867 0.55954,-0.34582 1.01734,-0.21742 1.01734,0.28533 0,1.24166 5.00673,3.44482 6.18025,2.71956 0.5176,-0.3199 0.94109,-0.14161 0.94109,0.39622 0,1.21116 6.00419,3.39334 7.23821,2.63067 0.49526,-0.30609 0.90047,-0.0227 0.90047,0.62969 0,0.65242 0.65713,0.93406 1.46027,0.62587 0.80316,-0.3082 1.6087,-0.11509 1.79011,0.42914 0.18142,0.54422 1.69884,1.09076 3.37207,1.21451 1.67322,0.12376 3.31551,0.59645 3.64951,1.05042 0.334,0.45398 5.14091,1.69608 10.68201,2.76024 8.17774,1.5705 13.13965,1.84732 26.3521,1.47018 8.95254,-0.25555 17.19295,-0.47067 18.31202,-0.47805 z m -4.50299,-79.49455 c 2.12947,-0.638 5.36073,-2.69623 7.18059,-4.57385 2.9054,-2.99762 3.33591,-4.15812 3.53093,-9.51823 0.12216,-3.35741 -0.2022,-6.36661 -0.7208,-6.68712 -0.5186,-0.32051 -0.67953,-1.00891 -0.3576,-1.52979 0.32191,-0.52086 0.0735,-0.94704 -0.55212,-0.94704 -0.62558,0 -0.89932,-0.38526 -0.6083,-0.85613 0.29102,-0.47088 -1.04067,-2.37765 -2.95931,-4.23726 -2.85707,-2.76919 -4.47385,-3.46286 -8.933,-3.83264 -3.71992,-0.30849 -5.91315,-0.0136 -6.92387,0.93092 -0.81364,0.76035 -2.15512,1.51398 -2.98111,1.67475 -1.98425,0.38623 -6.25491,5.21396 -5.57932,6.3071 0.29126,0.47125 0.0239,1.02538 -0.59418,1.23139 -1.53255,0.51085 -2.56467,9.97256 -1.08786,9.97256 0.61475,0 0.87881,0.62259 0.5868,1.38355 -1.12377,2.92847 9.19183,11.91875 11.81534,10.29733 0.5431,-0.33566 0.98745,-0.12547 0.98745,0.46709 0,1.39277 2.36246,1.36565 7.19636,-0.0826 z m -13.39301,-45.25101 c 6.19193,-1.9378 11.97263,-1.757 18.78732,0.58759 3.18331,1.09523 5.51697,1.55303 5.18589,1.01734 -0.33107,-0.53569 0.22622,-0.98452 1.23843,-0.9974 1.0122,-0.0129 9.62113,-7.5006 19.13095,-16.63939 l 17.29058,-16.61598 -1.49976,-4.97897 c -2.04529,-6.79004 -2.24853,-19.31774 -0.38613,-23.79966 7.03441,-16.92844 25.75574,-24.62152 41.69001,-17.13153 5.17963,2.43471 13.97703,11.61557 15.70062,16.38497 l 1.18893,3.2899 h 15.65607 c 10.71413,0 15.65637,-0.35349 15.65701,-1.11986 0.003,-3.04397 -9.21314,-27.87418 -10.34545,-27.87418 -0.53041,0 -0.69205,-0.44064 -0.3592,-0.9792 0.80078,-1.2957 -3.49153,-9.70803 -10.40117,-20.38483 -20.61915,-31.860724 -51.90841,-54.711806 -88.62513,-64.724442 -5.23842,-1.428517 -10.36673,-2.37703 -11.39624,-2.107809 -1.02951,0.269222 -2.01512,0.05961 -2.19026,-0.465807 -0.17514,-0.525416 -4.14956,-1.148388 -8.83206,-1.384383 -4.6825,-0.235995 -8.75765,-0.673112 -9.05592,-0.97137 -0.70636,-0.706372 -14.95858,-0.707786 -15.66482,-0.0015 -0.29739,0.297404 -4.36394,0.70869 -9.03678,0.91397 -4.67282,0.20528 -8.64196,0.811013 -8.82032,1.346075 -0.17835,0.535062 -1.4528,0.757108 -2.83213,0.493435 -1.37931,-0.263701 -2.50784,-0.01112 -2.50784,0.561256 0,0.57238 -0.86172,0.815344 -1.91495,0.53992 -2.96736,-0.775981 -25.53262,7.19017 -36.88451,13.021239 -18.04253,9.267816 -34.1221,22.122834 -47.29216,37.808326 -4.12675,4.91494 -7.50318,9.36397 -7.50318,9.88674 0,0.52277 4.32842,5.4146 9.6187,10.87074 l 9.61869,9.92026 4.87833,-1.49497 c 7.05294,-2.16138 21.24885,-1.92718 25.63378,0.42289 4.50356,2.41366 12.62574,10.56784 14.90932,14.96807 2.5624,4.93749 3.15315,16.81337 1.13148,22.74663 -1.14915,3.37256 -1.33273,5.45034 -0.64205,7.26694 0.53197,1.3992 12.15616,13.79737 25.83154,27.5515 19.97323,20.08824 25.22752,24.85699 26.71069,24.24237 1.01549,-0.42082 3.86477,-1.3968 6.33172,-2.16885 z m 97.51537,-36.6769 c 1.46247,-1.09189 3.56368,-3.19693 4.66936,-4.67788 2.54673,-3.41105 3.51678,-12.95677 1.53249,-15.08013 -0.76034,-0.81364 -1.53451,-2.15356 -1.72038,-2.97762 -1.03837,-4.6036 -6.37171,-7.09942 -14.33602,-6.70877 -7.22274,0.35427 -10.80175,2.41873 -13.5555,7.81915 -4.38933,8.60802 -0.44439,19.54039 8.39196,23.2561 3.72594,1.56677 11.92823,0.67606 15.01809,-1.63085 z M 200.21735,174.12668 c 5.77675,-3.93162 7.61966,-7.31489 7.61966,-13.98835 0,-6.67346 -1.84291,-10.05673 -7.61966,-13.98835 -4.08703,-2.78161 -12.21574,-3.16363 -14.68903,-0.69034 -0.87927,0.87927 -1.59867,1.25142 -1.59867,0.82701 0,-0.42443 -1.35713,0.52853 -3.01583,2.11767 -1.65871,1.58915 -2.77619,3.2771 -2.4833,3.751 0.29289,0.47392 0.0207,0.86167 -0.60488,0.86167 -0.62558,0 -0.85448,0.4578 -0.50867,1.01733 0.34581,0.55954 0.14393,1.01734 -0.44863,1.01734 -1.75072,0 -1.31161,9.79378 0.5213,11.62668 0.87926,0.87927 1.26611,1.59867 0.85966,1.59867 -1.25132,0 2.96336,4.25339 6.18901,6.24586 4.32346,2.67058 11.53923,2.4894 15.77904,-0.39619 z"
   id="path7370"
   inkscape:connector-curvature="0" /><path
   style="fill:#fcfcfc;fill-opacity:1;stroke-width:1.01733482"
   d="m 28.786095,476.73066 c -10.761893,-3.7385 -18.307827,-10.91082 -23.8870897,-22.7044 -2.709667,-5.72775 -3.0701033,-7.5673 -3.065805,-15.64687 0.00268,-5.03581 0.4554945,-10.77809 1.0062564,-12.76062 1.6465951,-5.92711 10.2297653,-15.2676 61.3393003,-66.75142 l 48.792733,-49.15006 -8.71878,-17.5644 c -9.598681,-19.33701 -12.608434,-27.16284 -17.035529,-44.29506 -7.988088,-30.91274 -7.982526,-63.94085 0.01615,-95.91657 3.767968,-15.06294 8.559264,-27.23192 18.134969,-46.05941 l 7.67437,-15.089091 -8.06245,-8.062441 -8.062441,-8.06244 -6.089136,2.150809 C 75.311876,82.299527 58.216084,74.828748 51.60129,59.676522 L 49.713765,55.352849 H 25.261577 0.80938943 v -7.630011 -7.63001 H 25.128311 49.447231 l 3.030554,-5.369847 c 3.663691,-6.491704 10.043021,-12.453519 16.275783,-15.210567 6.752182,-2.986811 19.431893,-2.236579 25.859128,1.530032 13.379104,7.84068 18.994684,22.749613 14.058644,37.324672 l -2.22669,6.574941 7.22693,7.043379 7.22694,7.043378 14.98387,-15.240885 C 151.39863,48.005552 157.05436,43.2638 171.72163,33.740375 238.09266,-9.3541674 323.50438,-9.3704484 388.9226,33.698972 457.01872,78.531444 491.56981,161.80222 474.73266,240.50778 459.1119,313.5273 405.22468,371.28484 333.98652,391.36263 c -21.83991,6.15537 -23.33967,6.32909 -53.91874,6.24546 -25.27281,-0.0691 -29.61989,-0.32677 -38.54507,-2.28454 -20.722,-4.54545 -45.89068,-14.26435 -63.15501,-24.38735 l -7.08794,-4.15605 -50.39147,50.07994 c -27.71531,27.54397 -52.909373,51.96526 -55.986811,54.26952 -3.077437,2.30426 -8.081886,4.91968 -11.120996,5.81203 -7.226938,2.12201 -18.553743,2.02639 -24.994388,-0.21098 z m 22.595808,-14.62188 c 0.721358,-0.59867 1.311559,-0.80802 1.311559,-0.46522 0,2.01904 18.327415,-14.76324 45.894291,-42.02506 L 126.45023,392.06436 109.66421,375.7307 c -9.23231,-8.98351 -17.827806,-17.04944 -19.101095,-17.9243 -2.121588,-1.45769 -2.482941,-1.43871 -4.323673,0.22713 -1.104731,0.99977 -2.008602,1.40647 -2.008602,0.90378 0,-0.50269 -13.021447,12.10145 -28.936547,28.0092 -15.915102,15.90776 -28.723503,29.26791 -28.463115,29.68922 0.260388,0.42132 -1.160589,2.05249 -3.157726,3.62483 -4.596923,3.61915 -7.974449,8.9625 -7.298661,11.54672 0.286808,1.09675 0.106529,1.9941 -0.400623,1.9941 -1.055117,0 -1.270914,7.45075 -0.245496,8.47616 0.372127,0.37213 0.806473,1.89476 0.965212,3.38364 0.15874,1.48887 0.808975,3.02865 1.444966,3.42171 0.635991,0.39307 1.021945,1.07916 0.857677,1.52464 -0.986825,2.67622 11.270708,13.32185 14.092289,12.2391 0.710941,-0.2728 1.292621,-0.0324 1.292621,0.53433 0,1.34888 15.214089,0.21038 17.000466,-1.27218 z M 290.18128,384.04881 c 0.3129,-0.50628 2.3782,-0.67782 4.58956,-0.38122 2.21137,0.29661 4.84363,0.18964 5.84948,-0.23771 1.00585,-0.42734 3.31668,-0.67851 5.13516,-0.55816 1.91772,0.12691 3.30634,-0.26641 3.30634,-0.93651 0,-0.63542 0.45292,-0.8754 1.00648,-0.53327 1.24918,0.77202 13.09471,-1.48464 13.80223,-2.62944 0.28406,-0.45962 1.15275,-0.59151 1.9304,-0.29309 0.77766,0.29841 2.47975,-0.0477 3.78243,-0.76924 1.30267,-0.72149 2.71911,-1.21212 3.14763,-1.0903 1.41074,0.40109 13.44617,-4.02551 14.21046,-5.22657 0.41137,-0.64643 0.75495,-0.81589 0.76352,-0.37655 0.008,0.43933 1.04562,0.22763 2.30458,-0.47047 1.25895,-0.69809 2.63235,-1.172 3.052,-1.05312 0.41965,0.11887 0.763,-0.14425 0.763,-0.58472 0,-0.44045 0.94372,-0.87192 2.09716,-0.9588 2.31845,-0.17465 19.17805,-8.92633 20.79656,-10.79533 0.56155,-0.64847 1.70606,-1.33113 2.54333,-1.51702 3.1782,-0.7056 18.01945,-12.26334 28.1914,-21.95426 21.03196,-20.03738 34.84355,-40.57794 45.49536,-67.66058 5.00435,-12.72372 9.65974,-31.33771 10.19783,-40.7747 0.36838,-6.46078 0.78281,-36.81075 0.64881,-47.5139 -0.0624,-4.98002 -4.16915,-24.16294 -5.25569,-24.54942 -0.52761,-0.18768 -0.71019,-0.74426 -0.40575,-1.23688 0.79908,-1.29293 -2.5298,-12.15592 -3.7251,-12.15592 -0.55285,0 -0.75475,-0.40521 -0.44866,-0.90047 0.76267,-1.23402 -1.41951,-7.2382 -2.63067,-7.2382 -0.53782,0 -0.69373,-0.45974 -0.34646,-1.02162 0.84875,-1.3733 -7.0266,-17.79166 -13.64235,-28.4413 C 429.18906,89.068619 420.31154,78.25814 408.04888,66.520805 393.64393,52.732945 381.07215,43.80495 363.82417,35.114092 349.61012,27.951967 331.30484,21.117477 329.43359,22.27397 c -0.57332,0.354336 -1.04241,0.106034 -1.04241,-0.551781 0,-0.695164 -0.85207,-0.973209 -2.03467,-0.66395 -1.11907,0.292642 -2.03467,0.06375 -2.03467,-0.508667 0,-0.57241 -0.91514,-0.80143 -2.03365,-0.508932 -1.11852,0.292497 -2.26464,0.158079 -2.54695,-0.298706 -0.68218,-1.10379 -14.39328,-3.387584 -15.65527,-2.607626 -0.54316,0.335689 -1.29431,0.114026 -1.66922,-0.492586 -0.38747,-0.626952 -3.04549,-0.993432 -6.15912,-0.849202 -3.01263,0.13955 -5.78951,-0.0583 -6.17088,-0.439666 -1.03289,-1.032888 -20.91155,-0.839807 -20.27083,0.19689 0.30261,0.489657 -1.4803,0.661416 -3.96204,0.381687 -2.48175,-0.279728 -5.33468,-0.159163 -6.33986,0.267924 -1.00518,0.427085 -3.31546,0.678051 -5.13394,0.557701 -1.81849,-0.120351 -3.30634,0.210573 -3.30634,0.735385 0,0.524814 -1.1445,0.73542 -2.54334,0.468016 -1.39883,-0.267405 -2.54333,-0.03851 -2.54333,0.508667 0,0.547172 -1.1445,0.776072 -2.54334,0.508667 -1.54631,-0.295595 -2.54334,-0.01734 -2.54334,0.709784 0,0.657785 -0.47953,0.899605 -1.06562,0.53738 -1.4304,-0.884031 -11.14239,1.499598 -11.14239,2.734692 0,0.536748 -0.38227,0.739653 -0.84948,0.450902 -1.12469,-0.695102 -8.30654,1.534144 -8.30654,2.578353 0,0.448094 -0.6867,0.551205 -1.526,0.229134 -0.8393,-0.32207 -1.526,-0.09317 -1.526,0.508667 0,0.601838 -0.62768,0.853389 -1.39483,0.559004 -0.76715,-0.294385 -2.08605,0.155983 -2.93089,1.00082 -0.84483,0.844835 -1.7603,1.311823 -2.03438,1.037751 -0.72516,-0.725159 -5.84792,1.774243 -5.84792,2.853209 0,0.502743 -0.47033,0.623398 -1.04518,0.268122 -0.57484,-0.355277 -5.0384,1.512693 -9.91901,4.151042 -35.12456,18.987563 -62.78451,47.905012 -79.707,83.330709 -2.80453,5.87104 -4.81154,11.13999 -4.46001,11.70877 0.35153,0.56879 0.17725,1.03416 -0.38727,1.03416 -1.31013,0 -7.55349,19.36491 -9.675852,30.01138 -0.892337,4.47627 -2.073063,12.48778 -2.623835,17.80335 -1.073033,10.356 -1.393579,31.85869 -0.48842,32.76385 0.301533,0.30153 0.720173,3.92578 0.930313,8.05389 1.060249,20.82821 12.205054,53.31395 25.951614,75.64573 14.67327,23.83727 37.37418,46.28577 61.46159,60.7782 4.40751,2.65183 8.41327,4.57453 8.90168,4.27268 0.48842,-0.30187 0.88803,-0.0734 0.88803,0.50786 0,1.22278 8.07245,5.57274 8.86704,4.77814 0.29216,-0.29216 1.15147,0.0891 1.90958,0.84718 3.52289,3.5229 38.9267,14.404 43.86963,13.48303 1.23944,-0.23094 2.38394,-0.0368 2.54334,0.43141 0.68129,2.00113 37.71108,3.90725 38.8887,2.00182 z M 147.65384,370.5955 c 6.01762,-5.66746 10.80447,-10.81772 10.63744,-11.44502 -0.16701,-0.62729 -8.68674,-9.34426 -18.93272,-19.37103 l -18.62905,-18.23048 -9.89575,9.85862 c -5.44267,5.42225 -9.96223,10.74099 -10.04347,11.81944 -0.0887,1.17799 3.49281,5.94177 8.97122,11.93252 9.17908,10.03751 25.2596,25.74042 26.35943,25.74042 0.32548,0 5.51528,-4.63701 11.5329,-10.30447 z M 87.917831,62.413043 c 6.913183,-3.346616 10.291813,-12.414308 7.43897,-19.964984 -1.310198,-3.467726 -6.016738,-8.593256 -7.2123,-7.854358 -0.473911,0.292893 -0.861657,0.0207 -0.861657,-0.604882 0,-0.625578 -0.426168,-0.874029 -0.947039,-0.552112 -0.520871,0.321916 -1.193109,0.18715 -1.493862,-0.299479 -0.872422,-1.411608 -11.796433,-0.403258 -14.447147,1.333557 -3.802238,2.491321 -5.207184,5.611031 -5.840261,12.968408 -0.546671,6.353204 -0.396107,7.066179 2.124937,10.062269 6.018352,7.152405 13.185533,8.809886 21.238359,4.911581 z"
   id="path7372"
   inkscape:connector-curvature="0" /><path
   style="fill:#fcfcfc;fill-opacity:1;stroke-width:1.01733482"
   d="m 258.70375,366.02509 c -23.77682,-3.61355 -46.77156,-11.87071 -66.12676,-23.74539 -25.29759,-15.52044 -48.27381,-40.60693 -61.49183,-67.13961 -10.58765,-21.25271 -15.67689,-39.3029 -16.96592,-60.17361 -0.86914,-14.0723 -0.87062,-11.84861 0.0185,-27.86878 0.87228,-15.71664 2.57356,-24.78247 7.34782,-39.15523 16.57215,-49.889883 57.11571,-90.34799 106.88596,-106.660673 18.09453,-5.930655 23.82578,-6.668588 52.20492,-6.721704 24.00819,-0.04493 26.66248,0.131542 35.60672,2.367387 34.49494,8.622918 56.52879,20.974454 80.90767,45.354498 15.6627,15.663426 23.63096,26.391932 31.92263,42.980722 12.39232,24.7928 17.52928,46.38416 17.59595,73.95821 0.0677,27.96248 -4.7868,49.23876 -16.96379,74.35025 -7.75557,15.9936 -15.27695,26.70827 -29.0308,41.35621 -24.00178,25.56203 -53.07532,41.61107 -89.16571,49.2208 -7.79603,1.64382 -45.46037,2.98409 -52.74537,1.87692 z m 39.67606,-15.18945 c 2.79767,-0.20859 5.77337,-0.41674 6.61267,-0.46255 3.46229,-0.18897 13.22553,-2.35146 13.22767,-2.92984 0.001,-0.3432 1.46882,-0.6775 3.2612,-0.7429 1.79238,-0.0654 3.43274,-0.6405 3.64525,-1.27801 0.2125,-0.63751 0.7479,-0.93566 1.18978,-0.66255 1.1772,0.72754 10.21348,-2.53851 10.21348,-3.69155 0,-0.53996 0.42636,-0.71823 0.94746,-0.39618 1.1547,0.71364 8.20855,-2.52255 8.20855,-3.76595 0,-0.48892 0.4578,-0.60601 1.01734,-0.2602 0.55953,0.34581 1.01733,0.11691 1.01733,-0.50867 0,-0.62558 0.4578,-0.85448 1.01734,-0.50866 0.55953,0.34581 1.01733,0.11691 1.01733,-0.50867 0,-0.62558 0.37172,-0.90769 0.82603,-0.6269 1.11485,0.68902 11.38199,-5.24201 11.38199,-6.57507 0,-0.58123 0.46104,-0.77185 1.02452,-0.4236 0.56349,0.34825 1.29816,-0.0799 1.63261,-0.95145 0.33443,-0.87156 0.93408,-1.38316 1.33253,-1.1369 0.9654,0.59665 12.2877,-8.33237 12.2877,-9.69036 0,-0.58438 0.37692,-0.82954 0.8376,-0.54483 0.46069,0.28472 4.4557,-3.12177 8.87781,-7.56997 4.42212,-4.4482 7.67247,-8.08764 7.22302,-8.08764 -0.44945,0 0.59256,-1.18623 2.3156,-2.63607 1.72303,-1.44983 2.87564,-3.05213 2.56136,-3.56067 -0.3143,-0.50853 -0.10861,-0.9246 0.45705,-0.9246 1.21754,0 7.70164,-9.14178 6.51614,-9.18695 -0.44653,-0.017 -0.001,-0.50295 0.98985,-1.07986 0.99096,-0.57691 1.53619,-1.47859 1.21164,-2.00373 -0.32456,-0.52515 -0.11705,-0.95481 0.46114,-0.95481 1.32016,0 4.29953,-5.62088 3.4367,-6.4837 -0.3507,-0.35071 -0.13667,-0.63765 0.47563,-0.63765 2.10115,0 13.00104,-25.58509 12.00533,-28.17986 -0.27918,-0.72757 -0.10985,-1.32284 0.37631,-1.32284 1.12569,0 3.50358,-9.74951 2.69643,-11.0555 -0.33269,-0.53831 -0.12366,-1.13915 0.46453,-1.33521 0.63265,-0.21089 1.25794,-5.33611 1.53103,-12.54925 0.2539,-6.70601 0.69925,-17.11412 0.98966,-23.12911 l 0.52802,-10.93635 h -16.74442 -16.74443 l -3.29461,6.18134 c -7.63115,14.31751 -23.04194,20.53536 -37.92849,15.30316 l -5.44624,-1.91421 -18.56407,18.58444 -18.56407,18.58444 1.79704,4.70547 c 1.40056,3.66735 1.68079,6.56874 1.27013,13.15102 -0.58259,9.33812 -2.00621,12.90767 -7.63095,19.13358 -5.52939,6.12038 -10.43622,8.2015 -20.71987,8.78784 -7.8284,0.44635 -9.3967,0.22371 -14.32852,-2.03415 -14.65371,-6.7087 -21.66993,-23.29879 -16.30515,-38.55411 l 2.01292,-5.72394 -25.63397,-25.61919 -25.63398,-25.61918 -5.01921,0.81231 c -2.76057,0.44677 -8.96977,0.81716 -13.79823,0.82308 -8.56738,0.0105 -8.92298,-0.087 -14.75135,-4.04429 -3.28479,-2.23028 -6.32579,-4.61113 -6.75779,-5.29078 -0.432,-0.67965 -1.40268,-1.85297 -2.15708,-2.60736 -5.1213,-5.12129 -7.06577,-19.21005 -4.05197,-29.35863 l 1.56519,-5.27057 -7.45869,-7.55437 c -9.91467,-10.04187 -10.51246,-10.32937 -12.99378,-6.24917 -2.70817,4.45323 -10.29784,24.98512 -10.54337,28.52236 -0.1094,1.57602 -0.59565,2.86641 -1.08056,2.86752 -0.48491,0.001 -0.64222,0.91763 -0.34957,2.03669 0.29264,1.11907 0.0637,2.03467 -0.50867,2.03467 -0.57241,0 -0.80705,0.89365 -0.52142,1.98589 0.28562,1.09224 0.0687,2.13609 -0.48196,2.31966 -1.68712,0.56237 -2.47531,21.69784 -1.95453,52.41087 0.0308,1.81848 0.41375,3.30952 0.85093,3.31341 0.43718,0.004 0.89549,2.17384 1.01846,4.82209 0.12297,2.64827 0.69808,4.97318 1.27801,5.16649 0.57993,0.19331 0.7866,0.78481 0.45927,1.31444 -0.68597,1.10992 4.54637,18.19261 5.5723,18.19261 0.37466,0 0.74596,0.85981 0.82512,1.9107 0.21571,2.86356 7.34685,17.41866 8.53412,17.41866 0.56707,0 0.78681,0.39516 0.48832,0.87813 -0.29849,0.48296 2.244,5.10816 5.64998,10.2782 7.12419,10.81401 23.18201,27.9492 33.78172,36.04822 9.02535,6.89608 18.98174,12.9366 20.14153,12.21981 0.47968,-0.29646 0.87215,-0.0851 0.87215,0.4698 0,1.01171 3.90988,2.74288 5.34101,2.36483 0.41965,-0.11086 0.763,0.28325 0.763,0.87581 0,0.59256 0.4578,0.79444 1.01733,0.44863 0.55954,-0.34582 1.01734,-0.18872 1.01734,0.3491 0,1.10756 6.09549,3.49378 6.11958,2.39564 0.008,-0.39054 0.35192,-0.24296 0.763,0.32796 1.11496,1.54849 6.35617,3.65178 7.43634,2.98419 0.5176,-0.3199 0.9411,-0.0767 0.9411,0.54034 0,0.61708 0.57225,1.02848 1.27167,0.91423 0.69942,-0.11427 2.56903,0.32674 4.15471,0.98001 1.58567,0.65327 3.30242,0.92857 3.81501,0.61178 0.51257,-0.3168 0.93196,-0.0377 0.93196,0.62003 0,0.68538 0.8479,0.97431 1.98589,0.67671 1.09224,-0.28562 2.12229,-0.15278 2.289,0.29522 0.16671,0.44799 4.19442,1.51566 8.95046,2.3726 8.1102,1.4613 24.50802,1.50097 43.23673,0.10458 z m -2.14101,-80.67163 c 7.14236,-4.07236 9.33813,-13.4618 5.14262,-21.99061 -2.95897,-6.01511 -7.90771,-8.97591 -14.0464,-8.40387 -2.71742,0.25322 -5.34277,1.09518 -5.8341,1.871 -0.49132,0.77582 -0.91489,0.95278 -0.94125,0.39325 -0.0263,-0.55954 -0.73978,-0.10174 -1.58537,1.01733 -0.84559,1.11907 -1.74663,1.92022 -2.00232,1.78034 -0.25568,-0.13989 -0.49738,0.089 -0.53713,0.50867 -0.0398,0.41965 -0.73608,1.13449 -1.54741,1.58852 -0.81132,0.45404 -1.20958,1.25519 -0.88503,1.78034 0.32456,0.52515 0.13334,0.95481 -0.42493,0.95481 -1.46086,0 -2.74108,9.47 -1.3432,9.93596 0.60859,0.20287 0.87896,0.96186 0.60082,1.68667 -1.08319,2.82276 9.24286,11.83707 11.77027,10.27504 0.50443,-0.31175 1.22128,-0.0748 1.59297,0.52666 0.83958,1.35845 6.0267,0.36441 10.04046,-1.92411 z m -22.80513,-42.38616 c 0.45216,0.27945 2.75962,-0.1755 5.12769,-1.011 5.42575,-1.91432 12.31442,-1.92187 18.58125,-0.0204 3.59503,1.09082 5.58889,1.20239 7.63001,0.42697 3.9478,-1.49977 35.73682,-33.32253 35.34089,-35.37841 -0.17511,-0.90929 -0.84765,-3.61881 -1.49453,-6.02116 -0.64688,-2.40233 -1.07806,-7.39811 -0.95816,-11.1017 0.38719,-11.96022 6.75375,-21.40497 18.1984,-26.99723 5.7037,-2.78702 17.78652,-3.04242 23.63151,-0.4995 5.21337,2.26813 13.73615,10.46634 16.46715,15.84005 l 2.26188,4.45065 15.15362,-0.15218 c 8.33448,-0.0837 15.31591,-0.31449 15.51429,-0.51286 0.67921,-0.67924 -2.13575,-8.69747 -3.05342,-8.69747 -0.504,0 -0.64653,-0.43656 -0.31678,-0.97012 0.57145,-0.92463 -5.20955,-17.29551 -6.48314,-18.35924 -0.33496,-0.27977 -0.7648,-1.42427 -0.95518,-2.54334 -0.47044,-2.76518 -4.39437,-9.66468 -5.49656,-9.66468 -0.48952,0 -0.64582,-0.39515 -0.34733,-0.87812 0.67666,-1.09486 -10.95735,-18.89375 -13.52534,-20.69244 -1.03609,-0.72571 -1.92602,-1.77727 -1.97761,-2.3368 -0.12663,-1.37364 -18.6661,-20.002771 -19.28778,-19.381087 -0.27026,0.270264 -1.39841,-0.661695 -2.50699,-2.071022 -1.10858,-1.409327 -2.20837,-2.369637 -2.44398,-2.134024 -0.23561,0.235614 -1.83227,-0.883031 -3.54812,-2.485877 -1.71586,-1.602847 -3.53099,-2.660097 -4.03364,-2.349444 -0.50264,0.310653 -0.9139,0.132657 -0.9139,-0.395547 0,-1.18981 -5.06199,-4.585494 -6.83566,-4.585494 -0.71666,0 -1.30302,-0.409609 -1.30302,-0.91024 0,-1.261131 -20.93617,-11.149931 -23.97681,-11.324988 -1.35985,-0.07829 -2.47278,-0.534676 -2.47317,-1.01419 -4e-4,-0.479515 -0.68742,-0.608333 -1.52672,-0.286263 -0.83931,0.322071 -1.52601,0.197806 -1.52601,-0.276142 0,-1.10813 -13.0265,-4.404065 -14.29868,-3.617818 -0.52874,0.326777 -0.96134,0.07656 -0.96134,-0.55604 0,-0.6326 -1.03005,-1.017093 -2.289,-0.85443 -1.25895,0.162663 -2.8447,-0.05026 -3.52388,-0.473162 -4.14664,-2.581967 -46.22787,-2.616259 -50.36525,-0.04104 -0.7157,0.445476 -2.33133,0.676868 -3.59029,0.514205 -1.25895,-0.162663 -2.289,0.221831 -2.289,0.85443 0,0.6326 -0.45267,0.870411 -1.00595,0.528469 -1.3627,-0.8422 -17.30607,3.526833 -17.30607,4.742456 0,0.531259 -0.40012,0.71864 -0.88916,0.416402 -1.66209,-1.027229 -25.56155,9.692482 -25.56155,11.465215 0,0.458223 -0.58636,0.833135 -1.30302,0.833135 -1.77366,0 -6.83566,3.395684 -6.83566,4.585494 0,0.528204 -0.41125,0.7062 -0.9139,0.395547 -0.50265,-0.310653 -2.35641,0.782679 -4.11947,2.429627 -1.76307,1.646948 -3.46122,2.960468 -3.77367,2.918933 -0.31245,-0.04154 -3.74205,2.61497 -7.62133,5.903345 -6.76487,5.734427 -13.80924,13.224572 -21.2048,22.54666 l -3.45878,4.35977 10.01252,10.05022 c 5.98055,6.00308 10.66961,9.91797 11.64429,9.7218 0.89748,-0.18063 3.84224,-0.89156 6.54391,-1.57984 6.0364,-1.53784 17.61892,-0.71634 22.02504,1.56216 5.52265,2.85588 11.84148,9.1835 14.94224,14.96307 2.02105,3.76705 2.50118,16.94376 0.9322,25.58301 l -0.89496,4.92787 25.83721,25.85211 c 14.21046,14.21867 25.99159,25.38894 26.1803,24.82284 0.1887,-0.56611 0.71305,-0.80065 1.16521,-0.52119 z m 102.36417,-37.5943 c 0.61486,-0.84052 1.36977,-1.27637 1.6776,-0.96855 0.30781,0.30782 1.79167,-1.05556 3.29744,-3.02974 2.88189,-3.77834 4.37486,-10.45023 3.02899,-13.53609 -0.4387,-1.00585 -0.72496,-2.17218 -0.63612,-2.59183 0.0888,-0.41965 -0.32331,-0.763 -0.91587,-0.763 -0.59256,0 -0.81182,-0.42966 -0.48726,-0.95481 0.32455,-0.52515 -0.14725,-1.36745 -1.04846,-1.87178 -0.90119,-0.50434 -1.48308,-1.33364 -1.29306,-1.84286 0.19002,-0.50924 -1.23128,-1.71289 -3.15845,-2.67477 -4.24429,-2.1184 -15.15241,-1.6425 -16.94335,0.73922 -0.61486,0.81769 -1.36607,1.23856 -1.66936,0.93527 -0.30327,-0.30328 -1.58233,0.89636 -2.84233,2.66586 -2.63868,3.70569 -3.53097,11.06466 -1.93083,15.92404 1.26652,3.84623 7.68112,9.82777 9.70602,9.05074 0.7783,-0.29866 1.4151,-0.0358 1.4151,0.5841 0,1.67539 10.43321,0.20254 11.79994,-1.6658 z M 199.11901,174.92623 c 1.58416,-0.81921 4.07933,-2.91443 5.54482,-4.65607 2.30667,-2.74133 2.66452,-4.10203 2.66452,-10.13183 0,-6.0298 -0.35785,-7.3905 -2.66452,-10.13183 -1.46549,-1.74164 -3.96066,-3.83686 -5.54482,-4.65607 -3.32205,-1.71789 -12.13736,-2.01719 -12.13736,-0.41208 0,0.59256 -0.4578,0.79444 -1.01733,0.44863 -0.55954,-0.34582 -1.01734,-0.0677 -1.01734,0.61818 0,0.68581 -0.30939,0.93754 -0.68753,0.5594 -0.89906,-0.89906 -5.41648,3.35754 -5.41648,5.10376 0,0.74176 -0.48482,1.34867 -1.07737,1.34867 -0.59256,0 -0.81399,0.42617 -0.49207,0.94703 0.32191,0.52088 0.18246,1.19601 -0.3099,1.50031 -1.16529,0.72018 -1.16529,8.62782 0,9.348 0.49236,0.3043 0.63181,0.97943 0.3099,1.50031 -0.32192,0.52086 -0.0735,0.94703 0.55211,0.94703 0.62558,0 0.89777,0.38775 0.60488,0.86167 -0.69778,1.12901 4.28825,5.86382 7.5338,7.15419 3.77705,1.5017 9.8891,1.33939 13.15469,-0.3493 z"
   id="path7374"
   inkscape:connector-curvature="0" /></svg>