<?xml version="1.0" encoding="iso-8859-1"?>
<!-- Generator: Adobe Illustrator 19.0.0, SVG Export Plug-In . SVG Version: 6.00 Build 0)  -->
<svg version="1.1" id="Capa_1" xmlns="http://www.w3.org/2000/svg" xmlns:xlink="http://www.w3.org/1999/xlink" x="0px" y="0px"
	 viewBox="0 0 480 480" style="enable-background:new 0 0 480 480;" xml:space="preserve">
<g>
	<g>
		<path d="M369.339,410.832l-81.336-133.08V152c0-4.418-3.582-8-8-8h-32v-40.408c49.7-4.191,87.927-45.716,88-95.592
			c0-4.418-3.582-8-8-8c-38.203,0.046-72.751,22.716-88,57.744c-15.249-35.028-49.797-57.698-88-57.744c-4.418,0-8,3.582-8,8
			c0.073,49.876,38.3,91.401,88,95.592V144h-32c-4.418,0-8,3.582-8,8v125.752l-81.336,133.08
			c-13.087,21.434-6.32,49.419,15.114,62.506c7.133,4.355,15.329,6.66,23.686,6.662h181.072
			c25.114-0.005,45.468-20.368,45.462-45.482C376,426.161,373.695,417.965,369.339,410.832z M319.555,16.448
			c-4.026,37.476-33.628,67.078-71.104,71.104C252.477,50.076,282.079,20.474,319.555,16.448z M160.451,16.448
			c37.476,4.026,67.078,33.628,71.104,71.104C194.08,83.526,164.477,53.924,160.451,16.448z M248.003,160h24v120
			c0.002,1.47,0.406,2.911,1.168,4.168l44.296,72.472c-11.722-5.802-25.836-3.51-35.12,5.704c-5.788,5.528-14.9,5.528-20.688,0
			c-3.791-3.742-8.501-6.418-13.656-7.76V160z M206.835,284.168c0.762-1.257,1.166-2.698,1.168-4.168V160h24v194.584
			c-5.155,1.342-9.865,4.018-13.656,7.76c-5.788,5.528-14.9,5.528-20.688,0c-9.284-9.214-23.398-11.506-35.12-5.704L206.835,284.168
			z M345.883,459.688c-4.621,2.82-9.93,4.312-15.344,4.312H149.467c-16.268-0.004-29.452-13.196-29.448-29.464
			c0.001-5.411,1.493-10.717,4.312-15.336l13.984-22.896l8.48-13.872c7.121-0.609,13.8-3.708,18.864-8.752
			c5.717-5.702,14.971-5.702,20.688,0c11.971,11.935,31.341,11.935,43.312,0c5.717-5.702,14.971-5.702,20.688,0
			c11.971,11.935,31.341,11.935,43.312,0c5.717-5.702,14.971-5.702,20.688,0c5.068,5.032,11.747,8.12,18.864,8.72l11.2,18.312
			l11.272,18.488C364.158,433.087,359.77,451.214,345.883,459.688z"/>
	</g>
</g>
<g>
</g>
<g>
</g>
<g>
</g>
<g>
</g>
<g>
</g>
<g>
</g>
<g>
</g>
<g>
</g>
<g>
</g>
<g>
</g>
<g>
</g>
<g>
</g>
<g>
</g>
<g>
</g>
<g>
</g>
</svg>
