<?xml version="1.0" encoding="UTF-8" standalone="no"?>
<svg
   xmlns:dc="http://purl.org/dc/elements/1.1/"
   xmlns:cc="http://creativecommons.org/ns#"
   xmlns:rdf="http://www.w3.org/1999/02/22-rdf-syntax-ns#"
   xmlns:svg="http://www.w3.org/2000/svg"
   xmlns="http://www.w3.org/2000/svg"
   xmlns:sodipodi="http://sodipodi.sourceforge.net/DTD/sodipodi-0.dtd"
   xmlns:inkscape="http://www.inkscape.org/namespaces/inkscape"
   height="640pt"
   version="1.1"
   viewBox="0 0 640 640"
   width="640pt"
   id="svg7"
   sodipodi:docname="setup_icon_white.svg"
   inkscape:version="0.92.4 (5da689c313, 2019-01-14)">
  <metadata
     id="metadata13">
    <rdf:RDF>
      <cc:Work
         rdf:about="">
        <dc:format>image/svg+xml</dc:format>
        <dc:type
           rdf:resource="http://purl.org/dc/dcmitype/StillImage" />
        <dc:title></dc:title>
      </cc:Work>
    </rdf:RDF>
  </metadata>
  <defs
     id="defs11" />
  <sodipodi:namedview
     pagecolor="#ffffff"
     bordercolor="#666666"
     borderopacity="1"
     objecttolerance="10"
     gridtolerance="10"
     guidetolerance="10"
     inkscape:pageopacity="0"
     inkscape:pageshadow="2"
     inkscape:window-width="1920"
     inkscape:window-height="1017"
     id="namedview9"
     showgrid="false"
     inkscape:zoom="0.553125"
     inkscape:cx="350.73446"
     inkscape:cy="397.55306"
     inkscape:window-x="1912"
     inkscape:window-y="-8"
     inkscape:window-maximized="1"
     inkscape:current-layer="svg7" />
  <g
     id="surface1">
    <path
       d="M 640 394.667969 L 640 245.332031 L 576 245.332031 C 570.582031 226.742188 563.128906 208.808594 553.78125 191.851562 L 599.070312 146.558594 L 493.472656 40.957031 L 448.183594 86.25 C 431.214844 76.890625 413.273438 69.421875 394.667969 64 L 394.667969 0 L 245.332031 0 L 245.332031 64 C 226.742188 69.417969 208.808594 76.871094 191.851562 86.21875 L 146.558594 40.917969 L 40.957031 146.519531 L 86.25 191.804688 C 76.882812 208.78125 69.421875 226.726562 64 245.332031 L 0 245.332031 L 0 394.667969 L 64 394.667969 C 69.417969 413.257812 76.871094 431.191406 86.21875 448.148438 L 40.917969 493.4375 L 146.519531 599.039062 L 191.804688 553.75 C 208.78125 563.109375 226.726562 570.570312 245.332031 576 L 245.332031 640 L 394.667969 640 L 394.667969 576 C 413.257812 570.582031 431.191406 563.128906 448.148438 553.78125 L 493.4375 599.070312 L 599.039062 493.472656 L 553.75 448.179688 C 563.109375 431.214844 570.570312 413.265625 576 394.667969 Z M 557.570312 381.324219 C 551.835938 403.507812 543 424.761719 531.320312 444.46875 L 527.050781 451.597656 L 568.898438 493.441406 L 493.441406 568.914062 L 451.597656 527.070312 L 444.46875 531.335938 C 424.765625 543.027344 403.507812 551.867188 381.324219 557.585938 L 373.335938 559.640625 L 373.335938 618.667969 L 266.664062 618.667969 L 266.664062 559.640625 L 258.675781 557.570312 C 236.492188 551.839844 215.234375 543.003906 195.53125 531.320312 L 188.402344 527.050781 L 146.558594 568.914062 L 71.085938 493.4375 L 112.929688 451.59375 L 108.664062 444.46875 C 96.976562 424.761719 88.140625 403.5 82.414062 381.324219 L 80.359375 373.328125 L 21.332031 373.328125 L 21.332031 266.664062 L 80.359375 266.664062 L 82.429688 258.675781 C 88.160156 236.492188 96.996094 215.234375 108.679688 195.53125 L 112.949219 188.402344 L 71.085938 146.558594 L 146.558594 71.085938 L 188.402344 112.929688 L 195.53125 108.664062 C 215.234375 96.972656 236.492188 88.132812 258.675781 82.414062 L 266.664062 80.359375 L 266.664062 21.332031 L 373.335938 21.332031 L 373.335938 80.359375 L 381.324219 82.429688 C 403.507812 88.160156 424.765625 96.996094 444.46875 108.679688 L 451.597656 112.949219 L 493.441406 71.085938 L 568.914062 146.558594 L 527.070312 188.402344 L 531.335938 195.53125 C 543.027344 215.234375 551.867188 236.492188 557.585938 258.675781 L 559.65625 266.664062 L 618.667969 266.664062 L 618.667969 373.335938 L 559.640625 373.335938 Z M 557.570312 381.324219 "
       style=" stroke:none;fill-rule:nonzero;fill:rgb(0%,0%,0%);fill-opacity:1;"
       id="path2" />
    <path
       d="M 320 138.667969 C 219.90625 138.613281 138.71875 219.71875 138.667969 319.808594 C 138.632812 391.085938 180.371094 455.761719 245.332031 485.085938 L 245.332031 485.332031 L 251.933594 488.050781 L 252 488.050781 L 266.664062 493.992188 L 266.664062 493.265625 C 283.9375 498.625 301.917969 501.34375 320 501.332031 C 323.601562 501.332031 327.148438 501.214844 330.667969 501.011719 L 330.667969 501.46875 L 342.621094 499.964844 L 352 498.832031 L 352 498.355469 C 450.546875 480.742188 516.15625 386.582031 498.546875 288.039062 C 483.089844 201.5625 407.847656 138.613281 320 138.667969 Z M 266.664062 470.859375 L 266.664062 365.355469 L 263.105469 362.152344 C 228.003906 330.757812 225.003906 276.851562 256.402344 241.753906 C 272.585938 223.65625 295.722656 213.320312 320 213.335938 C 323.128906 213.335938 326.257812 213.5 329.375 213.832031 L 279.773438 263.46875 L 289.25 329.460938 L 355.242188 338.929688 L 404.835938 289.332031 C 405.164062 292.429688 405.332031 295.546875 405.332031 298.667969 C 405.140625 338.429688 377.691406 372.859375 338.976562 381.917969 L 330.667969 383.796875 L 330.667969 479.667969 C 308.960938 481.0625 287.191406 478.066406 266.664062 470.859375 Z M 352 476.832031 L 352 400.46875 C 396.289062 386.253906 426.414062 345.175781 426.664062 298.667969 C 426.710938 287.074219 424.820312 275.554688 421.078125 264.585938 L 415.523438 248.4375 L 347.734375 316.253906 L 308.117188 310.582031 L 302.414062 270.933594 L 370.230469 203.105469 L 354.078125 197.558594 C 343.105469 193.828125 331.585938 191.949219 320 192 C 261.117188 191.972656 213.363281 239.683594 213.335938 298.5625 C 213.320312 327.230469 224.851562 354.695312 245.332031 374.761719 L 245.332031 461.515625 C 167.234375 420.257812 137.363281 323.511719 178.613281 245.410156 C 219.863281 167.308594 316.621094 137.441406 394.71875 178.691406 C 472.816406 219.941406 502.691406 316.695312 461.4375 394.796875 C 439.070312 437.132812 398.914062 467.226562 352 476.800781 Z M 352 476.832031 "
       style=" stroke:none;fill-rule:nonzero;fill:rgb(0%,0%,0%);fill-opacity:1;"
       id="path4" />
  </g>
  <path
     style="fill:#ffffff;fill-opacity:1;stroke-width:1.80790961"
     d="M 393.2584,665.40989 C 363.26701,660.71147 338.90709,652.46421 312.0028,637.90012 249.41424,604.01906 205.63829,544.961 190.40995,473.85937 c -4.13906,-19.32542 -4.59716,-72.02752 -0.79361,-91.29944 17.07661,-86.52396 78.39291,-156.55487 161.37801,-184.31392 24.45442,-8.18016 47.79996,-11.82973 75.67232,-11.82973 65.85265,0 123.28828,23.82038 169.95267,70.48477 34.26957,34.26957 55.82186,73.701 66.21177,121.13911 5.2298,23.8782 4.72102,77.96301 -0.95242,101.24294 -17.78658,72.98392 -63.86634,131.01226 -129.80037,163.4579 -16.85554,8.29447 -30.30642,13.09393 -53.88623,19.22728 -16.64011,4.32828 -66.40248,6.34469 -84.93369,3.44161 z m 47.87154,-89.11594 v -63.89309 l 10.39548,-2.24969 c 40.65584,-8.79834 76.63948,-44.31485 86.22469,-85.10536 1.51877,-6.46328 2.77344,-18.25164 2.78814,-26.19636 l 0.0268,-14.44496 -33.305,33.26852 -33.30501,33.2685 -43.59564,-6.11035 c -39.79046,-5.57704 -43.66561,-6.43103 -44.39734,-9.78401 -0.44095,-2.02052 -3.31867,-21.5046 -6.39492,-43.29795 l -5.59321,-39.62432 32.6741,-32.70993 c 17.97071,-17.99046 32.67404,-33.41871 32.67404,-34.28499 0,-0.86629 -8.33898,-1.16346 -18.53107,-0.66039 -47.09982,2.32481 -86.50442,31.58618 -102.13043,75.8408 -6.221,17.61857 -7.71068,47.40276 -3.23778,64.73544 4.93789,19.13457 14.11233,36.10844 27.09721,50.13332 l 11.83032,12.77783 v 70.45308 70.45308 l 11.29944,3.18489 c 19.35137,5.45442 35.87956,7.80659 56.0452,7.97588 l 19.43502,0.16316 z m 46.35143,55.65923 c 70.73565,-20.38897 126.65486,-78.40578 146.63797,-152.13863 4.42379,-16.32267 4.79886,-20.46201 4.79886,-52.96083 0,-32.49882 -0.37507,-36.63816 -4.79886,-52.96083 -20.02589,-73.89065 -75.63158,-131.537 -146.76438,-152.15049 -22.53449,-6.53023 -34.95261,-8.19285 -61.30826,-8.20836 -98.06291,-0.0577 -180.66722,63.98283 -206.84298,160.35885 -4.44723,16.37418 -4.80593,20.35946 -4.76686,52.96083 0.0385,32.13189 0.45403,36.77538 4.69156,52.42938 15.28496,56.4647 50.72429,103.81979 98.61169,131.76786 l 9.49153,5.53946 v -59.29897 -59.29896 l -4.67496,-4.38296 c -7.20301,-6.75306 -20.55796,-27.76267 -26.15294,-41.14303 -14.2156,-33.99647 -14.1394,-75.54184 0.20045,-109.29612 20.58282,-48.44943 68.56032,-82.50879 120.70007,-85.68528 20.14892,-1.22752 35.89977,0.93761 57.27201,7.87267 7.9548,2.58125 15.16574,5.09581 16.02432,5.58791 0.85856,0.4921 -18.58929,21.05714 -43.21745,45.70009 l -44.77848,44.80536 3.24281,24.11373 c 1.78355,13.26254 3.88512,25.33406 4.67017,26.82558 1.01238,1.92344 9.05987,3.79367 27.6798,6.43274 l 26.25244,3.7209 43.91942,-43.94688 c 24.15568,-24.17078 44.39243,-43.94687 44.97054,-43.94687 1.57623,0 10.43168,28.2812 12.73716,40.67797 2.90565,15.62408 0.99411,46.05543 -3.86117,61.46892 -8.90717,28.27656 -24.56235,52.14156 -45.96158,70.06464 -11.56999,9.69054 -34.23962,22.7201 -43.94602,25.25839 l -4.05964,1.06162 v 51.69468 c 0,28.91698 0.70749,51.69468 1.60566,51.69468 0.88312,0 8.81533,-2.07812 17.62712,-4.61805 z"
     id="path820"
     inkscape:connector-curvature="0"
     transform="scale(0.75000002)" />
  <path
     style="fill:#ffffff;fill-opacity:1;stroke-width:1.80790961"
     d="M 327.23164,809.45324 V 767.194 l -16.72316,-5.78581 c -9.19774,-3.18219 -25.22767,-9.82176 -35.62206,-14.75461 l -18.89888,-8.9688 -29.92871,29.88986 -29.9287,29.88986 -70.04155,-70.05881 -70.041545,-70.05883 29.926142,-29.92614 29.926143,-29.92613 -9.1384,-18.87977 C 101.7348,568.23097 94.929942,552.00626 91.639017,542.55993 L 85.655516,525.38479 42.827757,524.90009 4.5024921e-7,524.41539 V 425.91704 327.41869 H 43.103661 86.207323 l 2.269496,-7.68361 C 92.057044,307.61386 106.31518,273.52107 111.515,264.64825 l 4.72727,-8.06648 -30.539076,-30.57876 -30.539079,-30.57877 70.036545,-70.03653 70.03653,-70.036543 30.29102,30.155101 30.291,30.155102 16.27119,-7.95834 c 8.94915,-4.37708 25.01257,-11.036771 35.69648,-14.799304 l 19.42531,-6.840967 0.01,-42.937853 0.01,-42.93785335 h 99.43503 99.43503 l 0.009,42.93785335 0.009,42.937853 19.42531,6.817417 c 10.68391,3.74958 26.74733,10.450644 35.69648,14.891244 l 16.27119,8.07383 30.291,-30.247041 30.29102,-30.247042 70.03654,70.036543 70.03654,70.03653 -30.3268,30.36621 -30.3268,30.36621 8.86991,18.00389 c 4.87845,9.90215 11.61539,25.93213 14.971,35.6222 l 6.10109,17.6183 42.93786,0.009 42.93785,0.009 v 98.49835 98.49835 l -42.82775,0.4847 -42.82777,0.4847 -5.98349,17.17514 c -3.29092,9.44633 -10.09579,25.67103 -15.1219,36.05489 l -9.13841,18.87976 29.92615,29.92613 29.92613,29.92615 -70.04155,70.05883 -70.04154,70.05881 -29.91816,-29.87934 -29.91816,-29.87932 -20.71734,9.76951 c -11.39453,5.37321 -27.4292,11.97288 -35.63259,14.6659 l -14.91526,4.8964 v 42.33741 42.33741 H 426.66529 327.23027 V 809.45367 Z M 498.98305,786.75602 V 747.1103 l 10.39548,-2.91059 c 23.64458,-6.62015 40.74663,-13.33776 66.196,-26.00152 l 26.87396,-13.37266 27.82425,27.78081 27.82426,27.78081 51.05155,-51.05155 51.05155,-51.05155 -27.85354,-27.89711 -27.85356,-27.89712 12.90847,-25.1674 c 11.54714,-22.51323 21.61479,-48.41336 27.39193,-70.4687 l 2.01264,-7.68362 h 39.70432 39.70433 v -72.31638 -72.31638 h -39.70433 -39.70432 l -1.94423,-7.68362 c -6.4256,-25.39424 -21.90159,-63.27986 -35.48214,-86.86109 l -4.99252,-8.669 27.90647,-27.95012 27.90648,-27.95012 -51.05155,-51.05155 -51.05155,-51.051553 -27.95012,27.906473 -27.95012,27.90647 -8.669,-4.99439 C 573.6979,132.71443 547.18932,121.1856 523.83942,113.83074 l -24.85637,-7.82937 V 66.653533 27.305697 H 426.66667 354.35028 V 66.828501 106.3513 l -14.91525,4.21428 c -27.83902,7.86586 -63.12186,23.1185 -84.8104,36.66322 -2.90858,1.81644 -6.78814,-1.39049 -31.3538,-25.91779 l -28.03449,-27.990723 -51.05155,51.051553 -51.051556,51.05155 27.989276,28.03305 27.98928,28.03305 -5.97719,10.39398 c -13.68976,23.80565 -28.16469,59.2883 -34.66309,84.97025 l -1.94421,7.68362 H 66.822972 27.118645 v 72.31638 72.31638 H 66.822972 106.5273 l 2.01263,7.68362 c 7.25269,27.6885 22.02127,63.17324 37.23191,89.45779 l 3.3807,5.84197 -28.00965,28.06528 -28.009656,28.06529 51.051556,51.05155 51.05155,51.05155 27.87091,-27.8274 27.87092,-27.8274 27.73125,13.81713 c 25.02279,12.46762 46.24534,20.71986 67.95725,26.42472 l 7.68361,2.01889 v 39.70432 39.70433 h 72.31639 72.31638 z"
     id="path822"
     inkscape:connector-curvature="0"
     transform="scale(0.75000002)" />
</svg>
