<?xml version="1.0" encoding="UTF-8" standalone="no"?>
<!-- Generator: Adobe Illustrator 16.0.0, SVG Export Plug-In . SVG Version: 6.00 Build 0)  -->

<svg
   xmlns:dc="http://purl.org/dc/elements/1.1/"
   xmlns:cc="http://creativecommons.org/ns#"
   xmlns:rdf="http://www.w3.org/1999/02/22-rdf-syntax-ns#"
   xmlns:svg="http://www.w3.org/2000/svg"
   xmlns="http://www.w3.org/2000/svg"
   xmlns:sodipodi="http://sodipodi.sourceforge.net/DTD/sodipodi-0.dtd"
   xmlns:inkscape="http://www.inkscape.org/namespaces/inkscape"
   version="1.1"
   id="Capa_1"
   x="0px"
   y="0px"
   width="475.636px"
   height="475.636px"
   viewBox="0 0 475.636 475.636"
   style="enable-background:new 0 0 475.636 475.636;"
   xml:space="preserve"
   sodipodi:docname="spreadsheet_icon_over.svg"
   inkscape:version="0.92.4 (5da689c313, 2019-01-14)"><metadata
   id="metadata41"><rdf:RDF><cc:Work
       rdf:about=""><dc:format>image/svg+xml</dc:format><dc:type
         rdf:resource="http://purl.org/dc/dcmitype/StillImage" /><dc:title></dc:title></cc:Work></rdf:RDF></metadata><defs
   id="defs39" /><sodipodi:namedview
   pagecolor="#ffffff"
   bordercolor="#666666"
   borderopacity="1"
   objecttolerance="10"
   gridtolerance="10"
   guidetolerance="10"
   inkscape:pageopacity="0"
   inkscape:pageshadow="2"
   inkscape:window-width="1920"
   inkscape:window-height="1017"
   id="namedview37"
   showgrid="false"
   inkscape:zoom="1.4034026"
   inkscape:cx="462.5541"
   inkscape:cy="275.24357"
   inkscape:window-x="1912"
   inkscape:window-y="-8"
   inkscape:window-maximized="1"
   inkscape:current-layer="Capa_1" />
<g
   id="g4">
	<path
   d="M200.811,400.719V355.39h107.377v22.353l14.315-14.89l7.176-7.463l6.845-7.119l-6.694-7.201h-7.326v-7.88l-14.315-15.398   v23.278H200.811v-47.011h85.319l-13.308-14.313h-72.012v-49.632h58.695c4.557-7.294,11.845-12.373,20.147-14.315h-78.836v-53.686   h107.378v52.755h14.312v-52.755h110.148v52.755h14.312V32.873c0-9.208-7.49-16.698-16.692-16.698H16.697   C7.485,16.175,0,23.671,0,32.873v365.861c0,5.646,2.839,10.637,7.155,13.663v2.633h5.988c1.149,0.253,2.331,0.398,3.554,0.398   h255.252l14.148-14.709H200.811z M322.503,30.495h107.759c1.316,0,2.395,1.072,2.395,2.389v48.121H322.503V30.495z M322.503,95.316   h110.153v52.494H322.503V95.316z M200.811,30.495h107.377v50.509H200.811V30.495z M200.811,95.316h107.377v52.494H200.811V95.316z    M66.005,400.719H15.458c-0.673-0.415-1.149-1.13-1.149-1.985V355.39h51.697V400.719z M66.005,341.069H14.309v-47.004h51.697   V341.069z M66.005,279.755H14.309v-49.628h51.697V279.755z M66.005,215.81H14.309v-53.686h51.697V215.81z M66.005,147.81H14.309   V95.316h51.697V147.81z M186.493,400.719H80.318V355.39h106.175V400.719z M186.493,341.069H80.318v-47.004h106.175V341.069z    M186.493,279.755H80.318v-49.628h106.175V279.755z M186.493,215.81H80.318v-53.686h106.175V215.81z M186.493,147.81H80.318V95.316   h106.175V147.81z M186.493,80.999H80.318v-50.51h106.175V80.999z M449.929,279.574v-19.376H324.007l74.103,79.69   c4.637,4.988,4.562,12.748-0.141,17.664l-73.271,76.201h125.231v-11.697c0-7.094,5.757-12.862,12.849-12.862   s12.858,5.769,12.858,12.862v24.556c0,7.087-5.767,12.849-12.858,12.849h-168.28c-5.155,0-9.806-3.062-11.823-7.814   c-2.021-4.755-1.031-10.231,2.56-13.953l85.753-89.193l-85.907-92.399c-3.479-3.743-4.408-9.198-2.363-13.895   c2.046-4.688,6.659-7.721,11.781-7.721h168.28c7.092,0,12.858,5.768,12.858,12.854v32.23c0,7.097-5.767,12.858-12.858,12.858   S449.929,286.666,449.929,279.574z"
   id="path2" />
</g>
<g
   id="g6">
</g>
<g
   id="g8">
</g>
<g
   id="g10">
</g>
<g
   id="g12">
</g>
<g
   id="g14">
</g>
<g
   id="g16">
</g>
<g
   id="g18">
</g>
<g
   id="g20">
</g>
<g
   id="g22">
</g>
<g
   id="g24">
</g>
<g
   id="g26">
</g>
<g
   id="g28">
</g>
<g
   id="g30">
</g>
<g
   id="g32">
</g>
<g
   id="g34">
</g>
<path
   style="fill:#cbd1d5;fill-opacity:1;stroke-width:0.71255386"
   d="m 288.64048,457.40102 c -5.67073,-2.99158 -8.12262,-10.69483 -5.20185,-16.34297 0.63836,-1.23446 9.21573,-10.60659 19.06081,-20.82695 9.84509,-10.22038 29.39499,-30.52077 43.44422,-45.112 l 25.54406,-26.5295 -4.10231,-4.44645 c -2.25627,-2.44554 -21.76733,-23.44895 -43.35791,-46.67422 -21.59058,-23.22528 -39.81673,-43.26086 -40.50256,-44.5235 -1.52186,-2.8018 -1.62443,-8.42808 -0.20374,-11.17539 1.46709,-2.83703 4.95107,-5.58226 8.19203,-6.45496 1.85953,-0.50072 30.81256,-0.68085 88.91094,-0.55315 l 86.15345,0.18935 2.88979,1.91251 c 1.74062,1.15197 3.49084,3.1541 4.40122,5.03471 1.4208,2.93497 1.51144,4.22761 1.51144,21.55494 0,17.32733 -0.0906,18.61997 -1.51144,21.55494 -4.07664,8.42124 -15.302,9.40138 -21.07532,1.84018 -1.96624,-2.57515 -2.00172,-2.79816 -2.35263,-14.78624 l -0.35627,-12.17165 -62.6652,-0.18206 c -34.46586,-0.10013 -62.88706,0.0602 -63.15822,0.35628 -0.27116,0.29608 16.58455,18.86861 37.45714,41.27229 23.65116,25.38607 38.25275,41.60197 38.75324,43.0377 1.22004,3.49978 0.97016,6.55098 -0.80015,9.77062 -0.88179,1.6037 -16.68005,18.56838 -35.10725,37.6993 -18.4272,19.13091 -35.06468,36.46689 -36.97217,38.52439 l -3.46817,3.7409 h 63.15853 63.15852 v -7.5102 c 0,-6.07536 0.26919,-8.03786 1.40898,-10.27202 2.03734,-3.99352 5.16817,-5.95773 10.06029,-6.3116 4.92469,-0.35622 8.61381,1.39089 11.3447,5.37265 1.7278,2.51922 1.77422,2.93433 1.98644,17.76272 0.24836,17.35326 -0.27353,19.69058 -5.24305,23.48119 l -2.70115,2.06037 -87.7502,0.18639 -87.75019,0.18638 z"
   id="path894"
   inkscape:connector-curvature="0" /><path
   style="fill:#cbd1d5;fill-opacity:1;stroke-width:0.71255386"
   d="m 7.2321687,413.73744 c 0,-0.62354 -1.1294963,-2.45326 -2.5099924,-4.06606 -4.97841707,-5.81616 -4.61554644,9.43401 -4.61554644,-193.97513 0,-199.682466 -0.23831842,-187.698773 3.83905504,-193.044485 1.0018402,-1.313481 3.4966971,-3.222919 5.5441274,-4.243196 l 3.7225997,-1.85505 H 223.49227 433.77213 l 3.7226,1.85505 c 2.04743,1.020277 4.54228,2.929715 5.54413,4.243196 3.983,5.221977 3.83905,1.452267 3.83905,100.541805 v 91.44993 h -6.76048 -6.76048 l -0.18692,-26.18636 -0.18692,-26.18635 -55.40106,-0.18251 -55.40107,-0.1825 v 26.36886 26.36886 h -6.76926 -6.76926 V 188.279 161.91451 h -54.15409 -54.1541 v 27.07705 27.07705 l 38.29977,5.6e-4 38.29977,5.6e-4 -4.55542,2.15506 c -3.03042,1.43362 -6.06979,3.69955 -9.07911,6.7687 l -4.5237,4.61364 h -29.22066 -29.22065 v 25.29566 25.29567 h 36.2525 36.2525 l 6.21373,6.76926 6.21375,6.76926 h -42.46624 -42.46624 v 23.87055 23.87056 h 54.1541 54.15409 l 0.0328,-11.22272 0.0328,-11.22273 6.7221,7.12554 6.72211,7.12554 0.0143,4.09718 0.0143,4.09719 h 3.8283 c 3.62679,0 3.98454,0.16951 6.79683,3.22049 1.96012,2.12647 2.77763,3.54502 2.40655,4.17585 -0.30909,0.52545 -6.41384,7.01058 -13.5661,14.41139 l -13.00399,13.45603 v -10.86262 -10.86262 h -54.15409 -54.1541 v 23.15235 23.15235 l 42.12175,0.18379 42.12175,0.18379 -6.20473,6.59113 -6.20474,6.59112 H 139.70024 c -120.643049,0 -132.4680713,-0.10121 -132.4680713,-1.1337 z m 59.1419723,-35.5716 v -23.16678 l -26.186355,0.18691 -26.186355,0.18692 -0.188628,21.582 c -0.122965,14.06919 0.07179,22.0686 0.559486,22.97987 0.721963,1.349 1.643878,1.39785 26.374983,1.39785 h 25.626869 z m 120.421609,0.009 v -23.158 H 133.35421 79.912664 v 23.158 23.158 h 53.441546 53.44154 z M 66.374141,317.59876 v -23.87934 l -26.186355,0.18692 -26.186355,0.18692 -0.188382,22.79556 c -0.10361,12.53755 -0.03351,23.19914 0.155775,23.69241 0.267897,0.69813 6.112156,0.89686 26.374737,0.89686 h 26.03058 z m 120.421609,0.009 v -23.8708 H 133.35421 79.912664 v 23.87056 23.87055 h 53.441546 53.44154 z M 66.374141,254.89401 v -25.30444 l -26.186355,0.18692 -26.186355,0.18692 -0.187827,24.22211 c -0.103304,13.32217 -0.03321,24.62505 0.155775,25.11753 0.267171,0.69623 6.133878,0.89541 26.374182,0.89541 h 26.03058 z m 120.421609,0.009 V 229.60712 H 133.35421 79.912664 v 25.29566 25.29566 h 53.441546 53.44154 z M 66.374141,188.99156 V 161.91451 H 40.009647 13.645154 v 27.07705 27.07705 h 26.364493 26.364494 z m 120.421609,0 V 161.91451 H 133.35421 79.912664 v 27.07705 27.07705 h 53.441546 53.44154 z M 66.374141,121.64644 V 94.916889 l -26.186355,0.186917 -26.186355,0.186917 -0.187329,25.648517 c -0.10303,14.10669 -0.03293,26.05087 0.155775,26.54263 0.266519,0.69454 6.153434,0.89412 26.373684,0.89412 h 26.03058 z m 120.421609,0.009 V 94.934432 H 133.35421 79.912664 v 26.720768 26.72077 h 53.441546 53.44154 z m 121.84671,0 V 94.934432 h -54.15409 -54.1541 v 26.720768 26.72077 h 54.1541 54.15409 z m 124.34065,0 V 95.290709 l -55.40106,-0.182506 -55.40107,-0.182507 v 26.729504 26.72951 l 55.40107,-0.18251 55.40106,-0.1825 z M 186.79575,55.743983 V 30.092043 H 133.35421 79.912664 v 25.65194 25.65194 h 53.441546 53.44154 z m 121.84671,0 v -25.65194 h -54.15409 -54.1541 v 25.65194 25.65194 h 54.1541 54.15409 z m 124.34065,0.508034 c 0,-21.258295 -0.15218,-24.883774 -1.06883,-25.462889 -0.64866,-0.409814 -22.42712,-0.679552 -55.40106,-0.686173 l -54.33224,-0.01091 v 25.656309 25.656309 l 55.40107,-0.182507 55.40106,-0.182508 z"
   id="path896"
   inkscape:connector-curvature="0" /></svg>