<?xml version="1.0" encoding="iso-8859-1"?>
<!-- Generator: Adobe Illustrator 19.0.0, SVG Export Plug-In . SVG Version: 6.00 Build 0)  -->
<svg version="1.1" id="Capa_1" xmlns="http://www.w3.org/2000/svg" xmlns:xlink="http://www.w3.org/1999/xlink" x="0px" y="0px"
	 viewBox="0 0 512 512" style="enable-background:new 0 0 512 512;" xml:space="preserve">
<path style="fill:#A1887F;" d="M504.017,504.5H7.983v-20.036c0-16.57,13.432-30.002,30.002-30.002h436.03
	c16.57,0,30.002,13.432,30.002,30.002V504.5z"/>
<g>
	<path style="fill:#9CCC65;" d="M119.454,417.1c0,0-26.807,1.479-42.429-14.143s-14.143-42.429-14.143-42.429
		s26.807-1.479,42.429,14.143S119.454,417.1,119.454,417.1z"/>
	<path style="fill:#9CCC65;" d="M119.385,417.1c0,0,26.807,1.479,42.429-14.143s14.143-42.429,14.143-42.429
		s-26.807-1.479-42.429,14.143S119.385,417.1,119.385,417.1z"/>
	<path style="fill:#9CCC65;" d="M259.463,417.1c0,0-26.807,1.479-42.429-14.143s-14.143-42.429-14.143-42.429
		s26.807-1.479,42.429,14.143S259.463,417.1,259.463,417.1z"/>
	<path style="fill:#9CCC65;" d="M259.394,417.1c0,0,26.807,1.479,42.429-14.143s14.143-42.429,14.143-42.429
		s-26.807-1.479-42.429,14.143S259.394,417.1,259.394,417.1z"/>
	<path style="fill:#9CCC65;" d="M399.473,417.1c0,0-26.807,1.479-42.429-14.143s-14.143-42.429-14.143-42.429
		s26.807-1.479,42.429,14.143S399.473,417.1,399.473,417.1z"/>
	<path style="fill:#9CCC65;" d="M399.404,417.1c0,0,26.807,1.479,42.429-14.143s14.143-42.429,14.143-42.429
		s-26.807-1.479-42.429,14.143S399.404,417.1,399.404,417.1z"/>
</g>
<rect x="295.404" y="96.128" transform="matrix(-0.7071 0.7071 -0.7071 -0.7071 696.2494 -64.1382)" style="fill:#B0BEC5;" width="132.008" height="32.002"/>
<polygon style="fill:#82B1FF;" points="500.017,157.396 406.67,250.732 394.759,238.821 294.233,233.061 292.012,205.369 
	355.757,199.819 326.055,170.117 419.401,76.78 "/>
<g>
	<polygon style="fill:#448AFF;" points="433.542,90.921 340.206,184.268 326.055,170.117 419.401,76.78 	"/>
	<path style="fill:#448AFF;" d="M500.017,157.396l-93.346,93.336l-11.911-11.911l-100.527-5.76l-1.17-14.551h85.279
		c10.661,0,20.871,4.293,28.329,11.911l0,0l83.186-83.186L500.017,157.396z"/>
</g>
<g>
	<path style="fill:#7CB342;" d="M77.024,381.954c-6.187-6.187-9.686-14.126-11.662-21.461c-1.571-0.015-2.481,0.034-2.481,0.034
		s-1.479,26.807,14.143,42.429s42.429,14.143,42.429,14.143s0.533-9.781-2.481-20.967
		C109.983,396.064,89.779,394.709,77.024,381.954z"/>
	<path style="fill:#7CB342;" d="M173.476,360.493c-1.977,7.336-5.475,15.275-11.662,21.461
		c-12.755,12.755-32.958,14.109-39.948,14.177c-3.014,11.187-2.481,20.967-2.481,20.967s26.807,1.479,42.429-14.143
		s14.143-42.429,14.143-42.429S175.047,360.478,173.476,360.493z"/>
	<path style="fill:#7CB342;" d="M217.033,381.954c-6.187-6.187-9.686-14.126-11.662-21.461c-1.571-0.015-2.481,0.034-2.481,0.034
		s-1.479,26.807,14.143,42.429s42.429,14.143,42.429,14.143s0.533-9.781-2.481-20.967
		C249.993,396.064,229.788,394.709,217.033,381.954z"/>
	<path style="fill:#7CB342;" d="M313.486,360.493c-1.977,7.336-5.475,15.275-11.662,21.461
		c-12.755,12.755-32.958,14.109-39.948,14.177c-3.014,11.187-2.481,20.967-2.481,20.967s26.807,1.479,42.429-14.143
		s14.143-42.429,14.143-42.429S315.057,360.478,313.486,360.493z"/>
	<path style="fill:#7CB342;" d="M357.043,381.954c-6.187-6.187-9.686-14.126-11.662-21.461c-1.571-0.015-2.481,0.034-2.481,0.034
		s-1.479,26.807,14.143,42.429s42.429,14.143,42.429,14.143s0.533-9.781-2.481-20.967
		C390.002,396.064,369.798,394.709,357.043,381.954z"/>
	<path style="fill:#7CB342;" d="M453.496,360.493c-1.977,7.336-5.475,15.275-11.662,21.461
		c-12.755,12.755-32.958,14.109-39.948,14.177c-3.014,11.187-2.481,20.967-2.481,20.967s26.807,1.479,42.429-14.143
		s14.143-42.429,14.143-42.429S455.067,360.478,453.496,360.493z"/>
</g>
<path style="fill:#BCAAA4;" d="M474.015,454.461H37.985c-16.57,0-30.002,13.432-30.002,30.002V504.5h0.024
	c0.511-16.122,13.732-29.037,29.978-29.037h436.03c16.246,0,29.467,12.915,29.978,29.037h0.024v-20.036
	C504.017,467.893,490.585,454.461,474.015,454.461z"/>
<path d="M474.015,446.961h-66.826v-22.553c10.209-0.77,27.745-3.945,39.948-16.148c17.787-17.788,16.397-46.915,16.328-48.146
	l-0.369-6.706l-6.706-0.37c-1.23-0.07-30.36-1.458-48.147,16.329c-3.71,3.711-6.577,7.918-8.805,12.259
	c-2.228-4.341-5.094-8.548-8.805-12.259c-17.787-17.786-46.917-16.397-48.147-16.329l-6.706,0.37l-0.369,6.706
	c-0.068,1.231-1.459,30.358,16.328,48.146c12.407,12.407,30.322,15.481,40.449,16.184v22.517H267.179v-22.553
	c10.21-0.77,27.745-3.945,39.948-16.148c17.787-17.788,16.397-46.915,16.328-48.146l-0.369-6.706l-6.706-0.37
	c-1.229-0.07-30.36-1.458-48.147,16.329c-3.71,3.711-6.577,7.918-8.805,12.259c-2.227-4.341-5.094-8.548-8.805-12.259
	c-17.787-17.786-46.917-16.397-48.147-16.329l-6.706,0.37l-0.369,6.706c-0.068,1.231-1.459,30.358,16.328,48.146
	c12.407,12.407,30.322,15.481,40.449,16.184v22.517H127.168v-22.553c10.21-0.77,27.745-3.945,39.948-16.148
	c17.787-17.788,16.397-46.915,16.328-48.146l-0.369-6.706l-6.706-0.37c-1.231-0.07-30.36-1.458-48.147,16.329
	c-3.71,3.711-6.577,7.918-8.805,12.259c-2.227-4.341-5.094-8.548-8.805-12.259c-17.787-17.786-46.917-16.397-48.147-16.329
	l-6.706,0.37l-0.369,6.706c-0.068,1.231-1.459,30.358,16.328,48.146c12.407,12.407,30.322,15.481,40.449,16.184v22.517H37.985
	c-20.679,0-37.503,16.823-37.503,37.503V512h511.035v-27.537C511.517,463.784,494.694,446.961,474.015,446.961z M418.851,379.974
	c8.442-8.442,21.31-10.967,29.356-11.697c-0.747,8.065-3.287,20.985-11.678,29.376c-8.44,8.441-21.305,10.966-29.356,11.696
	C407.92,401.284,410.461,388.364,418.851,379.974z M362.347,397.652c-8.442-8.442-10.968-21.31-11.697-29.356
	c8.064,0.747,20.985,3.287,29.375,11.677c8.441,8.441,10.967,21.305,11.697,29.356C383.658,408.582,370.737,406.042,362.347,397.652
	z M278.842,379.974c8.442-8.442,21.31-10.967,29.356-11.697c-0.747,8.065-3.287,20.985-11.678,29.376
	c-8.44,8.441-21.305,10.966-29.356,11.696C267.911,401.284,270.451,388.364,278.842,379.974z M222.338,397.652
	c-8.442-8.442-10.968-21.31-11.697-29.356c8.064,0.747,20.985,3.287,29.375,11.677c8.441,8.441,10.967,21.305,11.697,29.356
	C243.648,408.582,230.727,406.042,222.338,397.652z M138.832,379.974c8.442-8.442,21.31-10.967,29.356-11.697
	c-0.747,8.065-3.287,20.985-11.678,29.376c-8.44,8.441-21.305,10.966-29.356,11.696
	C127.901,401.284,130.441,388.364,138.832,379.974z M82.328,397.652c-8.442-8.442-10.968-21.31-11.697-29.356
	c8.064,0.747,20.985,3.287,29.375,11.677c8.441,8.441,10.967,21.305,11.697,29.356C103.639,408.582,90.718,406.042,82.328,397.652z
	 M496.516,496.999H15.484v-12.536c0-12.408,10.095-22.502,22.502-22.502h436.03c12.407,0,22.502,10.094,22.502,22.502V496.999z"/>
<path d="M287.282,240.17l104.191,5.972l15.2,15.2l103.951-103.952l-38.231-38.232c10.481-12.888,16.183-28.846,16.183-45.685
	c0-19.385-7.549-37.611-21.256-51.318c-29.544-29.543-77.61-29.541-107.153,0c-19.977,19.977-27.137,49.774-18.612,76.599
	l-48.734,48.735l46.25,46.25l-55.134,4.807L287.282,240.17z M370.776,32.763c23.694-23.693,62.245-23.692,85.938,0
	c10.875,10.875,16.863,25.333,16.863,40.711c-0.001,12.824-4.178,25-11.869,35l-64.935-64.935l-42.837,42.837
	C350.544,67.067,356.675,46.864,370.776,32.763z M396.773,64.753l12.022,12.022l-82.738,82.738l-12.022-12.022L396.773,64.753z
	 M372.434,205.89l-35.77-35.769l82.738-82.738l70.008,70.009l-82.737,82.737l-8.636-8.635l-96.851-5.551l-1.104-13.744
	L372.434,205.89z"/>
<path d="M233.383,255.185c4.491-0.798,9.072-1.203,13.616-1.203v-15.001c-5.421,0-10.887,0.482-16.241,1.435L233.383,255.185z"/>
<path d="M205.214,266.699c3.573-2.543,7.508-4.756,11.693-6.579l-5.99-13.753c-5.136,2.237-9.981,4.965-14.4,8.111L205.214,266.699z
	"/>
<path d="M164.543,319.11l14.995,0.435c0.138-4.769,0.624-9.382,1.444-13.71l-14.739-2.792
	C165.277,308.146,164.704,313.552,164.543,319.11z"/>
<path d="M186.148,289.574c1.898-4.059,4.228-7.864,6.923-11.309l-11.814-9.245c-3.394,4.336-6.32,9.114-8.699,14.198
	L186.148,289.574z"/>
<rect x="253.868" y="202.984" width="14.141" height="15.001"/>
<path d="M202.5,219.986l-2.969-14.704c-5.269,1.064-10.477,2.512-15.478,4.305l5.063,14.121
	C193.438,222.16,197.941,220.907,202.5,219.986z"/>
<path d="M132.096,278.003l-13.696-6.12c-2.158,4.831-4.032,9.855-5.568,14.932l14.358,4.345
	C128.542,286.685,130.192,282.258,132.096,278.003z"/>
<path d="M222.998,217.98h11.864v-15.001h-11.864c-1.119,0-2.232,0.015-3.338,0.045l0.402,14.996
	C221.035,217.993,222.014,217.98,222.998,217.98z"/>
<path d="M123.424,308.525l-14.87-1.98c-0.706,5.299-1.063,10.663-1.063,15.942h15.001
	C122.491,317.868,122.805,313.17,123.424,308.525z"/>
<path d="M173.213,231.155l-7.603-12.932c-4.59,2.698-9.04,5.772-13.226,9.139l9.401,11.69
	C165.405,236.142,169.25,233.485,173.213,231.155z"/>
<path d="M149.081,251.287l-11.312-9.853c-3.471,3.984-6.723,8.269-9.667,12.732l12.524,8.259
	C143.203,258.517,146.048,254.77,149.081,251.287z"/>
<g>
	<path style="fill:#FFFFFF;" d="M390.761,203.002l-10.607-10.607l10.608-10.607l10.607,10.607L390.761,203.002z M369.548,181.788
		l-10.608-10.607l10.606-10.608l10.608,10.607L369.548,181.788z"/>
	<polygon style="fill:#FFFFFF;" points="441.677,183.909 431.069,173.302 446.98,157.391 431.069,141.48 441.677,130.873 
		468.195,157.391 	"/>
	<rect x="59.987" y="474.992" style="fill:#FFFFFF;" width="20.001" height="15.001"/>
	<rect x="133.99" y="474.992" style="fill:#FFFFFF;" width="54.004" height="15.001"/>
	<rect x="242.997" y="474.992" style="fill:#FFFFFF;" width="21.001" height="15.001"/>
	<rect x="296.001" y="474.992" style="fill:#FFFFFF;" width="102.007" height="15.001"/>
	<rect x="432.01" y="474.992" style="fill:#FFFFFF;" width="35.002" height="15.001"/>
</g>
<g>
</g>
<g>
</g>
<g>
</g>
<g>
</g>
<g>
</g>
<g>
</g>
<g>
</g>
<g>
</g>
<g>
</g>
<g>
</g>
<g>
</g>
<g>
</g>
<g>
</g>
<g>
</g>
<g>
</g>
</svg>
