<?xml version="1.0" encoding="UTF-8" standalone="no"?>
<!-- Generator: Adobe Illustrator 19.0.0, SVG Export Plug-In . SVG Version: 6.00 Build 0)  -->

<svg
   xmlns:dc="http://purl.org/dc/elements/1.1/"
   xmlns:cc="http://creativecommons.org/ns#"
   xmlns:rdf="http://www.w3.org/1999/02/22-rdf-syntax-ns#"
   xmlns:svg="http://www.w3.org/2000/svg"
   xmlns="http://www.w3.org/2000/svg"
   xmlns:sodipodi="http://sodipodi.sourceforge.net/DTD/sodipodi-0.dtd"
   xmlns:inkscape="http://www.inkscape.org/namespaces/inkscape"
   version="1.1"
   id="Capa_1"
   x="0px"
   y="0px"
   viewBox="0 0 52 52"
   style="enable-background:new 0 0 52 52;"
   xml:space="preserve"
   sodipodi:docname="about_icon_white.svg"
   inkscape:version="0.92.4 (5da689c313, 2019-01-14)"><metadata
   id="metadata45"><rdf:RDF><cc:Work
       rdf:about=""><dc:format>image/svg+xml</dc:format><dc:type
         rdf:resource="http://purl.org/dc/dcmitype/StillImage" /><dc:title></dc:title></cc:Work></rdf:RDF></metadata><defs
   id="defs43" /><sodipodi:namedview
   pagecolor="#ffffff"
   bordercolor="#666666"
   borderopacity="1"
   objecttolerance="10"
   gridtolerance="10"
   guidetolerance="10"
   inkscape:pageopacity="0"
   inkscape:pageshadow="2"
   inkscape:window-width="1920"
   inkscape:window-height="1017"
   id="namedview41"
   showgrid="false"
   inkscape:zoom="12.836708"
   inkscape:cx="31.812184"
   inkscape:cy="27.326946"
   inkscape:window-x="1912"
   inkscape:window-y="-8"
   inkscape:window-maximized="1"
   inkscape:current-layer="Capa_1" />
<g
   id="g8">
	<path
   d="M26,0C11.663,0,0,11.663,0,26s11.663,26,26,26s26-11.663,26-26S40.337,0,26,0z M26,50C12.767,50,2,39.233,2,26   S12.767,2,26,2s24,10.767,24,24S39.233,50,26,50z"
   id="path2" />
	<path
   d="M26,37c-0.553,0-1,0.447-1,1v2c0,0.553,0.447,1,1,1s1-0.447,1-1v-2C27,37.447,26.553,37,26,37z"
   id="path4" />
	<path
   d="M26.113,9.001C26.075,9.001,26.037,9,25.998,9c-2.116,0-4.106,0.815-5.615,2.304C18.847,12.819,18,14.842,18,17   c0,0.553,0.447,1,1,1s1-0.447,1-1c0-1.618,0.635-3.136,1.787-4.272c1.153-1.137,2.688-1.765,4.299-1.727   c3.161,0.044,5.869,2.752,5.913,5.913c0.029,2.084-0.999,4.002-2.751,5.132C26.588,23.762,25,26.794,25,30.158V33   c0,0.553,0.447,1,1,1s1-0.447,1-1v-2.842c0-2.642,1.276-5.105,3.332-6.432c2.335-1.506,3.706-4.063,3.667-6.84   C33.939,12.599,30.401,9.061,26.113,9.001z"
   id="path6" />
</g>
<g
   id="g10">
</g>
<g
   id="g12">
</g>
<g
   id="g14">
</g>
<g
   id="g16">
</g>
<g
   id="g18">
</g>
<g
   id="g20">
</g>
<g
   id="g22">
</g>
<g
   id="g24">
</g>
<g
   id="g26">
</g>
<g
   id="g28">
</g>
<g
   id="g30">
</g>
<g
   id="g32">
</g>
<g
   id="g34">
</g>
<g
   id="g36">
</g>
<g
   id="g38">
</g>
<path
   style="fill:#ffffff;fill-opacity:1;stroke-width:0.07790159"
   d="M 23.521746,51.850749 C 15.541669,51.083703 8.307323,46.591831 3.9654421,39.708061 3.2558876,38.583109 2.0568553,36.134673 1.6286763,34.936364 0.9107498,32.92716 0.45551318,31.02372 0.2080894,28.996592 0.04413596,27.653331 0.02545176,24.573974 0.17334795,23.270825 1.0561822,15.491963 5.1974035,8.6898239 11.674622,4.3794751 15.036456,2.1422986 18.523076,0.83272014 22.697697,0.23919481 c 1.381761,-0.1964514 5.233127,-0.19842315 6.613132,-0.003386 2.960527,0.4184144 5.684768,1.25412539 8.207448,2.51778539 2.681184,1.3430572 4.743079,2.8338194 6.876703,4.9718947 4.136709,4.1453391 6.702391,9.4634911 7.405713,15.3505821 0.176338,1.476016 0.176338,4.366603 0,5.84262 -0.704027,5.892987 -3.254081,11.17923 -7.406383,15.353376 -4.287286,4.309841 -9.706141,6.909285 -15.737141,7.549163 -1.183929,0.125614 -3.969134,0.141622 -5.135423,0.02952 z m 5.181575,-1.980345 c 4.457619,-0.492799 8.784317,-2.293285 12.341661,-5.135784 1.038846,-0.830092 2.899345,-2.691546 3.700331,-3.702231 3.048772,-3.846948 4.830496,-8.354703 5.21588,-13.196158 C 50.440074,21.820212 48.556185,15.73103 44.740711,10.962373 43.907891,9.9214979 42.128797,8.1347696 41.121425,7.3275567 37.474096,4.4049313 33.263947,2.6446675 28.668961,2.1211804 27.290704,1.9641614 24.628927,1.961743 23.32091,2.1163212 20.406329,2.4607594 17.909246,3.2041487 15.297046,4.5050505 8.1234059,8.0775945 3.2965084,14.828991 2.1589716,22.881317 c -0.1941747,1.374512 -0.1953025,4.857364 -0.00202,6.232128 0.838532,5.96418 3.7077293,11.255206 8.1933414,15.109166 5.092065,4.375013 11.6398,6.389953 18.353026,5.647793 z"
   id="path852"
   inkscape:connector-curvature="0" /><path
   style="fill:#ffffff;fill-opacity:1;stroke-width:0.07790159"
   d="m 25.364683,33.676531 -0.290987,-0.266812 v -2.206563 c 0,-2.407396 0.04887,-2.858988 0.445307,-4.115153 0.620726,-1.966841 1.829057,-3.640357 3.465785,-4.800051 1.473268,-1.043876 2.165105,-1.866559 2.643297,-3.143218 0.813967,-2.173104 0.346255,-4.51063 -1.242498,-6.209744 -2.308351,-2.468699 -5.973691,-2.636175 -8.438942,-0.385591 -1.190434,1.086775 -1.808012,2.372466 -1.966943,4.094838 -0.07734,0.838155 -0.209,1.076476 -0.688289,1.245887 -0.27317,0.09655 -0.353977,0.09655 -0.607788,-5.4e-5 -0.495367,-0.188537 -0.622356,-0.442837 -0.613198,-1.22795 0.03334,-2.85833 1.867746,-5.602168 4.60198,-6.8834729 1.062261,-0.4977925 1.978434,-0.699781 3.219256,-0.7097494 1.433723,-0.011518 2.382735,0.2033199 3.617742,0.818986 0.827472,0.4125053 1.209442,0.6842313 1.931308,1.3738983 1.447022,1.382477 2.256185,3.011034 2.472415,4.976098 0.128979,1.172139 -0.02181,2.325629 -0.461494,3.530405 -0.298499,0.817907 -0.678475,1.49175 -1.23879,2.196847 -0.526435,0.662463 -0.983173,1.078994 -1.84184,1.679702 -1.597136,1.117327 -2.598971,2.526535 -3.129037,4.401387 -0.190149,0.672556 -0.205574,0.856577 -0.250626,2.989809 -0.04532,2.145769 -0.05716,2.285454 -0.21132,2.492851 -0.371428,0.499691 -0.963984,0.561507 -1.415338,0.14765 z"
   id="path854"
   inkscape:connector-curvature="0" /><path
   style="fill:#ffffff;fill-opacity:1;stroke-width:0.07790159"
   d="m 25.582395,40.854827 c -0.105829,-0.05355 -0.274548,-0.219239 -0.374931,-0.368197 -0.176283,-0.261587 -0.181682,-0.315617 -0.158141,-1.582544 l 0.02437,-1.311711 0.290987,-0.266484 c 0.238616,-0.218523 0.352394,-0.266484 0.632182,-0.266484 0.404835,0 0.718162,0.212276 0.878008,0.59484 0.152244,0.364371 0.148772,2.349339 -0.0048,2.716774 -0.201446,0.482129 -0.826754,0.71706 -1.287726,0.483806 z"
   id="path856"
   inkscape:connector-curvature="0" /></svg>