<?xml version="1.0" encoding="UTF-8" standalone="no"?>
<!-- Generator: Adobe Illustrator 19.0.0, SVG Export Plug-In . SVG Version: 6.00 Build 0)  -->

<svg
   xmlns:dc="http://purl.org/dc/elements/1.1/"
   xmlns:cc="http://creativecommons.org/ns#"
   xmlns:rdf="http://www.w3.org/1999/02/22-rdf-syntax-ns#"
   xmlns:svg="http://www.w3.org/2000/svg"
   xmlns="http://www.w3.org/2000/svg"
   xmlns:sodipodi="http://sodipodi.sourceforge.net/DTD/sodipodi-0.dtd"
   xmlns:inkscape="http://www.inkscape.org/namespaces/inkscape"
   sodipodi:docname="graph_icon_grey.svg"
   xml:space="preserve"
   style="enable-background:new 0 0 480.182 480.182;;opacity:1"
   viewBox="0 0 480.182 480.182"
   y="0px"
   x="0px"
   id="Capa_1"
   version="1.1"
   inkscape:version="0.92.4 (5da689c313, 2019-01-14)"><metadata
   id="metadata107"><rdf:RDF><cc:Work
       rdf:about=""><dc:format>image/svg+xml</dc:format><dc:type
         rdf:resource="http://purl.org/dc/dcmitype/StillImage" /><dc:title></dc:title></cc:Work></rdf:RDF></metadata><defs
   id="defs105" /><sodipodi:namedview
   pagecolor="#ffffff"
   bordercolor="#666666"
   borderopacity="1"
   objecttolerance="10"
   gridtolerance="10"
   guidetolerance="10"
   inkscape:pageopacity="0"
   inkscape:pageshadow="2"
   inkscape:window-width="1920"
   inkscape:window-height="1017"
   id="namedview103"
   showgrid="false"
   inkscape:zoom="1.3901162"
   inkscape:cx="167.11515"
   inkscape:cy="253.33492"
   inkscape:window-x="1912"
   inkscape:window-y="-8"
   inkscape:window-maximized="1"
   inkscape:current-layer="Capa_1" />
<g
   id="g64"
   transform="matrix(-1,0,0,1,480.1823,0)">
	<g
   id="g62">
		<path
   d="m 200.182,32.106 c -92.784,0 -168,75.216 -168,168 0,92.784 75.216,168 168,168 92.784,0 168,-75.216 168,-168 -0.101,-92.742 -75.258,-167.899 -168,-168 z m 0,16 c 49.416,0.039 95.723,24.123 124.128,64.56 l -20,20 c -4.867,-2.945 -10.439,-4.521 -16.128,-4.56 -17.673,0 -32,14.327 -32,32 0.028,5.695 1.595,11.276 4.536,16.152 l -52.384,52.384 c -9.919,-6.048 -22.385,-6.048 -32.304,0 l -36.384,-36.384 c 2.941,-4.876 4.508,-10.457 4.536,-16.152 0.022,-17.638 -14.258,-31.954 -31.896,-31.976 -14.587,-0.018 -27.332,9.849 -30.968,23.976 h -29.68 c 15.147,-69.947 76.976,-119.895 148.544,-120 z m 104,112 c 0,8.837 -7.163,16 -16,16 -8.837,0 -16,-7.163 -16,-16 0,-8.837 7.163,-16 16,-16 8.837,0 16,7.163 16,16 z m -96,96 c 0,8.837 -7.163,16 -16,16 -8.837,0 -16,-7.163 -16,-16 0,-8.837 7.163,-16 16,-16 8.837,0 16,7.163 16,16 z m -80,-80 c 0,8.837 -7.163,16 -16,16 -8.837,0 -16,-7.163 -16,-16 0,-8.837 7.163,-16 16,-16 8.837,0 16,7.163 16,16 z m 145.854,156.906 c -22.592,12.544 -48.012,19.116 -73.854,19.093 -83.89,0.057 -151.943,-67.902 -152,-151.792 -0.004,-5.414 0.282,-10.825 0.856,-16.208 h 32.28 c 3.637,14.085 16.317,23.945 30.864,24 5.695,-0.028 11.276,-1.595 16.152,-4.536 l 36.384,36.384 c -2.941,4.876 -4.508,10.457 -4.536,16.152 0,17.673 14.327,32 32,32 17.673,0 32,-14.327 32,-32 -0.028,-5.695 -1.595,-11.276 -4.536,-16.152 l 52.384,-52.384 c 4.876,2.941 10.457,4.508 16.152,4.536 17.673,0 32,-14.327 32,-32 -0.028,-5.695 -1.595,-11.276 -4.536,-16.152 l 17.44,-17.432 c 40.715,73.328 14.277,165.777 -59.05,206.491 z"
   id="path60"
   inkscape:connector-curvature="0" />
	</g>
</g>
<g
   id="g70"
   transform="matrix(-1,0,0,1,480.1823,0)">
	<g
   id="g68">
		<path
   d="m 400.182,80.106 c 14.547,-0.055 27.227,-9.914 30.864,-24 h 49.136 v -16 h -49.136 c -3.637,-14.086 -16.317,-23.945 -30.864,-24 -17.673,0 -32,14.327 -32,32 0.028,5.695 1.595,11.276 4.536,16.152 L 358.662,78.314 C 291.407,-9.307 165.855,-25.817 78.234,41.438 -9.387,108.693 -25.897,234.246 41.358,321.867 c 63.484,82.707 179.855,102.77 267.368,46.095 l 24.144,24.144 11.312,11.312 64.4,64.4 c 16.379,16.379 42.933,16.379 59.312,0 16.379,-16.379 16.379,-42.933 0,-59.312 l -64.4,-64.4 -11.312,-11.312 -24.144,-24.144 c 42.859,-66.016 42.859,-151.071 0,-217.088 l 16,-16 c 4.873,2.942 10.452,4.512 16.144,4.544 z m 0,-48 c 8.837,0 16,7.163 16,16 0,8.837 -7.163,16 -16,16 -8.837,0 -16,-7.163 -16,-16 0,-8.837 7.164,-16 16,-16 z m 56.4,387.712 c 10.246,10.016 10.433,26.442 0.417,36.688 -10.016,10.246 -26.442,10.433 -36.688,0.417 -0.141,-0.137 -0.279,-0.276 -0.417,-0.417 l -64.4,-64.4 36.688,-36.688 z M 380.87,344.106 344.182,380.794 322.038,358.65 c 1.128,-0.864 2.184,-1.816 3.296,-2.704 1.112,-0.888 2.4,-1.952 3.592,-2.952 1.752,-1.472 3.48,-2.96 5.176,-4.488 0.872,-0.8 1.704,-1.6 2.56,-2.4 3.28,-3.072 6.456,-6.248 9.528,-9.528 0.8,-0.856 1.6,-1.688 2.4,-2.56 1.528,-1.696 3.016,-3.424 4.488,-5.176 1.003,-1.184 1.987,-2.381 2.952,-3.592 0.88,-1.104 1.832,-2.16 2.696,-3.288 z m -31.024,-37.16 c -2.52,3.52 -5.12,6.968 -7.864,10.288 -0.8,0.968 -1.656,1.904 -2.48,2.856 -2.448,2.848 -4.976,5.611 -7.584,8.288 -1.136,1.173 -2.291,2.328 -3.464,3.464 -2.667,2.608 -5.429,5.136 -8.288,7.584 -0.952,0.8 -1.888,1.672 -2.856,2.48 -3.32,2.744 -6.768,5.344 -10.288,7.864 C 224.206,408.935 109.107,389.762 49.942,306.946 -9.223,224.13 9.95,109.031 92.766,49.866 175.582,-9.299 290.681,9.873 349.846,92.69 c 45.781,64.082 45.781,150.174 0,214.256 z"
   id="path66"
   inkscape:connector-curvature="0" />
	</g>
</g>
<g
   id="g72"
   transform="matrix(-1,0,0,1,480.1823,0)">
</g>
<g
   id="g74"
   transform="matrix(-1,0,0,1,480.1823,0)">
</g>
<g
   id="g76"
   transform="matrix(-1,0,0,1,480.1823,0)">
</g>
<g
   id="g78"
   transform="matrix(-1,0,0,1,480.1823,0)">
</g>
<g
   id="g80"
   transform="matrix(-1,0,0,1,480.1823,0)">
</g>
<g
   id="g82"
   transform="matrix(-1,0,0,1,480.1823,0)">
</g>
<g
   id="g84"
   transform="matrix(-1,0,0,1,480.1823,0)">
</g>
<g
   id="g86"
   transform="matrix(-1,0,0,1,480.1823,0)">
</g>
<g
   id="g88"
   transform="matrix(-1,0,0,1,480.1823,0)">
</g>
<g
   id="g90"
   transform="matrix(-1,0,0,1,480.1823,0)">
</g>
<g
   id="g92"
   transform="matrix(-1,0,0,1,480.1823,0)">
</g>
<g
   id="g94"
   transform="matrix(-1,0,0,1,480.1823,0)">
</g>
<g
   id="g96"
   transform="matrix(-1,0,0,1,480.1823,0)">
</g>
<g
   id="g98"
   transform="matrix(-1,0,0,1,480.1823,0)">
</g>
<g
   id="g100"
   transform="matrix(-1,0,0,1,480.1823,0)">
</g>
<path
   inkscape:connector-curvature="0"
   id="path134"
   d="m 50.930594,478.73401 c 2.39951,-0.52221 6.60779,-2.01456 9.35174,-3.31632 4.69225,-2.22606 8.13892,-5.50771 57.947066,-55.17274 l 52.95807,-52.8059 6.74285,4.06495 c 50.68594,30.55622 114.37332,36.58647 170.59383,16.15269 10.00477,-3.63632 28.9415,-12.86524 37.58366,-18.31661 25.68166,-16.19969 49.25941,-40.13953 64.70192,-65.69557 31.39482,-51.95575 37.62895,-115.20924 16.95382,-172.01895 C 456.60841,100.97421 435.61435,70.49035 411.32037,49.668746 380.61629,23.353243 347.07217,8.143372 306.25837,2.030602 296.18687,0.5221728 262.46491,0.72071991 251.94636,2.3503785 211.5054,8.6159706 175.51039,25.615831 145.84012,52.46264 c -6.6452,6.012836 -17.39034,17.458122 -21.45258,22.850418 -1.25755,1.669277 -2.45437,3.045061 -2.65962,3.057298 -0.20524,0.01223 -3.51813,-3.134558 -7.36197,-6.992875 l -6.9888,-7.015119 1.7918,-4.436044 c 6.35786,-15.740466 -0.47278,-32.952137 -16.024546,-40.378297 -5.33165,-2.545929 -5.89961,-2.661046 -13.12611,-2.660498 -6.73122,5.11e-4 -8.01198,0.215365 -11.76739,1.974034 -2.31773,1.085404 -5.78123,3.12387 -7.69667,4.529928 -3.86257,2.835392 -8.84068,9.744485 -10.13591,14.067598 l -0.84107,2.807207 H 24.873054 0.16885385 v 7.913008 7.913007 H 24.986924 c 20.26644,0 24.81807,0.176825 24.81807,0.964148 0,0.530281 0.97237,2.910031 2.16082,5.288332 2.43785,4.878577 8.85368,11.43507 13.51847,13.814871 8.25584,4.211813 17.69791,4.610183 26.43381,1.115281 l 4.82625,-1.93081 7.996786,7.996784 c 7.681,7.680998 7.95553,8.06078 6.95186,9.617088 -3.86691,5.996154 -10.53001,18.420911 -13.950426,26.013541 -26.48931,58.8009 -22.25457,128.20553 11.211886,183.75497 l 3.61889,6.00685 -52.474116,52.62134 c -44.33989,44.4643 -52.8183701,53.29041 -54.6949001,56.93753 -8.74076,16.98803 -5.91197005,35.74907 7.4052201,49.11281 10.17899,10.21456 24.15593,14.36829 38.12105,11.32897 z m -17.05568,-15.48482 c -16.40874,-5.17566 -23.52638,-24.51993 -14.28307,-38.81843 1.15947,-1.79359 17.01045,-18.15086 35.22438,-36.34949 l 33.11626,-33.08842 18.520736,18.52073 18.52072,18.52073 -33.807806,33.86032 c -24.03229,24.06962 -34.79498,34.36905 -37.22186,35.61973 -6.63986,3.42181 -12.98274,3.9701 -20.06936,1.73483 z M 257.67979,383.0178 c -19.77654,-2.43526 -39.9939,-8.44571 -57.88734,-17.2094 -19.70156,-9.64926 -34.68365,-20.32519 -50.00855,-35.63509 -27.75491,-27.72773 -45.05217,-61.65195 -51.902276,-101.79325 -1.35083,-7.91579 -1.60216,-12.1684 -1.63676,-27.69553 -0.0429,-19.22924 0.40099,-24.04253 3.6815,-39.92472 4.087236,-19.78788 14.755146,-45.27669 26.043226,-62.225011 20.56635,-30.879026 49.66407,-55.113281 82.58395,-68.780656 54.21641,-22.5090794 114.65616,-18.612526 164.69665,10.617999 49.71881,29.042623 82.05966,77.960778 90.29162,136.573368 1.26002,8.97154 1.26389,37.0258 0.006,46.03931 -7.59263,54.4206 -36.336,100.71704 -81.03718,130.52516 -23.78253,15.85893 -53.29634,26.63826 -81.64785,29.82026 -9.40515,1.05558 -33.48885,0.88133 -43.18334,-0.31244 z M 99.441134,344.19429 c 0,-0.40334 4.949196,-5.67483 10.998236,-11.71442 l 10.99823,-10.98106 6.72785,7.93093 c 7.39759,8.72043 15.22042,16.45756 24.35975,24.09292 l 5.96571,4.98398 -11.35413,11.37079 -11.35413,11.37079 -18.17076,-18.16028 c -9.99392,-9.98816 -18.170756,-18.4903 -18.170756,-18.89365 z M 73.122764,62.931906 c -1.22082,-0.501842 -3.41358,-2.141777 -4.87282,-3.644301 -7.254,-7.469215 -5.43905,-19.927635 3.68436,-25.290617 4.84861,-2.850145 11.31937,-2.850145 16.16798,0 6.59069,3.87418 9.61511,11.393201 7.46352,18.555056 -2.92029,9.720543 -12.86176,14.318451 -22.44304,10.379862 z"
   style="opacity:1;stroke-width:0.71936429" /><path
   inkscape:connector-curvature="0"
   id="path136"
   d="m 50.930594,478.73401 c 2.39951,-0.52221 6.60779,-2.01456 9.35174,-3.31632 4.69215,-2.22601 8.13769,-5.50648 57.909876,-55.13558 l 52.92089,-52.76874 6.78634,4.04292 c 46.65007,27.79145 103.04762,35.37999 155.43576,20.91457 12.93831,-3.57252 21.62178,-6.91233 34.7885,-13.38024 21.57032,-10.59601 35.25058,-20.44503 52.9161,-38.09662 17.61313,-17.59923 27.54727,-31.44426 38.47796,-53.62607 21.10742,-42.83357 25.90217,-91.5234 13.61924,-138.30092 C 466.32593,123.12815 453.99211,98.414284 436.78887,76.234506 429.86468,67.307289 413.91957,51.31331 404.66234,44.009517 376.87428,22.08521 344.43181,7.9240026 309.4955,2.4690024 299.23638,0.86712997 271.89587,0.26258192 260.83739,1.3930836 221.47519,5.4170539 185.73126,20.001743 154.92553,44.608575 c -8.73332,6.975949 -22.36873,20.488196 -28.50824,28.250724 -2.3739,3.001454 -4.48412,5.474319 -4.68937,5.495245 -0.20524,0.02093 -3.51813,-3.118746 -7.36197,-6.977063 l -6.9888,-7.015119 1.83223,-4.536138 C 113.98794,47.995718 111.14687,34.449459 102.02193,25.556361 90.509484,14.336412 72.572744,13.6041 59.842644,23.834287 c -3.47865,2.795518 -8.24378,9.6845 -9.42432,13.624796 l -0.84107,2.807207 H 24.873054 0.16885385 v 7.913008 7.913007 H 24.620074 49.071304 l 2.12541,4.687505 c 7.10432,15.668239 24.85216,22.843812 40.76014,16.479617 l 4.77232,-1.909236 6.443166,6.376913 c 3.54375,3.507304 7.04419,7.203642 7.77879,8.21409 l 1.33561,1.83717 -3.23911,5.356473 C 75.621184,152.41155 71.267594,221.1691 97.435194,280.53397 c 3.647566,8.27503 8.844096,18.16294 12.976916,24.69239 l 2.19706,3.47113 -52.532636,52.63928 C 9.6139939,411.90175 7.4407339,414.18865 4.9260939,419.37128 c -2.79404,5.75846 -4.73225005,13.41894 -4.73225005,18.70347 0,15.24269 9.98630015,30.9008 23.82884015,37.36263 9.23651,4.31168 17.55894,5.33131 26.90791,3.29663 z M 30.745324,461.921 c -5.82075,-2.72386 -10.00587,-6.94324 -12.79173,-12.89647 -4.07569,-8.70955 -2.91046,-18.5031 3.14299,-26.41611 1.51336,-1.97825 17.17056,-18.00102 34.79379,-35.60614 l 32.04222,-32.00933 18.522976,18.53232 18.52299,18.53233 -34.169806,34.0763 c -22.39622,22.33493 -35.21937,34.60349 -37.21593,35.60636 -7.16257,3.5978 -15.40608,3.66301 -22.8475,0.18074 z M 250.82801,382.06622 c -56.96177,-9.80847 -104.31283,-43.21226 -132.1987,-93.25956 -10.10567,-18.13684 -17.60117,-40.4901 -21.106526,-62.94438 -0.99962,-6.40324 -1.28554,-12.41798 -1.26526,-26.61648 0.0294,-20.57031 1.0223,-28.6637 5.710696,-46.54876 13.40006,-51.11773 49.21139,-95.02393 96.3855,-118.172689 64.97452,-31.8835769 141.38003,-23.621379 197.44356,21.350787 56.28269,45.147962 81.0053,119.101992 63.32863,189.438212 -11.70818,46.58737 -42.3213,87.75541 -83.80857,112.70446 -8.80083,5.29252 -12.23234,7.04149 -22.00141,11.21373 -14.99545,6.40435 -31.30454,11.01415 -46.19154,13.05612 -4.43282,0.60803 -9.03081,1.24016 -10.21776,1.40473 -1.18695,0.16457 -10.08909,0.20198 -19.78252,0.0831 -13.81515,-0.16939 -19.49869,-0.53883 -26.2961,-1.7093 z m -150.79104,-37.0681 c -0.651656,-1.1762 0.72969,-2.8396 10.3335,-12.44341 l 11.08571,-11.08571 6.37457,7.61213 c 6.99343,8.35113 17.47976,18.70699 25.52407,25.20649 l 5.17436,4.18069 -11.37317,11.38985 -11.37315,11.38985 -17.49684,-17.4461 c -9.62326,-9.59536 -17.83534,-18.05706 -18.24905,-18.80379 z M 72.722104,62.488815 c -3.9578,-1.980674 -7.60896,-6.676535 -8.58609,-11.042813 -1.78048,-7.956028 3.20288,-16.396415 11.05804,-18.729145 4.51975,-1.342225 5.12873,-1.342225 9.64848,0 7.20993,2.141118 12.57394,10.397985 11.30515,17.402122 -2.0566,11.353088 -13.44295,17.36563 -23.42558,12.369836 z"
   style="opacity:1;stroke-width:0.71936429" /><path
   inkscape:connector-curvature="0"
   id="path138"
   d="m 51.063524,478.7069 c 2.47262,-0.53713 6.6809,-2.0253 9.35173,-3.30705 4.49759,-2.15842 8.76305,-6.22688 57.781306,-55.11282 l 52.92524,-52.78237 7.28819,4.3276 c 49.4471,29.36076 108.25932,35.80514 163.95219,17.96512 13.59603,-4.3552 31.2029,-12.58198 43.82539,-20.47735 23.59701,-14.75994 48.21547,-39.37944 63.24596,-63.24863 5.79696,-9.20587 15.52687,-29.42867 19.03616,-39.56503 C 489.21335,206.5895 481.20135,141.95551 446.57795,89.902427 415.3743,42.990638 368.11809,12.539478 311.29392,2.7275271 c -8.22293,-1.41987 -11.91327,-1.6179109 -30.57299,-1.6406879 -22.2081,-0.027108 -27.124,0.4272885 -43.52154,4.0228736 -36.61404,8.0285802 -70.90075,26.7259382 -97.44794,53.1406852 -4.17517,4.154329 -9.99046,10.409761 -12.92287,13.90096 l -5.33167,6.347635 -7.06284,-7.066998 -7.06283,-7.067 1.83518,-4.537455 c 7.32803,-18.118373 -3.5946,-38.547766 -22.813316,-42.669442 -8.61273,-1.847102 -19.22189,0.784968 -26.54625,6.585975 -3.31642,2.626645 -8.26156,9.819993 -9.42853,13.71501 l -0.84107,2.807207 H 24.873054 0.16885385 v 7.913008 7.913007 H 24.620074 49.071304 l 2.12541,4.687505 c 7.10327,15.665915 24.8523,22.843754 40.75507,16.481639 l 4.76726,-1.907201 4.294406,4.216792 c 2.36192,2.319237 5.84972,5.997218 7.75065,8.173295 l 3.45625,3.956503 -3.20107,5.395233 c -4.70074,7.922849 -10.683076,19.974829 -14.236596,28.680979 -23.38317,57.2889 -17.86468,124.59927 14.566086,177.66623 l 3.22975,5.28489 -52.517316,52.62394 C 9.6138039,411.90193 7.4407139,414.18869 4.9260939,419.37128 c -2.79404,5.75846 -4.73225005,13.41894 -4.73225005,18.70347 0,10.27947 4.79264005,21.47999 12.50089015,29.21487 10.35206,10.38782 24.17414,14.50082 38.36879,11.41728 z m -15.03252,-14.99436 c -13.36835,-3.14655 -22.35992,-16.41972 -19.98717,-29.50465 1.55017,-8.54865 2.18707,-9.30664 38.15554,-45.40959 l 33.68418,-33.81012 18.547506,18.5447 18.5475,18.5447 -33.450436,33.31759 c -18.39774,18.32466 -34.7453,34.1646 -36.3279,35.19984 -3.06635,2.00583 -9.39147,3.97813 -12.94856,4.03764 -1.18695,0.0199 -3.98625,-0.39419 -6.22066,-0.92011 z M 252.66572,382.30942 C 167.73573,369.12072 102.89223,299.24566 96.469234,213.99277 c -1.40738,-18.68032 0.18074,-39.15789 4.407396,-56.82978 7.98737,-33.39565 24.81258,-63.377089 49.25382,-87.767172 29.48807,-29.426347 64.95436,-46.879037 106.88915,-52.59933 13.4584,-1.835852 36.13692,-1.666519 49.49456,0.369559 20.74874,3.162692 36.09925,7.988169 55.30938,17.386672 18.84913,9.221887 34.1044,20.143047 49.13395,35.174719 16.58896,16.591304 29.45624,35.495382 38.45934,56.502892 27.37326,63.87177 17.63498,135.50343 -25.76954,189.55249 -7.67882,9.56198 -22.45169,23.95064 -31.81325,30.98586 -26.90047,20.21572 -58.45298,32.74762 -92.20434,36.62137 -8.51493,0.97729 -38.09479,0.29666 -46.96398,-1.08063 z m -151.18867,-35.79121 -2.184436,-2.71505 11.048406,-11.17224 11.04841,-11.17226 4.31234,5.24726 c 6.74849,8.21157 17.6771,19.26878 25.54385,25.84444 l 7.1909,6.01075 -11.3266,11.34321 -11.3266,11.34322 -16.06091,-16.00714 c -8.83351,-8.80393 -17.04392,-17.22891 -18.24536,-18.72219 z M 73.700754,62.888105 c -5.88914,-2.460036 -9.7363,-8.271997 -9.7363,-14.708807 0,-10.227821 9.8339,-18.18102 19.58722,-15.841235 12.41512,2.978343 16.719576,18.750422 7.50281,27.491222 -4.27704,4.056164 -11.79421,5.381163 -17.35373,3.05882 z"
   style="opacity:1;stroke-width:0.71936429" /><path
   inkscape:connector-curvature="0"
   id="path140"
   d="m 51.503794,478.65736 c 2.31912,-0.56136 6.36555,-2.03046 8.99205,-3.26466 4.43253,-2.08286 8.57499,-6.03611 57.683006,-55.04833 l 52.90752,-52.80431 6.08035,3.68433 c 3.34419,2.02639 10.61234,5.88575 16.15145,8.57637 63.65813,30.92192 139.32464,25.5617 198.18487,-14.03943 17.32876,-11.65878 35.48449,-28.85087 47.92885,-45.38497 20.75389,-27.57447 34.07307,-59.9606 38.87004,-94.51408 1.73149,-12.47231 1.71696,-39.45427 -0.0277,-51.43455 -2.719,-18.67085 -7.13636,-35.22765 -13.43928,-50.37202 C 438.42263,60.593385 382.20872,15.4206 314.53105,3.2734135 299.98993,0.66348658 275.73466,-0.12855487 259.44478,1.4746039 208.89936,6.4490016 159.98002,32.516381 126.80928,72.151358 l -5.31237,6.347635 -7.06284,-7.066998 -7.06283,-7.067 1.83518,-4.537455 c 6.95957,-17.207396 -2.19993,-36.341847 -20.121126,-42.033593 -3.43469,-1.090848 -5.7567,-1.32232 -10.66056,-1.062705 -8.08728,0.428147 -15.34822,3.646377 -20.75812,9.20052 -3.46914,3.561635 -7.86162,10.956334 -7.86162,13.234968 0,0.965256 -3.03135,1.09956 -24.81807,1.09956 H 0.16885385 v 7.913008 7.913007 H 24.559434 48.950024 l 2.20076,4.702919 c 7.32294,15.648768 24.91889,22.820075 40.59992,16.546671 2.51139,-1.004714 4.74358,-1.826754 4.96041,-1.826754 0.21683,0 3.793416,3.644638 7.947976,8.099194 l 7.55376,8.099186 -3.19755,5.388894 C 92.002164,125.77508 82.857794,155.40329 80.764914,188.63518 c -2.50588,39.78973 7.82466,81.06377 28.924796,115.56448 l 2.81485,4.60254 -52.480336,52.58692 C 9.6133439,411.90239 7.4406639,414.1888 4.9260939,419.37128 c -4.72027005,9.72837 -5.78468005,18.77223 -3.33618,28.34582 2.0217,7.90476 5.29616,13.65478 11.1459501,19.57252 10.28744,10.40693 24.96144,14.70972 38.76793,11.36774 z m -19.42471,-16.22189 c -5.85515,-2.1878 -12.36926,-8.71742 -14.56856,-14.60326 -2.1255,-5.68833 -2.15477,-13.03086 -0.0741,-18.59195 1.92293,-5.13947 10.30246,-14.22695 45.24864,-49.07154 l 25.24835,-25.17494 18.522576,18.55573 18.52257,18.55573 -33.521926,33.33363 c -18.43706,18.3335 -34.78462,34.1672 -36.3279,35.18601 -6.37516,4.20863 -14.85017,4.87436 -23.04965,1.81059 z M 253.38566,382.31014 C 222.36671,377.87407 189.50413,363.46147 164.5436,343.34652 150.10161,331.70816 134.13445,313.77354 124.31132,298.15688 70.825454,213.12579 95.338934,100.76179 179.43958,45.462016 202.34099,30.403362 229.05547,20.627161 257.70127,16.82204 c 10.76831,-1.430391 33.04534,-1.601284 43.52154,-0.333863 54.16444,6.552861 101.75386,35.506226 131.90059,80.248211 31.55631,46.834002 39.98237,105.706832 22.77667,159.140522 -18.80113,58.38842 -64.03138,102.76282 -122.95074,120.62425 -9.23955,2.80097 -23.9384,5.81184 -33.52493,6.86713 -8.34488,0.91862 -36.78744,0.26489 -46.03874,-1.05815 z m -150.47659,-34.34672 -3.629276,-4.1473 11.050976,-11.16685 11.05097,-11.16685 5.93616,7.11129 c 6.62587,7.93753 17.97978,19.18498 25.91116,25.66821 l 5.23084,4.27576 -11.33801,11.35465 -11.338,11.35465 -14.62278,-14.56813 c -8.04252,-8.01247 -16.25594,-16.43441 -18.25204,-18.71543 z M 71.492404,61.643391 c -6.05996,-4.010293 -8.8482,-11.988926 -6.58556,-18.844794 2.0342,-6.163674 8.41887,-10.673134 15.11145,-10.673134 8.96115,0 15.82601,6.963687 15.82601,16.053835 0,6.280428 -3.20842,11.504915 -8.81339,14.351451 -4.41146,2.240395 -11.41667,1.840348 -15.53851,-0.887358 z"
   style="opacity:1;stroke-width:0.71936429" /><path
   inkscape:connector-curvature="0"
   id="path142"
   d="m 298.34536,366.78072 c 3.1652,-0.33272 9.96319,-1.45088 15.10665,-2.48478 62.24847,-12.51286 112.98678,-60.63045 128.73833,-122.08879 4.08202,-15.92695 5.03832,-23.96374 5.02639,-42.24198 -0.0113,-17.33391 -0.84986,-24.87934 -4.38729,-39.47759 C 429.76612,106.57795 390.45219,62.481579 337.90637,42.800866 319.67375,35.971953 301.2345,32.779413 280.00157,32.775326 c -24.86941,-0.0048 -46.41744,4.462237 -67.67348,14.029082 -53.12307,23.909446 -89.21468,71.440602 -98.27322,129.421732 -1.79278,11.47507 -1.78128,36.59933 0.022,48.17177 6.42654,41.24084 27.14946,78.11428 58.70795,104.46225 24.88947,20.78005 57.95633,34.75275 89.84834,37.96625 8.57081,0.8636 27.28987,0.83966 35.71216,-0.0457 z m -32.8347,-15.0616 c -36.97822,-3.7291 -69.84582,-19.73691 -95.65469,-46.58756 -22.46104,-23.36769 -36.11011,-51.90678 -41.00761,-85.74356 -1.28397,-8.87087 -1.10208,-31.81716 0.32369,-40.83638 1.61161,-10.1948 4.46404,-21.5462 7.45344,-29.66132 3.39605,-9.21901 9.61239,-22.30029 10.59729,-22.30029 0.43886,0 4.6081,3.82012 9.26498,8.48917 l 8.46705,8.48916 -1.96985,4.27955 c -3.93658,8.55232 -2.95131,20.81386 2.34689,29.20675 8.19836,12.98704 25.23481,18.09794 39.4182,11.82537 l 3.84505,-1.70046 26.07742,26.08476 26.07741,26.08475 -1.91236,4.78015 c -6.08844,15.2187 0.12555,32.26429 14.51532,39.81701 18.5545,9.73865 41.17168,-0.92708 45.58288,-21.49583 1.19335,-5.56437 0.39449,-13.46312 -1.85955,-18.38662 l -1.88306,-4.11313 18.28048,-18.28048 18.28047,-18.28047 4.66465,1.86615 c 8.83739,3.53551 16.93206,3.20439 25.6093,-1.0476 6.31672,-3.09529 11.55493,-8.61335 14.59484,-15.37452 l 2.43346,-5.41236 15.96341,-7.2e-4 c 11.88944,-5.9e-4 16.10348,0.22587 16.5123,0.88736 1.11886,1.81035 0.61016,28.64268 -0.70598,37.23816 -5.86091,38.27661 -24.30087,71.3067 -53.35066,95.56293 -30.88635,25.78974 -72.34581,38.60552 -111.96477,34.6101 z m 17.61655,-80.17014 c -4.15492,-1.23388 -8.50142,-5.06138 -10.14948,-8.93755 -1.61123,-3.78956 -1.42516,-9.89126 0.41084,-13.47235 6.02291,-11.74761 22.09152,-12.40418 28.69368,-1.17245 1.65203,2.81045 2.01802,4.28111 2.01802,8.10895 0,3.82785 -0.36599,5.2985 -2.01802,8.10896 -2.87665,4.89383 -8.15739,8.08072 -13.85727,8.36279 -0.8184,0.0405 -3.11239,-0.40876 -5.09777,-0.99835 z m 16.35364,-44.76073 c -4.00637,-1.65212 -5.78064,-1.95195 -11.56627,-1.95452 -5.80181,-0.003 -7.54018,0.29104 -11.50983,1.94409 l -4.67587,1.94714 -26.19262,-26.18646 -26.19263,-26.18645 1.49335,-3.47993 c 0.82133,-1.91397 1.86845,-5.55656 2.32693,-8.09465 2.3427,-12.96898 -5.22313,-27.14776 -17.75601,-33.27574 -4.68297,-2.28975 -5.25618,-2.39395 -13.16878,-2.39395 -7.43685,0 -8.68154,0.19171 -12.31926,1.89735 l -4.04656,1.89736 -10.20452,-10.22277 -10.20453,-10.22277 5.06052,-6.54787 c 20.299,-26.265078 51.7723,-46.342278 84.72787,-54.048924 22.02388,-5.150274 47.47398,-5.150274 69.49786,0 21.58955,5.048709 44.21403,16.205695 61.61134,30.382885 23.77573,19.374999 42.39377,47.802489 50.00967,76.358679 1.05519,3.9565 2.0819,7.76665 2.28157,8.46699 0.34037,1.19386 -0.58835,1.26122 -14.87736,1.07905 l -15.24039,-0.19431 -1.35222,-3.59682 c -2.79291,-7.42896 -10.02106,-14.60981 -17.90927,-17.79208 -3.20263,-1.292 -5.40298,-1.59942 -11.54798,-1.61344 -7.31504,-0.0167 -7.78678,0.0792 -12.95495,2.63388 -9.53442,4.7129 -15.57959,12.34182 -17.65069,22.27487 -1.29994,6.23451 -0.83129,11.41846 1.58863,17.57287 0.94562,2.40495 1.71932,4.66856 1.71932,5.03027 0,0.63396 -35.27888,36.27674 -35.90638,36.27674 -0.16975,0 -2.43818,-0.87817 -5.04094,-1.95149 z m 60.55985,-36.44671 c -4.94089,-2.58064 -8.1027,-8.08871 -8.1027,-14.1154 0,-15.275 18.93772,-22.13714 28.63291,-10.3752 7.64863,9.27911 2.4071,24.02022 -9.27164,26.07529 -3.57538,0.62915 -8.29066,-0.0345 -11.25857,-1.58469 z M 184.54869,174.40392 c -9.4446,-4.70645 -11.76247,-17.09177 -4.67073,-24.95761 5.29764,-5.87591 12.67407,-7.22127 19.64022,-3.58211 5.57735,2.91364 8.06616,6.75044 8.41801,12.97741 0.30471,5.39267 -0.62938,8.42982 -3.71973,12.09455 -4.55443,5.40092 -12.85241,6.864 -19.66777,3.46776 z"
   style="opacity:1;stroke-width:0.71936429" /><path
   style="fill:#97a4ac;fill-opacity:1;stroke-width:0.71936429"
   d="m 49.445314,479.23705 c 4.86694,-1.08927 10.951,-3.58502 14.88396,-6.10558 3.17371,-2.03396 19.90706,-18.24798 55.634586,-53.90793 28.10265,-28.04948 51.3651,-50.99906 51.69433,-50.99906 0.32924,0 3.23327,1.58269 6.45342,3.51708 3.22016,1.93439 8.80319,4.98983 12.40676,6.78986 80.17913,40.05057 176.02596,22.42767 236.72353,-43.52524 50.77747,-55.17391 66.19416,-133.78082 40.13795,-204.65617 C 460.91738,112.77148 447.3258,88.989389 435.36864,74.337873 403.77129,35.620574 358.73139,9.9275847 309.13582,2.3284194 298.22471,0.65659053 263.98087,0.42675481 253.74477,1.9566492 230.62424,5.4122602 210.77559,11.602683 190.80039,21.587831 166.47508,33.747502 144.14254,51.368233 126.81324,72.074717 l -5.30841,6.34293 -6.96887,-6.942723 -6.96888,-6.942726 2.14288,-6.216908 c 1.90613,-5.530089 2.10184,-6.874532 1.7715,-12.169556 -0.73232,-11.738244 -7.41154,-21.452583 -18.337056,-26.669649 -5.33125,-2.545734 -5.90016,-2.661071 -13.12611,-2.661071 -7.23195,0 -7.79149,0.113725 -13.15104,2.672909 -7.02838,3.356055 -11.76319,8.086253 -15.34158,15.326638 l -2.65884,5.379793 H 24.517844 0.16885385 v 7.913007 7.913008 H 24.517844 48.866834 l 2.6714,5.405197 c 8.00369,16.194378 25.42985,22.477637 42.20236,15.216683 l 2.57216,-1.113512 7.983336,8.050083 7.98334,8.050082 -3.2306,5.395232 C 76.575694,151.25537 71.408984,216.12156 94.896054,274.70712 c 3.91585,9.76758 10.524186,22.93145 15.129906,30.1389 l 2.48075,3.8821 -52.481406,52.58799 C 9.6133539,411.83044 7.4406639,414.11686 4.9260939,419.29934 c -6.08805,12.54734 -6.21183,24.11569 -0.39146,36.58402 2.25685,4.83459 3.89928,7.09286 8.3920201,11.53864 6.18226,6.11765 11.86752,9.3548 19.65164,11.18954 4.32152,1.01859 13.57709,1.36183 16.86702,0.62551 z m -17.53746,-16.93966 c -4.89315,-1.83077 -11.20187,-7.84216 -13.79454,-13.14443 -1.5084,-3.0848 -1.75876,-4.62085 -1.75876,-10.79046 0,-6.11532 0.25568,-7.71295 1.7057,-10.65805 1.92346,-3.90668 21.00277,-24.09835 51.10197,-54.08127 l 18.77252,-18.70001 18.521906,18.55975 18.52191,18.55973 -33.595866,33.37789 c -18.47774,18.35784 -34.82529,34.18945 -36.3279,35.18134 -6.27875,4.14471 -14.91089,4.77701 -23.14694,1.69551 z M 255.45434,382.57057 c -31.28857,-3.85803 -67.85067,-19.9428 -92.70915,-40.78554 -36.42594,-30.54154 -59.52372,-72.81901 -65.533866,-119.95119 -1.19015,-9.33328 -1.00612,-36.42297 0.31294,-46.06382 C 109.16852,90.663184 176.68613,25.194715 261.88903,16.393709 c 12.26047,-1.26644 37.77884,-0.494456 48.95285,1.480926 25.58404,4.522842 49.85286,14.133313 70.6006,27.957894 12.46305,8.304346 19.33986,13.89037 29.03501,23.585115 72.84394,72.840876 72.03248,191.065266 -1.80177,262.504536 -21.79789,21.09082 -46.849,35.82558 -75.65572,44.49979 -9.31307,2.80432 -24.76434,5.97868 -33.5956,6.90199 -7.35071,0.76852 -35.54532,0.28543 -43.97006,-0.75339 z m -152.50353,-34.6309 -3.587526,-4.09911 10.567046,-10.8277 c 5.81188,-5.95523 10.92788,-10.81471 11.36891,-10.79884 0.44102,0.0158 2.09672,1.69085 3.67932,3.7222 4.7033,6.03692 19.88357,21.38684 26.88118,27.18161 l 6.51514,5.39523 -11.29549,11.33099 -11.2955,11.33099 -14.62278,-14.56813 c -8.04252,-8.01247 -16.23716,-16.41273 -18.2103,-18.66724 z M 71.492404,61.571455 c -1.63441,-1.081602 -3.86463,-3.315929 -4.95605,-4.965171 -1.73181,-2.616939 -1.98439,-3.698731 -1.98439,-8.498923 0,-4.800191 0.25258,-5.881984 1.98439,-8.498923 1.09142,-1.649242 3.33377,-3.891599 4.98302,-4.983016 2.61694,-1.731808 3.69873,-1.984393 8.49892,-1.984393 4.80019,0 5.88198,0.252585 8.49892,1.984393 4.51564,2.988307 6.85265,6.995505 7.19249,12.332755 0.44395,6.972 -2.60381,12.415403 -8.67879,15.500636 -4.41146,2.240395 -11.41667,1.840347 -15.53851,-0.887358 z"
   id="path4729"
   inkscape:connector-curvature="0" /><path
   style="fill:#97a4ac;fill-opacity:1;stroke-width:0.71936429"
   d="m 299.4244,366.66795 c 29.95936,-3.37856 60.91798,-16.34685 85.24468,-35.70827 25.70615,-20.45932 45.009,-48.66606 55.25607,-80.74424 14.93499,-46.75362 7.72677,-99.91146 -19.11452,-140.96211 -27.10378,-41.452114 -68.20695,-67.637582 -118.14909,-75.268865 -11.30848,-1.727963 -33.93764,-1.7344 -45.31995,-0.01289 -18.79791,2.843078 -34.6716,7.715963 -50.71518,15.568477 C 135.38273,84.410204 98.144204,164.34089 117.4498,240.95324 c 5.45947,21.66536 17.02299,45.24824 30.81797,62.85079 27.23415,34.75109 69.45152,58.15458 113.5415,62.9425 8.21294,0.89188 29.40205,0.84761 37.61513,-0.0786 z m -34.27342,-15.02309 c -63.95462,-6.46959 -116.72289,-51.78981 -132.60064,-113.88453 -3.69018,-14.43157 -4.96339,-26.32335 -4.47791,-41.8236 0.56817,-18.14037 3.2645,-32.62397 8.90567,-47.83773 2.95637,-7.97306 9.34935,-21.58093 10.13874,-21.58093 0.2993,0 4.38034,3.84618 9.06897,8.54706 l 8.52479,8.54705 -1.88876,4.72115 c -7.58327,18.95519 4.017,39.43396 24.34249,42.97348 5.50344,0.95839 11.69612,0.14018 17.64245,-2.33101 l 3.73143,-1.5507 26.08985,26.08251 26.08985,26.08251 -1.868,4.4301 c -1.62939,3.86421 -1.868,5.44088 -1.868,12.34311 0,7.39179 0.14994,8.2295 2.27644,12.71808 7.8734,16.61901 27.15569,23.28657 43.37112,14.99715 1.76278,-0.90114 5.0428,-3.39135 7.28893,-5.5338 9.32387,-8.89346 12.25673,-22.98932 7.17402,-34.47964 -0.81528,-1.84306 -1.48232,-3.71693 -1.48232,-4.16417 0,-0.44724 8.05263,-8.86096 17.89473,-18.69715 l 17.89474,-17.88399 4.82529,1.93042 c 8.7163,3.48707 18.17861,3.09534 26.38726,-1.09241 6.03418,-3.07841 12.78974,-10.87526 15.07009,-17.39299 l 0.94381,-2.69761 h 16.34911 16.3491 l 0.51082,4.08842 c 0.85913,6.87626 -0.15582,28.60027 -1.7583,37.63471 -8.62019,48.59872 -38.40865,88.5678 -82.45494,110.63505 -24.92893,12.48943 -54.85833,18.01271 -82.47083,15.21946 z m 15.32905,-81.19333 c -10.74578,-5.48209 -11.53547,-20.95303 -1.41964,-27.81259 2.79176,-1.8931 3.67548,-2.10163 8.90672,-2.10163 5.13549,0 6.15441,0.22961 8.80607,1.9844 4.39001,2.90517 6.82124,6.97538 7.187,12.03203 0.36611,5.0614 -0.72825,8.66321 -3.63966,11.97913 -5.1211,5.83261 -13.02778,7.39424 -19.84049,3.91866 z m 20.1746,-43.1392 c -6.94307,-3.52613 -16.13435,-3.66316 -24.38224,-0.36348 l -4.72814,1.89155 -26.23754,-26.23753 -26.23754,-26.23754 1.26416,-2.4435 c 3.39576,-6.56364 4.09048,-15.58858 1.77663,-23.07996 -2.67339,-8.6554 -8.71188,-15.53064 -17.15276,-19.52958 -4.48857,-2.1265 -5.32629,-2.27644 -12.71808,-2.27644 -7.15377,0 -8.32372,0.19233 -12.19359,2.00448 l -4.28059,2.0045 -9.92685,-9.90786 c -5.45978,-5.44933 -9.92687,-10.2394 -9.92687,-10.6446 0,-1.45342 10.42399,-13.808872 17.68605,-20.963113 28.51292,-28.089556 65.93155,-43.407398 106.06348,-43.418582 18.33346,-0.0051 31.44409,2.05124 47.82629,7.501364 48.36605,16.0907 85.29251,54.555921 98.90189,103.023241 1.18875,4.23354 2.16137,8.12677 2.16137,8.65163 0,0.76216 -3.00604,0.95429 -14.93047,0.95429 h -14.93047 l -1.69779,-4.37847 c -2.17145,-5.6 -8.55766,-12.56141 -14.27825,-15.56427 -16.77923,-8.80778 -37.13747,-1.28766 -44.25122,16.34592 -1.30007,3.22264 -1.59391,5.35752 -1.58413,11.50983 0.0105,6.5903 0.25508,8.10363 1.91854,11.86951 l 1.90653,4.31618 -18.11625,18.16395 c -9.96394,9.99018 -18.37432,18.16395 -18.68972,18.16395 -0.31542,0 -1.77451,-0.60996 -3.24244,-1.35547 z m 58.23252,-37.77005 c -8.40674,-5.82589 -9.44436,-17.85522 -2.15069,-24.9335 10.27513,-9.97166 27.25144,-2.89531 27.19746,11.33693 -0.0183,4.82492 -1.70975,9.03207 -4.74921,11.8127 -3.8676,3.53827 -5.96246,4.25493 -11.84189,4.05121 -4.671,-0.16185 -5.88857,-0.48833 -8.45567,-2.26734 z m -175.5336,-15.75 c -4.65965,-3.0836 -6.85269,-6.9884 -7.18021,-12.78468 -0.24042,-4.25484 -0.0244,-5.33613 1.6988,-8.50216 5.14224,-9.44799 17.5641,-11.49258 25.4073,-4.18195 8.19349,7.63715 5.53772,22.0464 -4.92572,26.72515 -4.01737,1.79637 -11.31019,1.18556 -15.00017,-1.25636 z"
   id="path4731"
   inkscape:connector-curvature="0" /></svg>