<?xml version="1.0" encoding="UTF-8" standalone="no"?>
<!-- Generator: Adobe Illustrator 19.0.0, SVG Export Plug-In . SVG Version: 6.00 Build 0)  -->

<svg
   xmlns:dc="http://purl.org/dc/elements/1.1/"
   xmlns:cc="http://creativecommons.org/ns#"
   xmlns:rdf="http://www.w3.org/1999/02/22-rdf-syntax-ns#"
   xmlns:svg="http://www.w3.org/2000/svg"
   xmlns="http://www.w3.org/2000/svg"
   xmlns:sodipodi="http://sodipodi.sourceforge.net/DTD/sodipodi-0.dtd"
   xmlns:inkscape="http://www.inkscape.org/namespaces/inkscape"
   version="1.1"
   id="Capa_1"
   x="0px"
   y="0px"
   viewBox="0 0 480.182 480.182"
   style="enable-background:new 0 0 480.182 480.182;"
   xml:space="preserve"
   sodipodi:docname="graph_icon_grey_over.svg"
   inkscape:version="0.92.4 (5da689c313, 2019-01-14)"><metadata
   id="metadata6815"><rdf:RDF><cc:Work
       rdf:about=""><dc:format>image/svg+xml</dc:format><dc:type
         rdf:resource="http://purl.org/dc/dcmitype/StillImage" /><dc:title /></cc:Work></rdf:RDF></metadata><defs
   id="defs6813" /><sodipodi:namedview
   pagecolor="#ffffff"
   bordercolor="#666666"
   borderopacity="1"
   objecttolerance="10"
   gridtolerance="10"
   guidetolerance="10"
   inkscape:pageopacity="0"
   inkscape:pageshadow="2"
   inkscape:window-width="1920"
   inkscape:window-height="1017"
   id="namedview6811"
   showgrid="false"
   inkscape:zoom="0.98296061"
   inkscape:cx="-144.16081"
   inkscape:cy="394.30911"
   inkscape:window-x="1912"
   inkscape:window-y="-8"
   inkscape:window-maximized="1"
   inkscape:current-layer="Capa_1" />
<g
   id="g6772"
   transform="matrix(-1,0,0,1,480.1823,0)">
	<g
   id="g6770">
		<path
   d="m 200.182,32.106 c -92.784,0 -168,75.216 -168,168 0,92.784 75.216,168 168,168 92.784,0 168,-75.216 168,-168 -0.101,-92.742 -75.258,-167.899 -168,-168 z m 0,16 c 49.416,0.039 95.723,24.123 124.128,64.56 l -20,20 c -4.867,-2.945 -10.439,-4.521 -16.128,-4.56 -17.673,0 -32,14.327 -32,32 0.028,5.695 1.595,11.276 4.536,16.152 l -52.384,52.384 c -9.919,-6.048 -22.385,-6.048 -32.304,0 l -36.384,-36.384 c 2.941,-4.876 4.508,-10.457 4.536,-16.152 0.022,-17.638 -14.258,-31.954 -31.896,-31.976 -14.587,-0.018 -27.332,9.849 -30.968,23.976 h -29.68 c 15.147,-69.947 76.976,-119.895 148.544,-120 z m 104,112 c 0,8.837 -7.163,16 -16,16 -8.837,0 -16,-7.163 -16,-16 0,-8.837 7.163,-16 16,-16 8.837,0 16,7.163 16,16 z m -96,96 c 0,8.837 -7.163,16 -16,16 -8.837,0 -16,-7.163 -16,-16 0,-8.837 7.163,-16 16,-16 8.837,0 16,7.163 16,16 z m -80,-80 c 0,8.837 -7.163,16 -16,16 -8.837,0 -16,-7.163 -16,-16 0,-8.837 7.163,-16 16,-16 8.837,0 16,7.163 16,16 z m 145.854,156.906 c -22.592,12.544 -48.012,19.116 -73.854,19.093 -83.89,0.057 -151.943,-67.902 -152,-151.792 -0.004,-5.414 0.282,-10.825 0.856,-16.208 h 32.28 c 3.637,14.085 16.317,23.945 30.864,24 5.695,-0.028 11.276,-1.595 16.152,-4.536 l 36.384,36.384 c -2.941,4.876 -4.508,10.457 -4.536,16.152 0,17.673 14.327,32 32,32 17.673,0 32,-14.327 32,-32 -0.028,-5.695 -1.595,-11.276 -4.536,-16.152 l 52.384,-52.384 c 4.876,2.941 10.457,4.508 16.152,4.536 17.673,0 32,-14.327 32,-32 -0.028,-5.695 -1.595,-11.276 -4.536,-16.152 l 17.44,-17.432 c 40.715,73.328 14.277,165.777 -59.05,206.491 z"
   id="path6768"
   inkscape:connector-curvature="0" />
	</g>
</g>
<g
   id="g6778"
   transform="matrix(-1,0,0,1,480.1823,0)">
	<g
   id="g6776">
		<path
   d="m 400.182,80.106 c 14.547,-0.055 27.227,-9.914 30.864,-24 h 49.136 v -16 h -49.136 c -3.637,-14.086 -16.317,-23.945 -30.864,-24 -17.673,0 -32,14.327 -32,32 0.028,5.695 1.595,11.276 4.536,16.152 L 358.662,78.314 C 291.407,-9.307 165.855,-25.817 78.234,41.438 -9.387,108.693 -25.897,234.246 41.358,321.867 c 63.484,82.707 179.855,102.77 267.368,46.095 l 24.144,24.144 11.312,11.312 64.4,64.4 c 16.379,16.379 42.933,16.379 59.312,0 16.379,-16.379 16.379,-42.933 0,-59.312 l -64.4,-64.4 -11.312,-11.312 -24.144,-24.144 c 42.859,-66.016 42.859,-151.071 0,-217.088 l 16,-16 c 4.873,2.942 10.452,4.512 16.144,4.544 z m 0,-48 c 8.837,0 16,7.163 16,16 0,8.837 -7.163,16 -16,16 -8.837,0 -16,-7.163 -16,-16 0,-8.837 7.164,-16 16,-16 z m 56.4,387.712 c 10.246,10.016 10.433,26.442 0.417,36.688 -10.016,10.246 -26.442,10.433 -36.688,0.417 -0.141,-0.137 -0.279,-0.276 -0.417,-0.417 l -64.4,-64.4 36.688,-36.688 z M 380.87,344.106 344.182,380.794 322.038,358.65 c 1.128,-0.864 2.184,-1.816 3.296,-2.704 1.112,-0.888 2.4,-1.952 3.592,-2.952 1.752,-1.472 3.48,-2.96 5.176,-4.488 0.872,-0.8 1.704,-1.6 2.56,-2.4 3.28,-3.072 6.456,-6.248 9.528,-9.528 0.8,-0.856 1.6,-1.688 2.4,-2.56 1.528,-1.696 3.016,-3.424 4.488,-5.176 1.003,-1.184 1.987,-2.381 2.952,-3.592 0.88,-1.104 1.832,-2.16 2.696,-3.288 z m -31.024,-37.16 c -2.52,3.52 -5.12,6.968 -7.864,10.288 -0.8,0.968 -1.656,1.904 -2.48,2.856 -2.448,2.848 -4.976,5.611 -7.584,8.288 -1.136,1.173 -2.291,2.328 -3.464,3.464 -2.667,2.608 -5.429,5.136 -8.288,7.584 -0.952,0.8 -1.888,1.672 -2.856,2.48 -3.32,2.744 -6.768,5.344 -10.288,7.864 C 224.206,408.935 109.107,389.762 49.942,306.946 -9.223,224.13 9.95,109.031 92.766,49.866 175.582,-9.299 290.681,9.873 349.846,92.69 c 45.781,64.082 45.781,150.174 0,214.256 z"
   id="path6774"
   inkscape:connector-curvature="0" />
	</g>
</g>
<g
   id="g6780"
   transform="matrix(-1,0,0,1,480.1823,0)">
</g>
<g
   id="g6782"
   transform="matrix(-1,0,0,1,480.1823,0)">
</g>
<g
   id="g6784"
   transform="matrix(-1,0,0,1,480.1823,0)">
</g>
<g
   id="g6786"
   transform="matrix(-1,0,0,1,480.1823,0)">
</g>
<g
   id="g6788"
   transform="matrix(-1,0,0,1,480.1823,0)">
</g>
<g
   id="g6790"
   transform="matrix(-1,0,0,1,480.1823,0)">
</g>
<g
   id="g6792"
   transform="matrix(-1,0,0,1,480.1823,0)">
</g>
<g
   id="g6794"
   transform="matrix(-1,0,0,1,480.1823,0)">
</g>
<g
   id="g6796"
   transform="matrix(-1,0,0,1,480.1823,0)">
</g>
<g
   id="g6798"
   transform="matrix(-1,0,0,1,480.1823,0)">
</g>
<g
   id="g6800"
   transform="matrix(-1,0,0,1,480.1823,0)">
</g>
<g
   id="g6802"
   transform="matrix(-1,0,0,1,480.1823,0)">
</g>
<g
   id="g6804"
   transform="matrix(-1,0,0,1,480.1823,0)">
</g>
<g
   id="g6806"
   transform="matrix(-1,0,0,1,480.1823,0)">
</g>
<g
   id="g6808"
   transform="matrix(-1,0,0,1,480.1823,0)">
</g>
<path
   style="fill:#e0e0e0;fill-opacity:1;stroke-width:1.01733482"
   d="m 261.24709,366.53393 c -38.90009,-4.46977 -75.59715,-22.77736 -102.52611,-51.14864 -24.76852,-26.09513 -40.51047,-59.50228 -45.0228,-95.5462 -1.7154,-13.70242 -0.78176,-37.85663 2.00377,-51.83936 11.72108,-58.83726 54.8397,-107.863197 111.4976,-126.772931 16.45457,-5.491762 27.74253,-7.348322 48.29022,-7.942416 16.07542,-0.464788 20.60142,-0.238254 31.02872,1.553037 37.85563,6.50317 67.68394,22.256569 94.19505,49.747792 72.83907,75.531908 58.48459,198.715918 -29.83921,256.067278 -32.13338,20.8652 -71.79434,30.2286 -109.62724,25.88144 z m 49.61584,-17.08946 c 28.30475,-6.18427 53.48953,-19.37227 73.67158,-38.57812 18.10857,-17.23265 31.16175,-37.26682 39.29262,-60.3068 5.96189,-16.89383 7.73673,-27.88667 7.78238,-48.20183 l 0.0412,-18.31202 -16.37998,-0.27881 -16.37999,-0.2788 -3.23654,6.57433 c -3.68104,7.47727 -7.36253,10.99473 -15.37889,14.69369 -7.23501,3.33842 -16.66942,3.51748 -23.52343,0.44647 l -4.70273,-2.10712 -18.54209,18.56244 -18.54208,18.56242 1.87692,3.45006 c 1.42861,2.62603 1.87784,5.63696 1.88079,12.60608 0.003,8.23769 -0.29678,9.69873 -2.99361,14.56707 -5.60241,10.11348 -14.09375,15.48691 -25.66763,16.24281 -13.25652,0.86579 -24.60748,-5.77596 -30.51818,-17.857 -3.58985,-7.33739 -3.83959,-17.48505 -0.6097,-24.77493 l 2.08271,-4.70071 -26.15853,-26.14402 -26.15853,-26.14402 -6.53509,2.21293 c -24.73432,8.37556 -48.01508,-14.89656 -39.64002,-39.62527 l 2.20964,-6.52435 -8.43728,-8.48134 c -4.64051,-4.66474 -8.82044,-8.48135 -9.28874,-8.48135 -2.43423,0 -12.46758,25.866 -16.14424,41.61988 -2.9559,12.66553 -3.7078,40.83149 -1.46759,54.97561 6.98601,44.10789 31.58387,81.70244 69.38496,106.04566 13.84459,8.91566 37.17858,17.97984 53.08776,20.62214 4.87839,0.81024 10.0143,1.69239 11.41314,1.96035 6.46168,1.23777 38.38296,-0.33575 47.58117,-2.34545 z M 297.434,269.5485 c 9.11025,-5.96927 8.73344,-20.27924 -0.71831,-27.27871 -7.12675,-5.27771 -18.72652,-2.07174 -23.07194,6.37666 -7.69929,14.96903 9.62069,30.18631 23.79025,20.90205 z m -14.27242,-44.39457 c 4.39974,-0.81333 6.918,-0.6916 11.85445,0.57306 3.44738,0.88318 6.90453,2.13408 7.68255,2.77979 1.13999,0.9461 4.96974,-2.38116 19.7289,-17.14032 l 18.31432,-18.31432 -2.21422,-6.53789 c -8.48247,-25.04615 15.04594,-48.5308 40.07656,-40.002 6.51414,2.21959 15.06628,10.20372 17.84267,16.65763 l 2.19703,5.10713 h 15.25112 15.25112 l -0.63813,-2.79767 c -1.75973,-7.71481 -8.14397,-25.16558 -12.12132,-33.13261 C 395.81841,91.146523 357.13368,60.895665 312.82593,51.36389 255.67487,39.069175 197.8146,59.599011 160.91997,105.26278 l -5.82423,7.20854 10.17009,10.1701 10.1701,10.1701 6.53586,-2.21353 c 24.74019,-8.37886 48.01462,14.89516 39.63679,39.6361 l -2.21292,6.53508 26.19244,26.20698 26.19244,26.20698 2.89728,-1.49824 c 1.5935,-0.82404 5.41119,-1.96297 8.48376,-2.53096 z m 94.79129,-36.12112 c 6.54446,-4.99169 8.2821,-14.0552 4.03857,-21.06509 -3.42662,-5.66045 -7.26616,-7.81471 -13.94238,-7.82269 -9.67803,-0.0116 -16.25918,6.55398 -16.25918,16.22059 0,13.40167 15.41502,20.86507 26.16299,12.66719 z M 200.21735,174.12668 c 5.77675,-3.93162 7.61966,-7.31489 7.61966,-13.98835 0,-6.67346 -1.84291,-10.05673 -7.61966,-13.98835 -10.02816,-6.82511 -24.42638,1.56326 -24.42638,14.23075 0,12.14213 14.66068,20.39243 24.42638,13.74595 z"
   id="path7360"
   inkscape:connector-curvature="0" /><path
   style="fill:#bdbdbd;fill-opacity:1;stroke-width:1.01733482"
   d="M 32.088286,478.47695 C 20.764832,475.80822 10.638016,467.51592 5.1557926,456.42339 1.4488786,448.92296 1.3181838,448.29233 1.3217811,437.92348 1.3280131,419.96061 -1.9118921,424.15927 59.480836,362.55397 l 53.259644,-53.44405 -6.43719,-11.28133 C 87.315843,264.55263 77.914071,222.42407 81.137544,185.06303 c 1.414675,-16.39652 4.89471,-33.64636 9.662288,-47.89406 3.632147,-10.85452 12.880488,-30.905 18.758658,-40.668933 l 3.09535,-5.141544 -8.10207,-8.054556 -8.10208,-8.054557 -3.311755,1.332181 C 83.150844,80.598954 75.061288,80.476901 66.27097,76.176198 59.941175,73.079318 53.483618,66.137212 51.081251,59.846705 L 49.365032,55.352849 H 25.087211 0.80938943 v -7.630011 -7.63001 H 25.070917 49.332444 l 1.927746,-4.323673 c 2.666833,-5.981345 9.024964,-12.6417 15.12645,-15.845463 4.37697,-2.298256 6.393279,-2.692352 13.774861,-2.692352 7.391053,0 9.395719,0.392893 13.798574,2.704369 6.193415,3.25151 12.118455,9.560568 14.991605,15.963253 2.93831,6.547928 2.95538,17.282749 0.0376,23.658031 l -2.15691,4.712812 7.3211,7.272246 7.32111,7.272246 8.80079,-10.127819 C 174.48597,17.80962 244.66736,-7.6852703 311.09649,2.9993396 376.51756,13.52181 431.39984,54.634458 460.12584,114.63811 c 44.64655,93.25894 10.1654,204.93839 -79.59342,257.79162 -18.35221,10.80645 -40.81047,19.12852 -64.68471,23.9694 -10.01927,2.03156 -14.31309,2.29941 -36.2886,2.26374 -23.25317,-0.0377 -25.81163,-0.22875 -38.15005,-2.84815 -22.63311,-4.80493 -45.80406,-13.77904 -63.79426,-24.70751 l -6.10143,-3.70642 -52.03428,51.89694 c -31.431776,31.34882 -53.846894,52.91864 -56.61228,54.47738 -9.302191,5.24328 -20.9387,7.02091 -30.778524,4.70184 z m 21.16843,-16.67463 c 3.691895,-1.84819 13.971124,-11.46614 38.595944,-36.11297 l 33.56386,-33.59387 -18.29324,-18.31444 C 97.062001,363.7081 88.351807,355.4666 87.767294,355.4666 c -0.584514,0 -15.987279,14.99297 -34.228366,33.31772 -21.971464,22.07222 -33.952089,34.86289 -35.495754,37.89572 -6.426044,12.62518 -0.344916,29.61963 12.777591,35.70851 6.148269,2.85282 16.08485,2.59318 22.435951,-0.58623 z M 293.39973,383.91159 c 84.48675,-6.81187 151.88621,-66.5076 168.29033,-149.05483 2.81333,-14.15697 3.82856,-41.75046 2.0628,-56.06574 C 458.65467,137.45938 441.60309,101.17629 413.53382,71.932757 335.51917,-9.3456063 203.04366,-2.2008372 134.10219,87.003274 88.517098,145.9863 82.978051,226.80482 120.06885,291.7593 c 29.64272,51.9112 84.97454,87.17249 144.4725,92.06792 15.07343,1.24023 14.5417,1.23868 28.85838,0.0843 z m -145.65796,-14.12957 11.08347,-11.11796 -3.47082,-2.82418 c -5.91813,-4.81552 -25.66527,-24.48446 -29.41285,-29.29638 -1.95837,-2.51455 -4.01066,-4.58925 -4.56065,-4.61043 -1.29951,-0.05 -21.890059,20.46113 -21.890059,21.80569 0,1.02623 35.619209,37.16121 36.630809,37.16121 0.29514,0 5.52418,-5.00308 11.6201,-11.11795 z M 89.076103,61.790387 c 5.18427,-3.870616 6.854087,-7.173879 6.854087,-13.558881 0,-6.673463 -1.842919,-10.056734 -7.619666,-13.988353 -6.346805,-4.319597 -17.003603,-2.323179 -21.52985,4.03335 -2.311145,3.245702 -3.542279,10.295641 -2.513641,14.394058 0.88255,3.516362 5.53006,8.784266 9.231355,10.463646 4.117442,1.868197 12.210688,1.170028 15.577715,-1.34382 z"
   id="path7362"
   inkscape:connector-curvature="0" /><path
   style="fill:#d2d2d2;fill-opacity:1;stroke-width:1.01733482"
   d="m 256.66908,365.52508 c -37.29534,-5.4018 -72.04326,-23.70467 -98.63751,-51.95562 -19.75065,-20.98102 -33.95771,-47.81952 -41.09887,-77.63969 -2.50058,-10.44199 -2.68015,-12.79018 -2.68392,-35.09805 -0.005,-26.93548 0.80077,-32.55243 7.60006,-53.00835 16.52518,-49.716666 56.38526,-89.636035 105.97707,-106.134701 19.37867,-6.447076 24.9548,-7.195746 53.25921,-7.150757 l 25.43337,0.04043 13.8251,3.655507 c 29.84332,7.890898 52.25456,20.332301 74.13758,41.156829 25.5857,24.348112 42.58128,55.022092 49.55168,89.431902 2.88848,14.25922 2.6247,50.16469 -0.47244,64.30853 -5.01895,22.92017 -14.78867,45.46484 -27.44404,63.33008 -7.63727,10.7813 -24.73554,28.55683 -34.81719,36.19626 -21.9291,16.6169 -49.90797,28.45511 -76.62955,32.42288 -11.48502,1.70535 -37.6248,1.94756 -48.00055,0.44475 z m 42.36594,-14.18163 c 56.10289,-5.70402 106.1315,-46.19248 125.36973,-101.46251 5.66212,-16.26687 6.89082,-23.91714 7.42066,-46.20346 l 0.47653,-20.04427 -16.94949,-0.30243 -16.9495,-0.30242 -2.57506,5.4467 c -3.51966,7.44474 -7.26999,11.43639 -13.89368,14.78766 -8.01549,4.05548 -16.09992,4.61521 -24.16826,1.67336 l -6.25383,-2.28027 -18.57196,18.5516 -18.57195,18.5516 1.90248,4.18938 c 3.01395,6.637 2.68554,19.09416 -0.68155,25.85102 -3.31083,6.64398 -10.26205,12.82386 -16.90703,15.03098 -6.40537,2.12751 -19.05275,1.61582 -24.01611,-0.97166 -14.19727,-7.40127 -20.81002,-23.7977 -15.4863,-38.39851 l 2.27944,-6.25159 -25.75272,-25.76758 c -28.2442,-28.26051 -25.91498,-26.69588 -35.4927,-23.84174 -10.52978,3.13783 -21.36177,0.19879 -29.60086,-8.03161 -8.97526,-8.96579 -11.18129,-19.70211 -6.98485,-33.99381 l 1.44889,-4.93443 -8.34427,-8.03659 c -4.58935,-4.42012 -8.98198,-8.03659 -9.76141,-8.03659 -3.59121,0 -15.98988,35.05956 -17.81518,50.37572 -1.58456,13.29608 -1.34792,38.03093 0.47188,49.32309 3.29167,20.42552 13.72603,45.35999 26.51656,63.36532 7.84476,11.04313 24.08607,27.16745 35.41717,35.16204 16.64466,11.74355 39.21736,21.25598 60.57465,25.52697 11.16649,2.23305 30.79233,2.66158 46.89872,1.02403 z m -1.71953,-81.30788 c 4.57146,-2.83113 6.43691,-6.7552 6.41998,-13.50477 -0.008,-3.21732 -0.44225,-5.84968 -0.96487,-5.84968 -0.52261,0 -0.66727,-0.4578 -0.32145,-1.01733 0.34581,-0.55954 0.11691,-1.01734 -0.50867,-1.01734 -0.62558,0 -0.87825,-0.41933 -0.56149,-0.93185 0.82114,-1.32865 -5.21875,-7.0868 -8.225,-7.84132 -1.3889,-0.3486 -4.61044,-0.39878 -7.15896,-0.11153 -7.9625,0.8975 -13.54234,6.6384 -14.32018,14.73353 -1.33597,13.9037 13.6335,22.97641 25.64064,15.54029 z m -19.79105,-42.75315 c 8.28632,-2.91483 14.9876,-2.48946 24.83726,1.57661 1.48475,0.61291 1.74714,0.48009 1.10478,-0.55927 -0.61433,-0.994 -0.38757,-1.18855 0.83738,-0.71849 1.22467,0.46994 6.43603,-3.99616 19.23341,-16.48289 l 17.55361,-17.12749 -1.46108,-4.96259 c -3.99352,-13.56413 -1.7387,-25.68227 6.30715,-33.89688 9.51897,-9.7186 23.19563,-12.41747 34.61467,-6.83066 6.51756,3.18875 14.2562,11.14881 16.01261,16.47078 l 1.1635,3.52547 h 15.6898 c 13.79812,0 15.68979,-0.19912 15.68979,-1.65149 0,-3.52266 -7.44431,-23.80847 -12.64726,-34.4639 C 397.17804,92.672843 360.56529,63.081822 317.54509,52.216932 259.92106,37.663797 200.26101,57.33368 161.77305,103.57488 l -7.53645,9.05464 10.23922,10.23922 10.23922,10.23922 4.86164,-1.42941 c 14.20847,-4.17757 24.9709,-1.95525 33.92102,7.00431 8.23073,8.23944 11.17011,19.07364 8.03087,29.60086 -2.83591,9.51004 -4.38598,7.2001 23.71826,35.34567 14.10749,14.12824 25.88224,25.67276 26.16613,25.65449 0.28388,-0.0183 3.03405,-0.91892 6.11148,-2.00146 z m 98.76115,-36.90259 c 1.88792,-1.27226 4.51404,-3.90462 5.83582,-5.84968 4.7906,-7.04953 0.99322,-20.5544 -6.59036,-23.43767 -4.39774,-1.67202 -12.77087,-1.12232 -16.37479,1.07503 -7.28444,4.44137 -9.82309,15.62831 -5.2322,23.05651 4.41818,7.14879 15.58395,9.72323 22.36153,5.15581 z M 202.03843,173.50841 c 8.8688,-6.31515 8.29255,-21.19836 -1.06041,-27.38785 -10.89631,-7.21085 -25.18705,0.74262 -25.18705,14.01777 0,13.62725 15.09083,21.31429 26.24746,13.37008 z"
   id="path7364"
   inkscape:connector-curvature="0" /><path
   style="fill:#d2d2d2;fill-opacity:1;stroke-width:1.01733482"
   d="M 26.984012,476.10136 C 16.193273,471.66397 7.8828449,462.79627 3.4158521,450.9528 2.0251511,447.2656 1.7118188,443.89386 1.985262,435.55834 2.3302794,425.04099 2.3943279,424.79799 6.3719006,418.91559 8.6020075,415.6175 33.389867,389.83958 61.761791,361.31335 L 113.11517,309.68068 104.8583,293.66059 C 81.030646,247.42988 75.208321,200.73904 87.186537,151.94583 91.193295,135.62433 101.18557,111.74509 111.31608,94.28179 l 1.9088,-3.290451 -8.15355,-8.161731 -8.153551,-8.16173 -5.809387,2.041836 c -3.239473,1.138583 -8.408365,2.04148 -11.684476,2.041032 -11.231122,-0.0015 -23.16009,-8.117225 -27.782819,-18.901613 L 49.713765,55.352849 H 25.261577 0.80938943 v -7.630011 -7.63001 H 25.128311 49.447231 l 3.030554,-5.369847 c 3.562468,-6.312348 9.944312,-12.376298 15.844986,-15.055711 6.581626,-2.988626 18.127687,-2.678485 24.841759,0.667279 14.50278,7.227041 21.00549,23.58354 15.3671,38.653473 l -2.14992,5.746169 6.95498,7.008679 c 3.82523,3.854773 7.42504,6.999762 7.99958,6.988863 0.57454,-0.0109 3.79143,-3.262122 7.14863,-7.22494 C 159.96396,34.349157 205.02628,9.8638524 254.74234,2.9028715 272.53351,0.41184546 301.93637,1.3409581 319,4.9333755 372.54904,16.207081 416.30684,45.986005 446.49271,91.697222 c 60.62563,91.806918 33.57951,216.700368 -59.84039,276.330748 -22.28752,14.22623 -53.70604,25.78268 -79.55181,29.26098 -13.40909,1.80459 -55.50283,0.58573 -65.69145,-1.90214 -23.39369,-5.7123 -41.70821,-12.60737 -58.49675,-22.02293 l -11.69935,-6.56136 -45.78006,45.5094 c -62.757629,62.3866 -61.86388,61.56999 -70.205302,64.14639 -9.580521,2.95912 -20.515723,2.82091 -28.243586,-0.35695 z M 52.187067,462.3446 c 4.650504,-2.00465 27.332889,-23.03933 55.442473,-51.415 l 18.82069,-18.99885 -18.54327,-18.06251 c -10.1988,-9.93439 -19.281156,-18.06253 -20.183012,-18.06253 -1.725326,0 -63.635865,61.30775 -63.237809,62.62209 0.126839,0.41881 -1.434493,2.3378 -3.469628,4.26442 -2.124924,2.01161 -4.179801,5.23033 -4.826666,7.56038 -1.361244,4.90329 -1.493682,12.70479 -0.215677,12.70479 0.507152,0 0.700504,0.84736 0.429674,1.88301 -0.270829,1.03566 0.20803,2.58346 1.064134,3.43957 0.856102,0.85609 1.331834,1.78126 1.057181,2.05591 -1.128457,1.12846 6.51351,9.42246 10.734434,11.65033 5.58907,2.94999 16.518951,3.12084 22.927476,0.35839 z M 291.76713,384.04722 c 0,-0.50715 0.92961,-0.67899 2.06581,-0.38187 2.41519,0.63158 21.33016,-1.7103 21.33865,-2.64196 0.003,-0.34765 1.93562,-0.70697 4.29436,-0.79849 2.35873,-0.0916 4.4382,-0.61517 4.62103,-1.16367 0.18283,-0.54849 1.22607,-0.76357 2.31831,-0.47794 1.09225,0.28562 1.9868,0.12258 1.98792,-0.36234 10e-4,-0.48491 1.27892,-0.97017 2.83958,-1.07836 3.9724,-0.27538 20.55709,-6.39835 20.55709,-7.58955 0,-0.53964 0.4374,-0.71083 0.972,-0.38043 1.38266,0.85453 19.23948,-8.3281 30.05671,-15.45625 40.5211,-26.70189 68.95292,-68.9553 78.91495,-117.27792 3.07715,-14.9262 3.83513,-50.46193 1.38407,-64.88732 -0.92395,-5.43773 -1.97277,-10.11569 -2.33074,-10.39546 -0.35796,-0.27976 -0.73941,-2.12015 -0.84765,-4.08975 -0.52237,-9.50448 -12.45694,-38.74018 -22.41763,-54.91566 -19.98363,-32.452057 -52.02527,-59.441375 -87.40582,-73.623691 -13.20422,-5.292914 -26.35881,-9.171736 -28.42108,-8.380366 -0.79321,0.304379 -1.44219,0.151347 -1.44219,-0.340071 0,-1.124317 -13.77963,-3.507371 -15.79933,-2.732341 -0.82244,0.315603 -1.49536,0.0737 -1.49536,-0.537558 0,-0.725151 -1.94451,-0.950129 -5.59534,-0.647373 -3.07744,0.255204 -5.59534,0.08299 -5.59534,-0.382691 0,-1.014363 -21.73627,-1.152685 -22.74422,-0.144737 -0.38608,0.386079 -2.98028,0.581038 -5.7649,0.433243 -2.7846,-0.147796 -5.06293,0.131095 -5.06293,0.619757 0,0.488663 -1.6023,0.701418 -3.56067,0.472789 -2.00527,-0.234103 -3.56067,0.03573 -3.56067,0.617707 0,0.568367 -0.83534,0.814947 -1.85633,0.547954 -2.3946,-0.626204 -20.52503,3.61211 -20.52503,4.798098 0,0.495354 -0.63198,0.658129 -1.40441,0.361723 -1.77789,-0.682239 -19.02037,5.726078 -29.37351,10.916918 -35.95351,18.026312 -64.94814,46.839088 -82.63691,82.118619 -8.7691,17.48961 -14.2879,34.39224 -17.984163,55.08078 -1.813901,10.15267 -1.822259,46.74654 -0.01301,56.97075 9.395003,53.0919 36.824253,95.97279 80.046523,125.13888 9.02133,6.08753 26.83887,15.703 27.63063,14.91124 0.3181,-0.3181 1.19396,0.0372 1.94636,0.78962 3.74125,3.74125 31.74503,11.79874 49.25652,14.17253 12.12093,1.64306 35.60672,2.12798 35.60672,0.73519 z m -143.49174,-13.87424 11.00005,-10.72699 -18.8314,-18.77572 c -10.35727,-10.32664 -19.22433,-18.77571 -19.70458,-18.77571 -1.66449,0 -20.909488,19.89107 -20.909488,21.61143 0,2.04691 34.146858,37.42918 36.102148,37.40832 0.73877,-0.008 6.29324,-4.84148 12.34327,-10.74133 z M 87.912132,62.857436 c 4.945204,-2.346653 7.795891,-6.84415 8.31639,-13.120677 0.863329,-10.410606 -5.590611,-17.508623 -16.069669,-17.673361 -10.185167,-0.160117 -15.906448,5.538568 -16.14476,16.080998 -0.105925,4.685916 0.335636,6.521189 2.1291,8.849245 2.36881,3.074899 5.243794,5.512305 7.880077,6.680717 2.899487,1.285063 10.387387,0.844637 13.888862,-0.816922 z"
   id="path7366"
   inkscape:connector-curvature="0" /><path
   style="fill:#cdcdcd;fill-opacity:1;stroke-width:1.01733482"
   d="M 30.820765,477.13765 C 19.459714,473.5352 11.02134,466.23918 5.6894133,455.4085 2.5106142,448.95145 2.3353916,448.00977 2.3353916,437.38345 c 0,-9.53465 0.3273642,-11.82089 2.1881274,-15.28142 2.6344966,-4.89946 25.062765,-28.42553 72.941815,-76.51209 l 35.664126,-35.81871 -7.73813,-15.55669 C 93.700535,270.71143 87.735515,253.27401 83.539113,230.33443 c -2.446854,-13.37571 -2.43907,-46.29007 0.01431,-60.53142 3.905908,-22.67294 10.803704,-42.55989 22.861257,-65.91101 l 6.71762,-13.009602 -8.13106,-8.131057 -8.13106,-8.131057 -4.439029,1.56618 c -16.213338,5.7204 -31.515766,0.11186 -39.49456,-14.475273 L 49.458742,55.352849 H 25.134065 0.80938943 v -7.630011 -7.63001 H 25.038622 49.267854 l 4.169288,-6.539763 C 60.722215,22.126019 70.324487,16.969923 82.50005,17.94726 c 14.644903,1.175552 25.86488,12.052116 27.75412,26.904639 0.50714,3.986943 0.12746,7.054133 -1.56158,12.614939 l -2.23164,7.347202 6.94107,6.994671 c 3.81759,3.847069 7.41349,6.868558 7.9909,6.714421 0.57741,-0.154138 5.30131,-4.972577 10.49756,-10.707642 17.31562,-19.111126 35.57063,-32.952408 58.65184,-44.470896 23.74584,-11.850163 45.38784,-18.3174944 70.1961,-20.976859 13.16041,-1.41075236 38.35144,-0.6368514 51.88407,1.5939456 75.2728,12.4083964 137.33017,68.1030624 158.71563,142.4426294 5.21963,18.14432 6.87582,30.81015 6.9174,52.90141 0.042,22.33657 -1.18068,32.24687 -6.40845,51.94113 -9.12491,34.3757 -26.87736,64.88473 -52.5222,90.2637 -22.21288,21.98257 -46.66646,36.86704 -77.55785,47.2081 -18.76077,6.28027 -30.51316,8.49587 -48.47389,9.13848 -43.38753,1.55233 -70.60882,-4.31294 -106.94089,-23.04217 l -15.38077,-7.9288 -30.3993,30.49505 c -42.959239,43.09457 -76.004111,74.69139 -80.485581,76.95864 -8.020665,4.05779 -21.291242,5.32646 -29.265824,2.7978 z m 20.621243,-14.65721 c 0.224346,-0.67303 0.826601,-0.96493 1.338345,-0.64865 0.511745,0.31627 0.930444,0.0902 0.930444,-0.50233 0,-0.59255 0.454318,-1.07738 1.009597,-1.07738 2.182646,0 26.204457,-22.39851 52.909146,-49.33376 l 18.82069,-18.9832 -17.76206,-17.29514 c -9.769143,-9.51234 -18.593272,-17.74 -19.60918,-18.2837 -1.553137,-0.83121 -4.635991,1.71799 -19.370651,16.01752 -22.81257,22.1389 -50.319369,50.87759 -52.437449,54.78587 -1.118677,2.06419 -1.67637,5.59922 -1.689795,10.71105 -0.01724,6.56734 0.397775,8.3843 2.979885,13.04584 2.990615,5.39903 8.317161,10.48053 12.897923,12.30456 3.469371,1.38149 19.473449,0.78829 19.983105,-0.74068 z M 301.68737,383.18532 c 0.16652,-0.49958 1.5656,-0.72299 3.10907,-0.49646 3.50022,0.51373 26.01465,-4.4739 26.4793,-5.86597 0.18768,-0.56225 0.77077,-0.75679 1.29576,-0.43234 1.24182,0.76749 14.13171,-3.51732 14.13171,-4.69761 0,-0.49635 0.62767,-0.66159 1.39483,-0.36721 0.76715,0.29438 2.08605,-0.15598 2.93089,-1.00082 0.84483,-0.84484 1.81947,-1.25266 2.16584,-0.90628 0.34638,0.34637 0.62978,0.0687 0.62978,-0.61716 0,-0.68581 0.43778,-0.97637 0.97286,-0.64567 1.50392,0.92948 17.89043,-7.69585 29.64437,-15.60386 39.52896,-26.59493 67.38333,-68.43713 77.29683,-116.1135 1.93483,-9.30504 2.22778,-14.02611 2.2726,-36.62405 0.0488,-24.61937 -0.0901,-26.58069 -2.72596,-38.46815 C 449.82789,109.6741 419.3149,67.330416 373.98751,40.200834 359.57443,31.574247 332.78725,20.917111 324.34891,20.452388 c -1.97325,-0.108674 -3.83262,-0.523078 -4.13192,-0.9209 -1.82102,-2.420465 -52.04982,-6.663264 -50.58649,-4.273012 0.32103,0.524381 -3.03318,0.985883 -7.72296,1.062599 -23.35901,0.3821 -59.87403,13.146589 -84.0819,29.392356 -38.79597,26.035761 -66.27697,65.310319 -77.30834,110.485479 -11.85484,48.54741 -2.89147,101.98227 24.11546,143.76361 25.77433,39.87442 65.92633,68.30169 112.70696,79.79555 7.07164,1.73748 12.10485,2.61775 26.45071,4.62602 5.41249,0.7577 37.58399,-0.25996 37.89694,-1.19877 z m -153.3961,-13.07316 11.16605,-10.78779 -18.91397,-18.46058 c -10.40268,-10.15331 -19.3368,-18.61972 -19.85357,-18.81424 -0.51679,-0.19453 -5.48371,4.31931 -11.03762,10.03074 -9.909101,10.19016 -10.071741,10.43518 -8.69435,13.09877 1.85253,3.58241 33.26531,35.74373 34.89925,35.73088 0.69748,-0.005 6.29288,-4.86448 12.43421,-10.79778 z M 87.912132,62.857436 c 6.500985,-3.084919 9.692363,-10.636912 8.094453,-19.154501 -0.78167,-4.166661 -7.118731,-11.174649 -9.335574,-10.323967 -0.782561,0.300297 -1.422836,0.136694 -1.422836,-0.36356 0,-0.500255 -2.6776,-0.812783 -5.950222,-0.694508 -10.250221,0.370453 -14.421605,4.722111 -14.955117,15.60143 l -0.334825,6.827718 4.879407,4.879407 c 4.586483,4.586483 5.199537,4.879407 10.212,4.879407 2.932925,0 6.898646,-0.743142 8.812714,-1.651426 z"
   id="path7368"
   inkscape:connector-curvature="0" /><path
   style="fill:#cdcdcd;fill-opacity:1;stroke-width:1.01733482"
   d="m 254.12574,365.2258 c -34.85713,-6.17374 -64.83135,-21.19843 -89.29878,-44.76134 -24.14461,-23.25203 -39.67174,-50.69656 -48.11447,-85.04336 -2.16198,-8.79541 -2.37552,-11.90649 -2.37414,-34.58938 0.002,-27.78337 0.79311,-33.57129 7.23358,-52.90141 16.97538,-50.949077 57.12853,-90.523479 108.72124,-107.154184 16.52228,-5.325889 26.64517,-6.532113 53.33528,-6.355327 21.08648,0.13967 23.73169,0.363456 33.57205,2.84022 22.68697,5.710184 41.90915,14.262107 58.24557,25.913381 11.85236,8.453199 29.20686,25.531385 38.57265,37.95851 8.7764,11.64508 20.28058,33.57404 24.61105,46.91295 12.31024,37.9185 10.32212,81.55446 -5.37456,117.96323 -8.90533,20.65612 -19.02884,35.26171 -36.65248,52.88003 -22.96488,22.95793 -50.40381,37.71259 -83.29139,44.78802 -12.68044,2.72807 -47.39768,3.63649 -59.1856,1.54866 z m 43.23673,-13.82877 c 17.28504,-0.1139 47.58173,-11.20199 68.33079,-25.00794 10.57122,-7.03385 27.73241,-23.29497 35.55884,-33.69385 17.26281,-22.9369 28.48205,-50.7927 29.41884,-73.04283 0.23558,-5.59534 0.68367,-16.0103 0.99574,-23.14436 l 0.56742,-12.97102 h -16.80627 -16.80628 l -2.55857,5.04911 c -3.72385,7.34866 -8.03986,11.788 -14.58564,15.00247 -7.3608,3.61469 -18.5353,3.98886 -25.49954,0.85383 l -4.40869,-1.98462 -18.20164,18.63619 c -10.0109,10.2499 -18.20164,18.98412 -18.20164,19.4094 0,0.42527 0.73758,2.5385 1.63907,4.69606 1.22204,2.92476 1.52808,6.12712 1.20282,12.58659 -0.4831,9.59434 -1.83408,13.02897 -7.66239,19.48021 -5.61108,6.2108 -10.49842,8.29428 -20.66603,8.80994 -11.30691,0.57347 -17.12876,-1.73145 -24.36101,-9.6447 -8.13583,-8.90189 -10.24409,-20.05182 -5.95768,-31.50828 l 2.18286,-5.83422 -25.06367,-24.74566 c -13.78503,-13.61012 -26.20009,-25.17772 -27.58902,-25.7058 -1.77262,-0.67394 -3.78452,-0.51586 -6.7498,0.53035 -5.56218,1.96244 -14.63349,1.89279 -20.65402,-0.15862 -5.39438,-1.83805 -14.38221,-9.89852 -17.47333,-15.67043 -2.40284,-4.48672 -2.6425,-18.58758 -0.43844,-25.79588 l 1.51824,-4.96534 -8.63958,-7.98059 c -4.75177,-4.38933 -9.09319,-7.84068 -9.6476,-7.66967 -0.5544,0.171 -1.82383,1.7078 -2.82094,3.41509 -2.78022,4.76039 -10.17267,24.86516 -10.30036,28.01321 -0.0624,1.53745 -0.42003,2.7964 -0.79483,2.79767 -0.3748,0.001 -1.44817,3.32138 -2.38525,7.378 -1.84924,8.0053 -3.31456,49.59507 -1.74738,49.59507 0.46467,0 0.65779,1.6023 0.42916,3.56067 -0.2341,2.00527 0.0357,3.56067 0.61771,3.56067 0.56837,0 0.81448,0.83713 0.54692,1.86027 -0.87847,3.35929 6.09774,27.64244 7.94129,27.64244 0.54693,0 0.71433,0.4532 0.372,1.00712 -0.97291,1.5742 6.87438,17.41273 14.01892,28.295 9.89155,15.06644 24.02706,29.75606 38.79195,40.31259 10.24962,7.32824 20.59071,13.1251 21.93354,12.29519 0.57239,-0.35376 1.04071,-0.13136 1.04071,0.49422 0,0.62558 0.4578,0.85448 1.01733,0.50867 0.55954,-0.34582 1.01734,-0.21742 1.01734,0.28533 0,1.24166 5.00673,3.44482 6.18025,2.71956 0.5176,-0.3199 0.94109,-0.14161 0.94109,0.39622 0,1.21116 6.00419,3.39334 7.23821,2.63067 0.49526,-0.30609 0.90047,-0.0227 0.90047,0.62969 0,0.65242 0.65713,0.93406 1.46027,0.62587 0.80316,-0.3082 1.6087,-0.11509 1.79011,0.42914 0.18142,0.54422 1.69884,1.09076 3.37207,1.21451 1.67322,0.12376 3.31551,0.59645 3.64951,1.05042 0.334,0.45398 5.14091,1.69608 10.68201,2.76024 8.17774,1.5705 13.13965,1.84732 26.3521,1.47018 8.95254,-0.25555 17.19295,-0.47067 18.31202,-0.47805 z m -4.50299,-79.49455 c 2.12947,-0.638 5.36073,-2.69623 7.18059,-4.57385 2.9054,-2.99762 3.33591,-4.15812 3.53093,-9.51823 0.12216,-3.35741 -0.2022,-6.36661 -0.7208,-6.68712 -0.5186,-0.32051 -0.67953,-1.00891 -0.3576,-1.52979 0.32191,-0.52086 0.0735,-0.94704 -0.55212,-0.94704 -0.62558,0 -0.89932,-0.38526 -0.6083,-0.85613 0.29102,-0.47088 -1.04067,-2.37765 -2.95931,-4.23726 -2.85707,-2.76919 -4.47385,-3.46286 -8.933,-3.83264 -3.71992,-0.30849 -5.91315,-0.0136 -6.92387,0.93092 -0.81364,0.76035 -2.15512,1.51398 -2.98111,1.67475 -1.98425,0.38623 -6.25491,5.21396 -5.57932,6.3071 0.29126,0.47125 0.0239,1.02538 -0.59418,1.23139 -1.53255,0.51085 -2.56467,9.97256 -1.08786,9.97256 0.61475,0 0.87881,0.62259 0.5868,1.38355 -1.12377,2.92847 9.19183,11.91875 11.81534,10.29733 0.5431,-0.33566 0.98745,-0.12547 0.98745,0.46709 0,1.39277 2.36246,1.36565 7.19636,-0.0826 z m -13.39301,-45.25101 c 6.19193,-1.9378 11.97263,-1.757 18.78732,0.58759 3.18331,1.09523 5.51697,1.55303 5.18589,1.01734 -0.33107,-0.53569 0.22622,-0.98452 1.23843,-0.9974 1.0122,-0.0129 9.62113,-7.5006 19.13095,-16.63939 l 17.29058,-16.61598 -1.49976,-4.97897 c -2.04529,-6.79004 -2.24853,-19.31774 -0.38613,-23.79966 7.03441,-16.92844 25.75574,-24.62152 41.69001,-17.13153 5.17963,2.43471 13.97703,11.61557 15.70062,16.38497 l 1.18893,3.2899 h 15.65607 c 10.71413,0 15.65637,-0.35349 15.65701,-1.11986 0.003,-3.04397 -9.21314,-27.87418 -10.34545,-27.87418 -0.53041,0 -0.69205,-0.44064 -0.3592,-0.9792 0.80078,-1.2957 -3.49153,-9.70803 -10.40117,-20.38483 -20.61915,-31.860724 -51.90841,-54.711806 -88.62513,-64.724442 -5.23842,-1.428517 -10.36673,-2.37703 -11.39624,-2.107809 -1.02951,0.269222 -2.01512,0.05961 -2.19026,-0.465807 -0.17514,-0.525416 -4.14956,-1.148388 -8.83206,-1.384383 -4.6825,-0.235995 -8.75765,-0.673112 -9.05592,-0.97137 -0.70636,-0.706372 -14.95858,-0.707786 -15.66482,-0.0015 -0.29739,0.297404 -4.36394,0.70869 -9.03678,0.91397 -4.67282,0.20528 -8.64196,0.811013 -8.82032,1.346075 -0.17835,0.535062 -1.4528,0.757108 -2.83213,0.493435 -1.37931,-0.263701 -2.50784,-0.01112 -2.50784,0.561256 0,0.57238 -0.86172,0.815344 -1.91495,0.53992 -2.96736,-0.775981 -25.53262,7.19017 -36.88451,13.021239 -18.04253,9.267816 -34.1221,22.122834 -47.29216,37.808326 -4.12675,4.91494 -7.50318,9.36397 -7.50318,9.88674 0,0.52277 4.32842,5.4146 9.6187,10.87074 l 9.61869,9.92026 4.87833,-1.49497 c 7.05294,-2.16138 21.24885,-1.92718 25.63378,0.42289 4.50356,2.41366 12.62574,10.56784 14.90932,14.96807 2.5624,4.93749 3.15315,16.81337 1.13148,22.74663 -1.14915,3.37256 -1.33273,5.45034 -0.64205,7.26694 0.53197,1.3992 12.15616,13.79737 25.83154,27.5515 19.97323,20.08824 25.22752,24.85699 26.71069,24.24237 1.01549,-0.42082 3.86477,-1.3968 6.33172,-2.16885 z m 97.51537,-36.6769 c 1.46247,-1.09189 3.56368,-3.19693 4.66936,-4.67788 2.54673,-3.41105 3.51678,-12.95677 1.53249,-15.08013 -0.76034,-0.81364 -1.53451,-2.15356 -1.72038,-2.97762 -1.03837,-4.6036 -6.37171,-7.09942 -14.33602,-6.70877 -7.22274,0.35427 -10.80175,2.41873 -13.5555,7.81915 -4.38933,8.60802 -0.44439,19.54039 8.39196,23.2561 3.72594,1.56677 11.92823,0.67606 15.01809,-1.63085 z M 200.21735,174.12668 c 5.77675,-3.93162 7.61966,-7.31489 7.61966,-13.98835 0,-6.67346 -1.84291,-10.05673 -7.61966,-13.98835 -4.08703,-2.78161 -12.21574,-3.16363 -14.68903,-0.69034 -0.87927,0.87927 -1.59867,1.25142 -1.59867,0.82701 0,-0.42443 -1.35713,0.52853 -3.01583,2.11767 -1.65871,1.58915 -2.77619,3.2771 -2.4833,3.751 0.29289,0.47392 0.0207,0.86167 -0.60488,0.86167 -0.62558,0 -0.85448,0.4578 -0.50867,1.01733 0.34581,0.55954 0.14393,1.01734 -0.44863,1.01734 -1.75072,0 -1.31161,9.79378 0.5213,11.62668 0.87926,0.87927 1.26611,1.59867 0.85966,1.59867 -1.25132,0 2.96336,4.25339 6.18901,6.24586 4.32346,2.67058 11.53923,2.4894 15.77904,-0.39619 z"
   id="path7370"
   inkscape:connector-curvature="0" /><path
   style="fill:#cdcdcd;fill-opacity:1;stroke-width:1.01733482"
   d="m 28.786095,476.73066 c -10.761893,-3.7385 -18.307827,-10.91082 -23.8870897,-22.7044 -2.709667,-5.72775 -3.0701033,-7.5673 -3.065805,-15.64687 0.00268,-5.03581 0.4554945,-10.77809 1.0062564,-12.76062 1.6465951,-5.92711 10.2297653,-15.2676 61.3393003,-66.75142 l 48.792733,-49.15006 -8.71878,-17.5644 c -9.598681,-19.33701 -12.608434,-27.16284 -17.035529,-44.29506 -7.988088,-30.91274 -7.982526,-63.94085 0.01615,-95.91657 3.767968,-15.06294 8.559264,-27.23192 18.134969,-46.05941 l 7.67437,-15.089091 -8.06245,-8.062441 -8.062441,-8.06244 -6.089136,2.150809 C 75.311876,82.299527 58.216084,74.828748 51.60129,59.676522 L 49.713765,55.352849 H 25.261577 0.80938943 v -7.630011 -7.63001 H 25.128311 49.447231 l 3.030554,-5.369847 c 3.663691,-6.491704 10.043021,-12.453519 16.275783,-15.210567 6.752182,-2.986811 19.431893,-2.236579 25.859128,1.530032 13.379104,7.84068 18.994684,22.749613 14.058644,37.324672 l -2.22669,6.574941 7.22693,7.043379 7.22694,7.043378 14.98387,-15.240885 C 151.39863,48.005552 157.05436,43.2638 171.72163,33.740375 238.09266,-9.3541674 323.50438,-9.3704484 388.9226,33.698972 457.01872,78.531444 491.56981,161.80222 474.73266,240.50778 459.1119,313.5273 405.22468,371.28484 333.98652,391.36263 c -21.83991,6.15537 -23.33967,6.32909 -53.91874,6.24546 -25.27281,-0.0691 -29.61989,-0.32677 -38.54507,-2.28454 -20.722,-4.54545 -45.89068,-14.26435 -63.15501,-24.38735 l -7.08794,-4.15605 -50.39147,50.07994 c -27.71531,27.54397 -52.909373,51.96526 -55.986811,54.26952 -3.077437,2.30426 -8.081886,4.91968 -11.120996,5.81203 -7.226938,2.12201 -18.553743,2.02639 -24.994388,-0.21098 z m 22.595808,-14.62188 c 0.721358,-0.59867 1.311559,-0.80802 1.311559,-0.46522 0,2.01904 18.327415,-14.76324 45.894291,-42.02506 L 126.45023,392.06436 109.66421,375.7307 c -9.23231,-8.98351 -17.827806,-17.04944 -19.101095,-17.9243 -2.121588,-1.45769 -2.482941,-1.43871 -4.323673,0.22713 -1.104731,0.99977 -2.008602,1.40647 -2.008602,0.90378 0,-0.50269 -13.021447,12.10145 -28.936547,28.0092 -15.915102,15.90776 -28.723503,29.26791 -28.463115,29.68922 0.260388,0.42132 -1.160589,2.05249 -3.157726,3.62483 -4.596923,3.61915 -7.974449,8.9625 -7.298661,11.54672 0.286808,1.09675 0.106529,1.9941 -0.400623,1.9941 -1.055117,0 -1.270914,7.45075 -0.245496,8.47616 0.372127,0.37213 0.806473,1.89476 0.965212,3.38364 0.15874,1.48887 0.808975,3.02865 1.444966,3.42171 0.635991,0.39307 1.021945,1.07916 0.857677,1.52464 -0.986825,2.67622 11.270708,13.32185 14.092289,12.2391 0.710941,-0.2728 1.292621,-0.0324 1.292621,0.53433 0,1.34888 15.214089,0.21038 17.000466,-1.27218 z M 290.18128,384.04881 c 0.3129,-0.50628 2.3782,-0.67782 4.58956,-0.38122 2.21137,0.29661 4.84363,0.18964 5.84948,-0.23771 1.00585,-0.42734 3.31668,-0.67851 5.13516,-0.55816 1.91772,0.12691 3.30634,-0.26641 3.30634,-0.93651 0,-0.63542 0.45292,-0.8754 1.00648,-0.53327 1.24918,0.77202 13.09471,-1.48464 13.80223,-2.62944 0.28406,-0.45962 1.15275,-0.59151 1.9304,-0.29309 0.77766,0.29841 2.47975,-0.0477 3.78243,-0.76924 1.30267,-0.72149 2.71911,-1.21212 3.14763,-1.0903 1.41074,0.40109 13.44617,-4.02551 14.21046,-5.22657 0.41137,-0.64643 0.75495,-0.81589 0.76352,-0.37655 0.008,0.43933 1.04562,0.22763 2.30458,-0.47047 1.25895,-0.69809 2.63235,-1.172 3.052,-1.05312 0.41965,0.11887 0.763,-0.14425 0.763,-0.58472 0,-0.44045 0.94372,-0.87192 2.09716,-0.9588 2.31845,-0.17465 19.17805,-8.92633 20.79656,-10.79533 0.56155,-0.64847 1.70606,-1.33113 2.54333,-1.51702 3.1782,-0.7056 18.01945,-12.26334 28.1914,-21.95426 21.03196,-20.03738 34.84355,-40.57794 45.49536,-67.66058 5.00435,-12.72372 9.65974,-31.33771 10.19783,-40.7747 0.36838,-6.46078 0.78281,-36.81075 0.64881,-47.5139 -0.0624,-4.98002 -4.16915,-24.16294 -5.25569,-24.54942 -0.52761,-0.18768 -0.71019,-0.74426 -0.40575,-1.23688 0.79908,-1.29293 -2.5298,-12.15592 -3.7251,-12.15592 -0.55285,0 -0.75475,-0.40521 -0.44866,-0.90047 0.76267,-1.23402 -1.41951,-7.2382 -2.63067,-7.2382 -0.53782,0 -0.69373,-0.45974 -0.34646,-1.02162 0.84875,-1.3733 -7.0266,-17.79166 -13.64235,-28.4413 C 429.18906,89.068619 420.31154,78.25814 408.04888,66.520805 393.64393,52.732945 381.07215,43.80495 363.82417,35.114092 349.61012,27.951967 331.30484,21.117477 329.43359,22.27397 c -0.57332,0.354336 -1.04241,0.106034 -1.04241,-0.551781 0,-0.695164 -0.85207,-0.973209 -2.03467,-0.66395 -1.11907,0.292642 -2.03467,0.06375 -2.03467,-0.508667 0,-0.57241 -0.91514,-0.80143 -2.03365,-0.508932 -1.11852,0.292497 -2.26464,0.158079 -2.54695,-0.298706 -0.68218,-1.10379 -14.39328,-3.387584 -15.65527,-2.607626 -0.54316,0.335689 -1.29431,0.114026 -1.66922,-0.492586 -0.38747,-0.626952 -3.04549,-0.993432 -6.15912,-0.849202 -3.01263,0.13955 -5.78951,-0.0583 -6.17088,-0.439666 -1.03289,-1.032888 -20.91155,-0.839807 -20.27083,0.19689 0.30261,0.489657 -1.4803,0.661416 -3.96204,0.381687 -2.48175,-0.279728 -5.33468,-0.159163 -6.33986,0.267924 -1.00518,0.427085 -3.31546,0.678051 -5.13394,0.557701 -1.81849,-0.120351 -3.30634,0.210573 -3.30634,0.735385 0,0.524814 -1.1445,0.73542 -2.54334,0.468016 -1.39883,-0.267405 -2.54333,-0.03851 -2.54333,0.508667 0,0.547172 -1.1445,0.776072 -2.54334,0.508667 -1.54631,-0.295595 -2.54334,-0.01734 -2.54334,0.709784 0,0.657785 -0.47953,0.899605 -1.06562,0.53738 -1.4304,-0.884031 -11.14239,1.499598 -11.14239,2.734692 0,0.536748 -0.38227,0.739653 -0.84948,0.450902 -1.12469,-0.695102 -8.30654,1.534144 -8.30654,2.578353 0,0.448094 -0.6867,0.551205 -1.526,0.229134 -0.8393,-0.32207 -1.526,-0.09317 -1.526,0.508667 0,0.601838 -0.62768,0.853389 -1.39483,0.559004 -0.76715,-0.294385 -2.08605,0.155983 -2.93089,1.00082 -0.84483,0.844835 -1.7603,1.311823 -2.03438,1.037751 -0.72516,-0.725159 -5.84792,1.774243 -5.84792,2.853209 0,0.502743 -0.47033,0.623398 -1.04518,0.268122 -0.57484,-0.355277 -5.0384,1.512693 -9.91901,4.151042 -35.12456,18.987563 -62.78451,47.905012 -79.707,83.330709 -2.80453,5.87104 -4.81154,11.13999 -4.46001,11.70877 0.35153,0.56879 0.17725,1.03416 -0.38727,1.03416 -1.31013,0 -7.55349,19.36491 -9.675852,30.01138 -0.892337,4.47627 -2.073063,12.48778 -2.623835,17.80335 -1.073033,10.356 -1.393579,31.85869 -0.48842,32.76385 0.301533,0.30153 0.720173,3.92578 0.930313,8.05389 1.060249,20.82821 12.205054,53.31395 25.951614,75.64573 14.67327,23.83727 37.37418,46.28577 61.46159,60.7782 4.40751,2.65183 8.41327,4.57453 8.90168,4.27268 0.48842,-0.30187 0.88803,-0.0734 0.88803,0.50786 0,1.22278 8.07245,5.57274 8.86704,4.77814 0.29216,-0.29216 1.15147,0.0891 1.90958,0.84718 3.52289,3.5229 38.9267,14.404 43.86963,13.48303 1.23944,-0.23094 2.38394,-0.0368 2.54334,0.43141 0.68129,2.00113 37.71108,3.90725 38.8887,2.00182 z M 147.65384,370.5955 c 6.01762,-5.66746 10.80447,-10.81772 10.63744,-11.44502 -0.16701,-0.62729 -8.68674,-9.34426 -18.93272,-19.37103 l -18.62905,-18.23048 -9.89575,9.85862 c -5.44267,5.42225 -9.96223,10.74099 -10.04347,11.81944 -0.0887,1.17799 3.49281,5.94177 8.97122,11.93252 9.17908,10.03751 25.2596,25.74042 26.35943,25.74042 0.32548,0 5.51528,-4.63701 11.5329,-10.30447 z M 87.917831,62.413043 c 6.913183,-3.346616 10.291813,-12.414308 7.43897,-19.964984 -1.310198,-3.467726 -6.016738,-8.593256 -7.2123,-7.854358 -0.473911,0.292893 -0.861657,0.0207 -0.861657,-0.604882 0,-0.625578 -0.426168,-0.874029 -0.947039,-0.552112 -0.520871,0.321916 -1.193109,0.18715 -1.493862,-0.299479 -0.872422,-1.411608 -11.796433,-0.403258 -14.447147,1.333557 -3.802238,2.491321 -5.207184,5.611031 -5.840261,12.968408 -0.546671,6.353204 -0.396107,7.066179 2.124937,10.062269 6.018352,7.152405 13.185533,8.809886 21.238359,4.911581 z"
   id="path7372"
   inkscape:connector-curvature="0" /><path
   style="fill:#cbd1d5;fill-opacity:1;stroke-width:1.01733482"
   d="M 30.820765,477.67459 C 20.012276,474.09492 10.90546,466.02649 5.2729191,455.03978 2.1134783,448.87704 1.9468894,447.99331 1.9405515,437.36206 1.9355265,428.93298 2.3458933,425.3952 3.6034541,423.02614 6.4992057,417.57096 21.061392,402.08849 67.625623,354.95794 L 112.8556,309.17788 105.96206,295.95253 C 82.703065,251.32987 75.999269,208.80349 84.873251,162.173 87.965236,145.92542 94.39635,127.90955 104.03176,108.50311 l 8.71592,-17.554514 -8.54668,-8.387525 c -4.700671,-4.613138 -8.180606,-7.737476 -7.733187,-6.942971 0.591514,1.050381 0.378508,1.277635 -0.780619,0.832836 -0.87676,-0.336443 -3.771422,0.04356 -6.432584,0.84445 C 82.914389,79.203513 76.068241,79.139863 70.133263,77.117613 63.802335,74.960449 54.869567,66.7231 51.942746,60.343232 L 49.653365,55.352854 H 25.485711 1.3180571 V 47.722843 40.092832 H 25.579585 49.841111 l 1.850719,-4.104161 c 2.314241,-5.132067 10.2109,-13.249665 15.39024,-15.820838 5.489377,-2.725085 20.607984,-2.75669 26.044133,-0.05445 5.702114,2.834455 11.850357,9.320728 14.667267,15.473678 3.09097,6.751566 3.38042,16.53297 0.70909,23.961726 l -1.7975,4.998655 6.96207,7.01583 c 4.21261,4.245138 7.52617,6.799364 8.39046,6.467704 0.78561,-0.301469 1.25201,-0.724509 1.03643,-0.940088 -0.93266,-0.932657 27.73517,-28.429731 36.23353,-34.753823 27.02311,-20.109317 54.88973,-32.243198 88.37774,-38.482056 11.70911,-2.1814242 41.5787,-2.97950633 54.7901,-1.4639306 80.07498,9.1859846 147.37162,66.6702766 169.19121,144.5219016 19.60686,69.95667 -1.22905,145.7905 -53.96245,196.40033 -21.64338,20.7718 -44.02435,34.54777 -71.95874,44.29213 -12.62465,4.40386 -27.18885,8.0908 -37.5402,9.50331 -9.97773,1.36154 -41.80165,1.38151 -54.59532,0.0343 -19.97435,-2.10339 -43.37746,-9.78253 -67.46408,-22.13663 l -15.05853,-7.72357 -34.28221,34.07825 c -79.104421,78.63377 -76.201439,76.2515 -93.622244,76.82944 -5.411298,0.17952 -10.983225,-0.0526 -12.382061,-0.51593 z m 22.038729,-16.70943 c 6.042652,-3.19451 15.502565,-11.84034 46.122297,-42.15323 l 26.958969,-26.6888 -11.69895,-11.81501 c -12.64059,-12.766 -24.910807,-23.82418 -26.435438,-23.82418 -3.039024,0 -66.436682,63.9069 -68.122901,68.6701 -0.198081,0.55953 -1.018721,1.4989 -1.823646,2.08747 -0.804925,0.58858 -1.350401,1.73308 -1.21217,2.54334 0.138231,0.81026 -0.09636,2.26813 -0.521329,3.23971 -0.424963,0.97158 -0.50376,3.94729 -0.175105,6.61268 0.328655,2.66539 0.6349,5.61678 0.680543,6.55864 0.04565,0.94187 0.733897,2.2527 1.529452,2.91295 0.795556,0.66025 1.193588,1.60961 0.884517,2.1097 -0.30907,0.50009 0.151141,1.18289 1.022693,1.51734 0.871553,0.33444 1.353008,0.98287 1.069903,1.44094 -0.741264,1.19939 8.371751,8.41133 9.638949,7.62816 0.583452,-0.36059 1.060822,-0.20437 1.060822,0.34716 0,2.82827 15.031758,1.9795 21.021394,-1.18697 z M 298.21496,383.61792 c 5.22491,-0.32047 10.07394,-1.05914 10.77562,-1.64148 0.70169,-0.58234 1.55727,-0.77732 1.90131,-0.43329 0.34404,0.34404 1.44641,0.26971 2.44973,-0.16518 1.00331,-0.43488 2.5848,-0.69843 3.51442,-0.58567 0.92962,0.11278 1.97433,-0.25468 2.32159,-0.81655 0.34725,-0.56186 1.2571,-0.78147 2.02188,-0.48798 0.76479,0.29347 1.69736,0.0371 2.07239,-0.5697 0.37502,-0.60681 1.13567,-0.82282 1.69032,-0.48003 0.55464,0.34279 2.23975,0.16427 3.7447,-0.39672 1.50495,-0.56098 3.65187,-1.36397 4.77094,-1.78444 1.11907,-0.42046 2.60692,-0.67221 3.30634,-0.55943 0.69941,0.11277 1.27166,-0.25845 1.27166,-0.82496 0,-0.5665 0.6867,-0.76649 1.52601,-0.44442 0.8393,0.32208 1.526,0.0518 1.526,-0.60063 0,-0.65242 0.46615,-0.89813 1.03589,-0.54601 0.56974,0.35212 2.62984,-0.34489 4.57801,-1.54893 1.94816,-1.20404 3.54211,-1.87026 3.54211,-1.48051 0,0.38975 1.1284,-0.0307 2.50755,-0.93436 1.37915,-0.90366 3.21035,-1.643 4.06934,-1.643 0.85898,0 1.56179,-0.4578 1.56179,-1.01734 0,-0.55953 0.34335,-0.92663 0.763,-0.81577 1.43113,0.37805 5.34101,-1.35311 5.34101,-2.36482 0,-0.55486 0.4578,-0.72589 1.01733,-0.38008 0.55954,0.34581 1.01734,0.11691 1.01734,-0.50867 0,-0.62558 0.39083,-0.89586 0.86852,-0.60064 0.94231,0.58239 10.61382,-5.17343 11.17205,-6.64884 0.18768,-0.49604 0.76316,-0.64111 1.27885,-0.32239 0.5157,0.31872 1.21127,-0.13359 1.54572,-1.00514 0.33444,-0.87157 1.02114,-1.32937 1.526,-1.01734 0.50485,0.31202 1.19156,-0.14578 1.526,-1.01733 0.33444,-0.87156 0.94135,-1.37868 1.34869,-1.12694 1.19687,0.73972 16.90126,-12.16729 26.10864,-21.45796 12.58654,-12.70041 30.83295,-37.73237 29.30552,-40.20381 -0.29405,-0.47577 -0.0564,-0.86505 0.5281,-0.86505 1.21869,0 7.60122,-12.14194 6.80242,-12.94074 -0.28977,-0.28975 0.0888,-1.14242 0.84115,-1.89482 1.79497,-1.79498 7.88944,-18.45257 8.06388,-22.0405 0.0748,-1.53745 0.53266,-2.7964 1.01757,-2.79767 0.48491,-10e-4 0.64222,-0.91792 0.34958,-2.03699 -0.29265,-1.11907 -0.0638,-2.03467 0.50867,-2.03467 0.57241,0 0.80705,-0.89365 0.52142,-1.98589 -0.28563,-1.09224 -0.0577,-2.13977 0.50652,-2.32784 0.56421,-0.18807 1.08787,-2.49623 1.16367,-5.12924 0.0758,-2.63302 0.49972,-4.79009 0.94204,-4.79351 0.44232,-0.003 0.76979,-1.72296 0.72771,-3.82121 -0.0421,-2.09826 0.192,-13.60907 0.52018,-25.5796 0.32819,-11.97053 0.30633,-22.49995 -0.0485,-23.3987 -0.35489,-0.89876 -0.80317,-4.10444 -0.99617,-7.12374 -0.19301,-3.01929 -0.72752,-5.7661 -1.18782,-6.10401 -0.46029,-0.3379 -0.98463,-2.43914 -1.16521,-4.66939 -0.18057,-2.23026 -0.64003,-4.29036 -1.02101,-4.57801 -0.38099,-0.28765 -0.84885,-1.89639 -1.03969,-3.57499 -0.19085,-1.6786 -0.73573,-3.19603 -1.21085,-3.37207 -0.47511,-0.17603 -0.61839,-0.95968 -0.31841,-1.74143 0.29999,-0.78176 -0.18353,-2.88262 -1.07448,-4.66858 -0.89099,-1.78596 -1.61995,-3.67994 -1.61995,-4.20883 0,-0.52889 -0.63196,-2.4042 -1.40436,-4.16737 -0.77239,-1.76316 -2.42198,-5.72365 -3.66573,-8.80109 -3.17509,-7.85614 -10.13568,-20.3467 -11.33857,-20.3467 -0.55337,0 -0.76326,-0.39294 -0.46644,-0.8732 1.50428,-2.43397 -19.58816,-28.603289 -32.03936,-39.751116 -9.61461,-8.608184 -24.3584,-19.503212 -25.46629,-18.818501 -0.49611,0.306616 -0.90203,0.08192 -0.90203,-0.499313 0,-1.333048 -10.26713,-7.264078 -11.38199,-6.575056 -0.45431,0.280781 -0.82602,0.08123 -0.82602,-0.443443 0,-0.968239 -5.43965,-3.606271 -6.70963,-3.253925 -0.38109,0.105732 -0.97298,-0.240784 -1.31531,-0.770035 -1.03806,-1.604897 -7.22741,-4.423 -8.2823,-3.771049 -0.5431,0.335655 -0.98745,0.170249 -0.98745,-0.367571 0,-1.162624 -5.98098,-3.407689 -7.15132,-2.684375 -0.44747,0.276552 -0.98119,-10e-6 -1.18605,-0.614583 -0.20486,-0.614572 -1.61703,-1.189676 -3.13818,-1.278007 -1.52114,-0.08834 -2.76603,-0.458292 -2.76642,-0.822133 -6.6e-4,-0.604673 -8.58462,-3.012478 -12.20874,-3.424554 -0.8393,-0.09544 -3.51964,-0.733522 -5.9563,-1.417977 -2.43667,-0.684456 -5.05436,-1.004992 -5.8171,-0.712303 -0.76274,0.292689 -1.68588,0.04823 -2.05142,-0.543233 -0.36554,-0.591466 -1.96476,-0.815368 -3.55381,-0.497559 -1.60622,0.321245 -3.19081,0.08977 -3.56846,-0.521275 -0.4113,-0.665496 -2.85202,-0.918931 -6.18666,-0.642397 -3.02905,0.251192 -5.74384,0.07408 -6.03287,-0.393569 -0.71241,-1.152697 -18.45063,-1.087708 -19.16627,0.07022 -0.3129,0.506277 -2.3782,0.677825 -4.58956,0.381219 -2.21137,-0.296606 -4.84363,-0.189638 -5.84948,0.237705 -1.00585,0.427344 -3.31668,0.678521 -5.13516,0.55817 -1.81849,-0.120351 -3.30634,0.259689 -3.30634,0.844532 0,0.584845 -0.6119,0.828546 -1.35977,0.54156 -1.89227,-0.726133 -20.43575,3.427081 -20.85415,4.670738 -0.18768,0.557845 -0.73125,0.773217 -1.20795,0.478604 -0.88248,-0.545408 -13.29185,3.371797 -14.21952,4.488607 -0.27976,0.33681 -1.42427,0.768768 -2.54333,0.959906 -1.11907,0.191139 -2.18822,0.766243 -2.3759,1.278008 -0.18768,0.511765 -0.67194,0.726086 -1.07616,0.476268 -1.02883,-0.635849 -20.82296,8.96628 -23.22757,11.267692 -1.08641,1.039791 -2.62386,2.042619 -3.41652,2.228506 -3.75711,0.881066 -18.93283,13.117119 -30.4936,24.586725 -11.57208,11.480825 -23.78843,26.152308 -24.56667,29.503844 -0.16484,0.709899 -1.23779,2.34107 -2.38435,3.62484 -2.70249,3.02592 -13.04322,22.78733 -12.30856,23.522 0.30926,0.30926 -0.1026,1.22719 -0.91526,2.03985 -0.81266,0.81265 -1.47756,2.33344 -1.47756,3.37951 0,1.04609 -0.48901,2.20419 -1.08668,2.57357 -0.59769,0.3694 -0.84095,1.31201 -0.54061,2.09472 0.30036,0.7827 0.17531,1.4231 -0.27788,1.4231 -1.19012,0 -7.528439,21.20789 -6.8594,22.9514 0.30912,0.80555 0.0652,1.46463 -0.541968,1.46463 -0.629031,0 -0.894832,1.09421 -0.617814,2.54334 0.267405,1.39883 0.03991,2.54333 -0.505536,2.54333 -0.545449,0 -0.791794,1.36223 -0.547432,3.02717 0.244363,1.66495 -0.04703,3.191 -0.647533,3.39121 -1.523812,0.50807 -1.523812,53.79957 0,54.30746 0.600505,0.20015 0.891896,1.72614 0.647533,3.39109 -0.27731,1.88943 0.0041,3.02717 0.748548,3.02717 0.656063,0 0.892606,0.48579 0.525653,1.07953 -0.883644,1.42976 3.551219,19.26716 4.790339,19.26716 0.52994,0 0.72727,0.38227 0.43852,0.84948 -0.7303,1.18164 1.56016,8.30654 2.67032,8.30654 0.49868,0 0.66279,0.39464 0.36469,0.87697 -0.71933,1.1639 2.50719,9.29637 3.68828,9.29637 0.50768,0 0.65184,0.43885 0.32034,0.97521 -1.47683,2.38957 13.63718,28.12256 24.31355,41.39604 6.28133,7.80932 27.94625,29.28822 28.74061,28.49384 0.20145,-0.20144 1.99738,1.17208 3.99097,3.05228 1.99358,1.88019 3.99752,3.1881 4.45321,2.90647 0.45568,-0.28162 1.10216,0.20104 1.4366,1.0726 0.33444,0.87155 1.02115,1.32935 1.526,1.01734 0.50486,-0.31203 1.19156,0.14577 1.526,1.01733 0.33445,0.87155 1.06912,1.2997 1.63261,0.95145 0.56348,-0.34825 1.02452,-0.20102 1.02452,0.32718 0,1.18981 5.06199,4.58549 6.83565,4.58549 0.71666,0 1.30302,0.32619 1.30302,0.72487 0,1.20019 23.3222,12.32874 24.41806,11.65146 0.55843,-0.34512 1.01531,-0.16259 1.01531,0.40562 0,1.19919 16.02469,6.48454 17.28985,5.70263 0.46662,-0.28839 1.01034,-0.0386 1.20825,0.55523 0.19792,0.59377 2.06618,1.16887 4.15167,1.278 2.0855,0.10914 3.79387,0.59517 3.79638,1.08005 0.002,0.48487 1.14906,0.66281 2.54789,0.39541 1.39884,-0.26741 2.54334,-0.15826 2.54334,0.24254 0,1.05295 17.50941,3.40718 21.25354,2.85766 1.73938,-0.25528 3.16249,-0.0542 3.16249,0.44679 0,0.86772 7.08077,0.72269 28.32053,-0.58006 z m -148.07456,-15.67335 8.9388,-9.03215 -6.90413,-6.48518 c -3.79728,-3.56685 -12.51649,-11.97943 -19.37604,-18.69463 l -12.47189,-12.20947 -9.65514,9.8613 c -5.31032,5.42371 -9.65514,10.60657 -9.65514,11.51747 0,2.46305 9.52837,13.62153 22.76352,26.65789 l 11.72597,11.54986 2.84762,-2.06648 c 1.56619,-1.13656 6.87008,-6.13094 11.78643,-11.09861 z M 86.81126,62.414195 c 0.384488,-0.622113 0.991234,-1.092013 1.348327,-1.044223 2.013507,0.269469 2.752781,-0.204375 4.796299,-3.074233 1.554514,-2.183113 2.3937,-5.142362 2.712418,-9.564875 0.391973,-5.439017 0.152709,-6.712539 -1.588199,-8.453447 -1.127334,-1.127334 -1.847885,-2.251512 -1.601224,-2.498173 0.246661,-0.246661 -0.24929,-1.027567 -1.102112,-1.735347 -0.852823,-0.70778 -1.550587,-0.969217 -1.550587,-0.580971 0,0.388245 -0.719402,-0.0135 -1.59867,-0.892768 -1.142242,-1.142243 -3.588808,-1.598669 -8.569289,-1.598669 -5.997678,0 -7.403355,0.364121 -10.070918,2.608727 -3.43119,2.887157 -5.180204,7.796797 -5.188819,14.56549 -0.005,3.923328 0.537502,5.000707 4.52671,8.989916 2.49281,2.492811 5.010714,4.236759 5.595341,3.875439 0.584626,-0.361319 1.062958,-0.108357 1.062958,0.562137 0,1.553086 10.202495,0.499919 11.227765,-1.159003 z"
   id="path7953"
   inkscape:connector-curvature="0" /><path
   style="fill:#cbd1d5;fill-opacity:1;stroke-width:1.01733482"
   d="M 253.61708,365.19672 C 184.11711,353.09099 130.5515,301.47997 116.21019,232.80375 c -2.66123,-12.74381 -2.92722,-48.70286 -0.46421,-62.75538 10.20962,-58.25023 54.68376,-109.433201 111.51999,-128.342539 19.13218,-6.365252 24.93783,-7.139315 53.81915,-7.175678 l 25.94203,-0.03266 12.56067,3.300226 c 49.08808,12.897545 87.94591,44.167058 109.90215,88.439981 12.69494,25.59834 17.61504,48.34878 16.90205,78.1547 -0.60829,25.42816 -5.31367,45.49122 -15.85987,67.62422 -16.80798,35.27443 -47.4456,65.20812 -82.33066,80.43904 -12.58339,5.49396 -27.3405,9.99738 -39.43093,12.03314 -13.26766,2.23397 -44.11891,2.62996 -55.15348,0.70792 z m 46.7974,-14.36707 c 4.75604,-0.27009 8.80089,-0.94243 8.98857,-1.49407 0.18768,-0.55165 0.78166,-0.73079 1.31996,-0.3981 1.36844,0.84574 11.0555,-1.59751 11.0555,-2.7884 0,-0.53674 0.47719,-0.68098 1.06043,-0.32052 1.22715,0.75843 11.14758,-2.58441 11.14758,-3.75634 0,-0.43144 0.62768,-0.54358 1.39483,-0.24919 0.76715,0.29438 2.03701,-0.0634 2.8219,-0.79493 0.78488,-0.7316 2.10286,-1.4617 2.92884,-1.62245 2.60906,-0.50775 14.21846,-6.41264 14.21846,-7.23194 0,-0.43121 0.58637,-0.78403 1.30303,-0.78403 1.77366,0 6.83565,-3.39568 6.83565,-4.58549 0,-0.5282 0.36709,-0.7335 0.81575,-0.4562 1.12605,0.69592 14.09354,-9.1481 16.7067,-12.68259 1.17177,-1.58489 2.44294,-2.68852 2.82484,-2.45249 0.38189,0.23602 2.23009,-1.15535 4.10711,-3.09195 1.87703,-1.9366 3.14171,-3.52109 2.81042,-3.52109 -0.33131,0 2.10893,-2.77087 5.42275,-6.1575 3.31381,-3.38663 5.75706,-6.59123 5.42942,-7.12134 -0.32762,-0.53012 -0.10163,-0.96385 0.50221,-0.96385 1.29326,0 10.55198,-13.99919 10.55198,-15.9546 0,-0.73705 0.4578,-1.34009 1.01733,-1.34009 0.55954,0 0.73971,-0.27763 0.40038,-0.61696 -0.33933,-0.33933 0.27108,-1.57015 1.35645,-2.73516 1.77113,-1.9011 2.44323,-3.84567 2.09388,-6.05822 -0.0662,-0.41965 0.26384,-0.763 0.73356,-0.763 1.19713,0 3.36525,-5.03834 2.65952,-6.18025 -0.3199,-0.5176 -0.1183,-0.9411 0.44798,-0.9411 1.45803,0 7.42249,-18.97079 7.59454,-24.15549 0.0788,-2.3746 0.50097,-4.32026 0.93815,-4.32368 0.43717,-0.003 0.76495,-1.49405 0.7284,-3.31254 -0.0365,-1.81848 0.2073,-11.6612 0.54189,-21.8727 l 0.60836,-18.56636 h -16.67722 -16.67722 l -2.43364,5.19592 c -5.1595,11.01577 -14.68376,17.34766 -26.79703,17.81515 -5.00919,0.19332 -8.49338,-0.29303 -12.20636,-1.70385 l -5.19618,-1.9744 -18.67077,18.67078 -18.67078,18.67078 1.83968,3.45452 c 1.3456,2.52676 1.85134,5.77691 1.88309,12.10187 0.0376,7.49992 -0.34149,9.43122 -2.85739,14.55489 -3.43551,6.99647 -10.37088,12.96694 -17.3239,14.91367 -7.46135,2.08904 -19.69535,0.9788 -25.28032,-2.29421 -13.24106,-7.75979 -18.8664,-23.62431 -13.52537,-38.14412 l 1.97695,-5.37442 -24.32833,-24.34419 c -13.38059,-13.38931 -24.54094,-24.13158 -24.8008,-23.87173 -0.25985,0.25986 -1.2927,-0.26985 -2.29522,-1.17712 -1.31332,-1.18853 -2.75807,-1.45626 -5.16923,-0.9579 -1.84056,0.38042 -6.90424,0.94174 -11.25263,1.2474 -7.09137,0.49846 -8.45435,0.28422 -13.22535,-2.07882 -6.8772,-3.40621 -13.75534,-10.07213 -16.27856,-15.77629 -2.37615,-5.37168 -2.521,-17.27885 -0.29987,-24.65132 l 1.41438,-4.6947 -7.03126,-6.97737 c -3.86719,-3.83756 -7.03125,-6.5665 -7.03125,-6.06432 0,0.50217 -1.10206,-0.12228 -2.44902,-1.38769 l -2.44903,-2.30074 -3.23627,6.78101 c -1.77995,3.72956 -2.9887,7.02859 -2.6861,7.33119 0.3026,0.30259 -0.14105,1.24141 -0.98588,2.08625 -0.84484,0.84483 -1.29521,2.16373 -1.00082,2.93089 0.29438,0.76715 0.16262,1.39482 -0.29281,1.39482 -1.08925,0 -6.49954,18.06928 -5.76578,19.25653 0.3115,0.50401 0.10868,1.06993 -0.45071,1.25761 -1.82002,0.61062 -2.94652,15.19661 -2.65845,34.42194 0.1551,10.35138 0.58308,20.423 0.95107,22.38136 0.36799,1.95837 0.69743,4.24738 0.7321,5.08668 0.13329,3.22691 3.42821,15.26002 4.17852,15.26002 0.43411,0 0.52579,0.6867 0.20372,1.526 -0.32207,0.8393 -0.0932,1.526 0.50866,1.526 0.60184,0 0.83074,0.68671 0.50867,1.52601 -0.32207,0.8393 -0.0932,1.526 0.50867,1.526 0.60184,0 0.84851,0.64039 0.54815,1.4231 -0.30035,0.7827 -0.0571,1.72532 0.5406,2.09471 0.59768,0.36938 1.08669,1.52749 1.08669,2.57357 0,1.04608 0.57225,2.51781 1.27167,3.27052 0.69942,0.75271 1.40792,2.04435 1.57445,2.87034 0.55603,2.75782 5.61281,12.18379 6.53629,12.18379 0.50106,0 0.6384,0.44111 0.3052,0.98024 -0.33319,0.53911 0.21204,1.83621 1.21163,2.88244 0.9996,1.04622 1.95134,2.55077 2.11499,3.34344 0.16365,0.79268 1.24442,2.24238 2.40171,3.22156 1.15729,0.97919 1.7961,1.78034 1.41958,1.78034 -1.12644,0 5.82983,9.2068 8.93024,11.81941 1.58165,1.33281 2.51158,2.42328 2.06651,2.42328 -0.44506,0 1.89709,2.73483 5.20478,6.0774 3.3077,3.34258 6.15351,5.93789 6.32403,5.76736 0.17052,-0.17051 2.29828,1.59503 4.72835,3.92346 2.43007,2.32841 8.30548,6.81991 13.05646,9.9811 8.58914,5.71502 24.22672,13.52895 24.25647,12.12071 0.008,-0.40552 0.35191,-0.21082 0.763,0.43267 0.41108,0.6435 1.66302,1.3302 2.78209,1.526 1.11907,0.19581 2.26357,0.65169 2.54334,1.01307 0.95449,1.23291 21.44543,7.15941 22.86728,6.61379 0.77952,-0.29913 1.56631,-0.0968 1.74844,0.44956 0.18213,0.54638 3.18325,1.09291 6.66916,1.21452 3.4859,0.1216 6.34217,0.60825 6.34726,1.08144 0.008,0.77461 12.18763,0.46897 36.6333,-0.9193 z M 289.705,272.08959 c 0.33071,-0.5351 1.26171,-0.71947 2.06889,-0.40974 2.11699,0.81238 8.43346,-3.40454 10.19125,-6.80373 3.76596,-7.28256 0.16972,-19.84242 -6.74294,-23.54972 -3.85547,-2.06771 -11.08508,-2.49103 -11.08508,-0.64906 0,0.65278 -0.28694,0.89994 -0.63764,0.54924 -1.60063,-1.60062 -8.69638,3.94521 -9.16915,7.16634 -0.12721,0.86672 -0.71309,1.87363 -1.30198,2.23759 -1.46612,0.90611 -0.54772,11.75832 1.2071,14.26368 3.65887,5.22377 13.77891,9.93093 15.46955,7.1954 z m -2.44619,-46.80861 c 2.55623,-0.0183 7.01783,0.67063 9.91466,1.5309 7.51301,2.23113 7.6073,2.16906 30.40818,-20.01665 l 13.43314,-13.07073 -1.46845,-4.8394 c -2.35849,-7.77258 -1.93268,-20.12656 0.90316,-26.20343 4.25591,-9.1199 14.37759,-16.21744 24.9055,-17.46432 11.07089,-1.31118 23.87809,5.90619 30.08776,16.95565 l 3.14452,5.59535 15.11369,-0.28215 15.11369,-0.28215 -0.70004,-3.73153 c -0.81543,-4.34666 -7.61483,-22.93255 -8.66333,-23.68088 -0.39199,-0.27977 -1.04615,-1.8686 -1.45371,-3.53074 -0.97789,-3.98812 -7.61319,-15.79862 -8.87588,-15.79862 -0.5444,0 -0.70488,-0.46103 -0.35662,-1.02452 0.34824,-0.56349 -0.0799,-1.29816 -0.95146,-1.6326 -0.87156,-0.33445 -1.32936,-1.02115 -1.01733,-1.52601 0.31202,-0.50485 -0.14579,-1.19155 -1.01734,-1.526 -0.87156,-0.33445 -1.37697,-0.94411 -1.12314,-1.3548 0.64848,-1.04926 -11.33175,-15.709979 -18.44366,-22.570306 -7.76343,-7.488788 -18.76686,-16.1959 -19.72158,-15.605852 -0.41441,0.256119 -1.02711,-0.247417 -1.36155,-1.118969 -0.33444,-0.871552 -1.06911,-1.299705 -1.6326,-0.951451 -0.56349,0.348253 -1.02452,0.185707 -1.02452,-0.361214 0,-1.216501 -6.86783,-5.568798 -8.78744,-5.568798 -0.76225,0 -1.38591,-0.457801 -1.38591,-1.017335 0,-0.559534 -0.26705,-0.750284 -0.59344,-0.42389 -0.3264,0.326395 -1.5063,-0.319402 -2.622,-1.435105 -1.1157,-1.115703 -2.67985,-1.778622 -3.4759,-1.473154 -0.79603,0.305469 -1.44734,0.08495 -1.44734,-0.490048 0,-0.574994 -0.4578,-0.76251 -1.01733,-0.416698 -0.55954,0.345811 -1.01734,0.192611 -1.01734,-0.340444 0,-1.921378 -23.47364,-10.026743 -25.46816,-8.794064 -0.5404,0.333983 -0.98254,0.195742 -0.98254,-0.307203 0,-1.115072 -13.76422,-3.690762 -15.14912,-2.834846 -0.54321,0.335718 -1.28806,0.124316 -1.65523,-0.469781 -0.66964,-1.08349 -2.76872,-1.219651 -18.80237,-1.219651 -16.03364,0 -18.13273,0.136161 -18.80237,1.219651 -0.36716,0.594097 -1.11202,0.805499 -1.65522,0.469781 -1.3849,-0.855916 -15.14912,1.719774 -15.14912,2.834846 0,0.502945 -0.46676,0.625977 -1.03723,0.273406 -1.80086,-1.112993 -25.41348,7.216024 -25.41348,8.964246 0,0.57851 -0.28558,0.766252 -0.63463,0.417203 -0.59765,-0.597643 -8.4399,2.894187 -9.53872,4.247191 -0.27976,0.344486 -1.19536,0.77682 -2.03467,0.960742 -2.44405,0.535583 -8.13867,4.31672 -8.13867,5.403951 0,0.546921 -0.46104,0.709467 -1.02452,0.361214 -0.56349,-0.348254 -1.29816,0.0799 -1.63261,0.951451 -0.33444,0.871552 -0.93408,1.383158 -1.33253,1.136903 -0.96541,-0.596653 -12.2877,8.33236 -12.2877,9.690353 0,0.584373 -0.37692,0.829547 -0.83761,0.544828 -0.93528,-0.578034 -13.4694,11.966454 -21.04155,21.058963 l -4.92181,5.91002 9.98318,10.02077 c 10.52221,10.56185 11.15985,10.86229 17.83513,8.40375 4.39954,-1.62039 15.01634,-1.49497 20.237,0.23905 5.92071,1.96654 14.81189,10.28242 17.53609,16.40142 2.88245,6.47446 3.33205,13.40058 1.37614,21.19955 -1.71445,6.83617 -1.71369,6.84796 0.59977,9.31052 1.27401,1.35612 1.8969,2.46568 1.38417,2.46568 -0.51272,0 9.79318,10.73269 22.902,23.85042 13.10882,13.11772 24.20684,23.62012 24.66224,23.33865 0.45543,-0.28146 0.82804,-0.0973 0.82804,0.4093 0,0.50657 2.40346,0.0907 5.34101,-0.92409 2.93756,-1.01482 7.43247,-1.86007 9.9887,-1.87833 z m 86.08321,-33.65919 c 1.57515,-0.58918 4.59409,-2.89338 6.70877,-5.12044 3.6452,-3.8389 3.83528,-4.36869 3.66026,-10.2015 -0.10368,-3.45517 -0.76452,-6.73224 -1.50741,-7.47513 -0.72756,-0.72755 -1.09639,-1.54925 -0.81964,-1.82601 0.77143,-0.77143 -5.73957,-5.93047 -6.71992,-5.32458 -0.4735,0.29263 -1.13407,0.09 -1.46793,-0.45012 -0.79346,-1.28384 -12.12169,-0.45403 -12.58021,0.92153 -0.19387,0.58161 -0.72947,0.8245 -1.19021,0.53974 -2.65543,-1.64115 -9.18801,11.88551 -7.54226,15.61737 0.40596,0.92055 0.65234,2.05631 0.54752,2.52393 -0.4901,2.18643 4.60695,8.19888 8.41779,9.92958 4.74968,2.15708 8.37006,2.40792 12.49324,0.86563 z M 196.64633,175.33831 c 0,-0.59255 0.52725,-0.75151 1.17167,-0.35324 0.64442,0.39827 1.67447,0.0535 2.289,-0.76601 0.61454,-0.81957 1.98401,-1.81589 3.04328,-2.21403 1.05927,-0.39815 1.63864,-1.01121 1.28749,-1.36237 -0.35116,-0.35115 0.11726,-1.19106 1.04092,-1.86646 3.93836,-2.8798 1.87665,-18.93364 -2.64908,-20.62761 -0.8829,-0.33046 -2.10067,-1.26128 -2.70616,-2.06849 -0.60548,-0.8072 -3.38601,-1.68721 -6.17894,-1.95558 -6.97378,-0.67009 -12.52728,2.20411 -15.62417,8.08625 -2.35956,4.48167 -3.08796,12.72063 -1.23031,13.91601 0.53352,0.34333 1.28854,1.64496 1.67781,2.89253 1.05158,3.37016 8.40105,7.37528 13.55482,7.38676 2.37802,0.005 4.32367,-0.4752 4.32367,-1.06776 z"
   id="path7955"
   inkscape:connector-curvature="0" /></svg>