<?xml version="1.0" encoding="UTF-8" standalone="no"?>
<!-- Generator: Adobe Illustrator 19.0.0, SVG Export Plug-In . SVG Version: 6.00 Build 0)  -->

<svg
   xmlns:dc="http://purl.org/dc/elements/1.1/"
   xmlns:cc="http://creativecommons.org/ns#"
   xmlns:rdf="http://www.w3.org/1999/02/22-rdf-syntax-ns#"
   xmlns:svg="http://www.w3.org/2000/svg"
   xmlns="http://www.w3.org/2000/svg"
   xmlns:sodipodi="http://sodipodi.sourceforge.net/DTD/sodipodi-0.dtd"
   xmlns:inkscape="http://www.inkscape.org/namespaces/inkscape"
   version="1.1"
   id="Capa_1"
   x="0px"
   y="0px"
   viewBox="0 0 480 480"
   style="enable-background:new 0 0 480 480;"
   xml:space="preserve"
   sodipodi:docname="home_icon_white.svg"
   inkscape:version="0.92.4 (5da689c313, 2019-01-14)"><metadata
   id="metadata43"><rdf:RDF><cc:Work
       rdf:about=""><dc:format>image/svg+xml</dc:format><dc:type
         rdf:resource="http://purl.org/dc/dcmitype/StillImage" /><dc:title></dc:title></cc:Work></rdf:RDF></metadata><defs
   id="defs41" /><sodipodi:namedview
   pagecolor="#ffffff"
   bordercolor="#666666"
   borderopacity="1"
   objecttolerance="10"
   gridtolerance="10"
   guidetolerance="10"
   inkscape:pageopacity="0"
   inkscape:pageshadow="2"
   inkscape:window-width="1920"
   inkscape:window-height="1017"
   id="namedview39"
   showgrid="false"
   inkscape:zoom="1.3906433"
   inkscape:cx="326.45998"
   inkscape:cy="171.54006"
   inkscape:window-x="1912"
   inkscape:window-y="-8"
   inkscape:window-maximized="1"
   inkscape:current-layer="Capa_1" />
<g
   id="g6">
	<g
   id="g4">
		<path
   d="M369.339,410.832l-81.336-133.08V152c0-4.418-3.582-8-8-8h-32v-40.408c49.7-4.191,87.927-45.716,88-95.592    c0-4.418-3.582-8-8-8c-38.203,0.046-72.751,22.716-88,57.744c-15.249-35.028-49.797-57.698-88-57.744c-4.418,0-8,3.582-8,8    c0.073,49.876,38.3,91.401,88,95.592V144h-32c-4.418,0-8,3.582-8,8v125.752l-81.336,133.08    c-13.087,21.434-6.32,49.419,15.114,62.506c7.133,4.355,15.329,6.66,23.686,6.662h181.072    c25.114-0.005,45.468-20.368,45.462-45.482C376,426.161,373.695,417.965,369.339,410.832z M319.555,16.448    c-4.026,37.476-33.628,67.078-71.104,71.104C252.477,50.076,282.079,20.474,319.555,16.448z M160.451,16.448    c37.476,4.026,67.078,33.628,71.104,71.104C194.08,83.526,164.477,53.924,160.451,16.448z M248.003,160h24v120    c0.002,1.47,0.406,2.911,1.168,4.168l44.296,72.472c-11.722-5.802-25.836-3.51-35.12,5.704c-5.788,5.528-14.9,5.528-20.688,0    c-3.791-3.742-8.501-6.418-13.656-7.76V160z M206.835,284.168c0.762-1.257,1.166-2.698,1.168-4.168V160h24v194.584    c-5.155,1.342-9.865,4.018-13.656,7.76c-5.788,5.528-14.9,5.528-20.688,0c-9.284-9.214-23.398-11.506-35.12-5.704L206.835,284.168    z M345.883,459.688c-4.621,2.82-9.93,4.312-15.344,4.312H149.467c-16.268-0.004-29.452-13.196-29.448-29.464    c0.001-5.411,1.493-10.717,4.312-15.336l13.984-22.896l8.48-13.872c7.121-0.609,13.8-3.708,18.864-8.752    c5.717-5.702,14.971-5.702,20.688,0c11.971,11.935,31.341,11.935,43.312,0c5.717-5.702,14.971-5.702,20.688,0    c11.971,11.935,31.341,11.935,43.312,0c5.717-5.702,14.971-5.702,20.688,0c5.068,5.032,11.747,8.12,18.864,8.72l11.2,18.312    l11.272,18.488C364.158,433.087,359.77,451.214,345.883,459.688z"
   id="path2" />
	</g>
</g>
<g
   id="g8">
</g>
<g
   id="g10">
</g>
<g
   id="g12">
</g>
<g
   id="g14">
</g>
<g
   id="g16">
</g>
<g
   id="g18">
</g>
<g
   id="g20">
</g>
<g
   id="g22">
</g>
<g
   id="g24">
</g>
<g
   id="g26">
</g>
<g
   id="g28">
</g>
<g
   id="g30">
</g>
<g
   id="g32">
</g>
<g
   id="g34">
</g>
<g
   id="g36">
</g>
<path
   style="fill:#ffffff;fill-opacity:1;stroke-width:0.71909165"
   d="m 138.3183,478.18655 c -16.85911,-4.44494 -29.39768,-17.66918 -32.91958,-34.71976 -1.9532,-9.45607 -1.01134,-18.62354 2.75964,-26.86045 0.98452,-2.15046 20.24936,-34.11334 42.81076,-71.02862 l 41.02072,-67.11869 0.004,-62.84122 c 0.003,-40.85164 0.2629,-63.77336 0.74386,-65.5051 0.40692,-1.46514 1.58133,-3.32579 2.60979,-4.13477 1.76729,-1.39039 2.82861,-1.4709 19.3904,-1.4709 h 17.52077 v -20.48041 -20.48041 l -1.61795,-0.32796 c -0.88988,-0.18038 -3.07412,-0.51833 -4.85387,-0.75101 -5.89364,-0.7705 -15.28266,-3.38716 -22.00327,-6.132163 -33.72878,-13.77638 -57.2982,-46.699259 -59.04111,-82.471415 l -0.42668,-8.757338 2.20881,-2.2088097 c 2.13481,-2.13480371 2.42326,-2.20880974 8.60924,-2.20880974 23.02355,0 46.61582,10.26523644 64.24626,27.95421444 8.29534,8.32288 12.16627,13.562047 17.2801,23.388014 l 3.3303,6.399001 3.45893,-6.697143 c 11.20915,-21.702965 30.95796,-38.511713 54.49098,-46.3787344 9.15277,-3.0597462 18.23882,-4.66535204 26.40102,-4.66535204 5.73452,0 6.52591,0.17120277 8.51045,1.84107664 2.90373,2.4433334 3.3204,5.1754342 2.25739,14.8016868 -1.48093,13.410666 -5.7087,26.78955 -11.88823,37.620532 -14.15653,24.812408 -40.40801,43.155443 -67.54448,47.19623 -2.79458,0.41612 -5.81416,0.90217 -6.71018,1.08009 l -1.62913,0.3235 0.19095,20.29783 0.19094,20.29784 17.85783,0.35954 17.85782,0.35955 2.09697,2.34839 2.09697,2.34839 0.0101,64.16759 0.0101,64.16758 40.70853,66.51598 c 22.38969,36.58379 41.62637,68.45752 42.74816,70.83053 2.99795,6.34169 4.25236,12.06913 4.25236,19.41547 0,7.84413 -1.29241,13.34781 -4.76304,20.28322 -4.9146,9.82091 -14.21304,17.94996 -25.43881,22.2396 l -5.39319,2.06086 -98.15601,0.14782 c -94.06833,0.14165 -98.36976,0.0915 -103.28886,-1.20547 z m 197.57149,-14.40661 c 13.48224,-2.51619 23.35541,-13.76973 24.15361,-27.53055 0.51337,-8.85028 -0.684,-11.68745 -14.5201,-34.4054 l -12.10334,-19.87287 -3.04566,-0.41746 c -4.44874,-0.60977 -10.25427,-3.39842 -14.21702,-6.82907 -8.3742,-7.24972 -15.08235,-7.56481 -22.832,-1.07243 -13.03645,10.92149 -29.30904,11.34611 -41.16716,1.07421 -8.3713,-7.25151 -15.08161,-7.56722 -22.83199,-1.07421 -13.03646,10.92149 -29.30905,11.34611 -41.16716,1.07421 -8.37131,-7.25151 -15.08161,-7.56722 -22.832,-1.07421 -4.49627,3.76682 -11.33514,7.24557 -15.71823,7.99546 l -3.03482,0.51921 -11.91077,19.41548 c -6.55093,10.67851 -12.53979,21.18556 -13.30858,23.34902 -1.6953,4.7707 -1.84943,14.08264 -0.30503,18.42821 3.7268,10.48633 11.35148,17.56458 21.68252,20.12862 4.62974,1.14905 187.08752,1.42466 193.15773,0.29178 z M 216.28111,364.25937 c 1.47106,-1.03949 4.06435,-3.00933 5.76286,-4.3774 1.69851,-1.36809 4.69173,-3.05696 6.6516,-3.75304 l 3.5634,-1.26561 v -97.62767 -97.62768 h -12.22456 -12.22455 v 60.79895 c 0,53.5406 -0.13323,61.05658 -1.11596,62.95696 -0.61377,1.18691 -10.82316,18.03525 -22.68753,37.44077 -11.86437,19.40551 -21.44399,35.41033 -21.28806,35.56626 0.15594,0.15594 1.70926,-0.22243 3.45183,-0.84082 10.11386,-3.58909 21.36097,-1.2796 30.29488,6.22079 4.94703,4.15323 7.33302,5.04034 12.62518,4.69403 3.4006,-0.22254 5.17697,-0.76244 7.19091,-2.18554 z m 63.99916,0 c 1.47106,-1.03949 4.03947,-2.99034 5.70757,-4.33523 6.82703,-5.50423 18.68159,-7.45042 27.42802,-4.50293 2.11999,0.71443 3.95081,1.19982 4.06849,1.07864 0.11768,-0.12118 -9.94934,-16.85507 -22.37115,-37.18643 l -22.5851,-36.9661 V 220.97764 159.60797 H 259.944 247.3599 v 97.45471 97.45472 l 1.9775,0.73789 c 3.94475,1.47196 7.79965,3.72662 11.12678,6.50786 4.95765,4.14424 7.33987,5.02762 12.62517,4.68176 3.4006,-0.22254 5.17698,-0.76244 7.19092,-2.18554 z M 231.28467,83.84266 c -0.64172,-5.460084 -3.68932,-15.571811 -6.57677,-21.821341 -8.70942,-18.850397 -26.24372,-34.811283 -45.74325,-41.638548 -5.92785,-2.075489 -13.58367,-3.842577 -16.72998,-3.861554 -2.06301,-0.01244 -2.06854,-3.83e-4 -1.60418,3.500158 1.29116,9.733182 6.15742,22.523157 12.10992,31.828411 10.94036,17.102534 29.10175,29.573454 50.52992,34.697478 2.373,0.567443 5.24898,1.058683 6.39105,1.091632 l 2.07651,0.0599 -0.45322,-3.856143 z m 31.09722,1.237837 c 28.73699,-8.327649 50.92176,-32.773712 56.519,-62.279975 0.59799,-3.152365 1.08726,-5.90372 1.08726,-6.114121 0,-0.801515 -8.53564,0.559916 -14.68354,2.342019 -26.34634,7.63706 -47.84121,29.609957 -54.66668,55.882424 -0.95387,3.671625 -1.95535,8.092665 -2.2255,9.824532 l -0.49118,3.148845 4.20635,-0.525548 c 2.31349,-0.289046 6.92792,-1.314226 10.25429,-2.278176 z"
   id="path850"
   inkscape:connector-curvature="0" /></svg>