<?xml version="1.0" encoding="UTF-8" standalone="no"?>
<!-- Generator: Adobe Illustrator 16.0.0, SVG Export Plug-In . SVG Version: 6.00 Build 0)  -->

<svg
   xmlns:osb="http://www.openswatchbook.org/uri/2009/osb"
   xmlns:dc="http://purl.org/dc/elements/1.1/"
   xmlns:cc="http://creativecommons.org/ns#"
   xmlns:rdf="http://www.w3.org/1999/02/22-rdf-syntax-ns#"
   xmlns:svg="http://www.w3.org/2000/svg"
   xmlns="http://www.w3.org/2000/svg"
   xmlns:xlink="http://www.w3.org/1999/xlink"
   xmlns:sodipodi="http://sodipodi.sourceforge.net/DTD/sodipodi-0.dtd"
   xmlns:inkscape="http://www.inkscape.org/namespaces/inkscape"
   version="1.1"
   id="Capa_1"
   x="0px"
   y="0px"
   width="475.636px"
   height="475.636px"
   viewBox="0 0 475.636 475.636"
   style="enable-background:new 0 0 475.636 475.636;"
   xml:space="preserve"
   sodipodi:docname="spreadsheet_icon_white.svg"
   inkscape:version="0.92.4 (5da689c313, 2019-01-14)"><metadata
   id="metadata41"><rdf:RDF><cc:Work
       rdf:about=""><dc:format>image/svg+xml</dc:format><dc:type
         rdf:resource="http://purl.org/dc/dcmitype/StillImage" /><dc:title></dc:title></cc:Work></rdf:RDF></metadata><defs
   id="defs39"><linearGradient
     id="linearGradient850"
     osb:paint="solid"><stop
       style="stop-color:#000000;stop-opacity:1;"
       offset="0"
       id="stop848" /></linearGradient><linearGradient
     inkscape:collect="always"
     xlink:href="#linearGradient850"
     id="linearGradient852"
     x1="0"
     y1="237.818"
     x2="475.637"
     y2="237.818"
     gradientUnits="userSpaceOnUse" /></defs><sodipodi:namedview
   pagecolor="#ffffff"
   bordercolor="#666666"
   borderopacity="1"
   objecttolerance="10"
   gridtolerance="10"
   guidetolerance="10"
   inkscape:pageopacity="0"
   inkscape:pageshadow="2"
   inkscape:window-width="1920"
   inkscape:window-height="1017"
   id="namedview37"
   showgrid="false"
   inkscape:zoom="1.4034026"
   inkscape:cx="462.5541"
   inkscape:cy="275.24357"
   inkscape:window-x="1912"
   inkscape:window-y="-8"
   inkscape:window-maximized="1"
   inkscape:current-layer="Capa_1" />
<g
   id="g4"
   style="fill-opacity:1;fill:url(#linearGradient852)">
	<path
   d="M200.811,400.719V355.39h107.377v22.353l14.315-14.89l7.176-7.463l6.845-7.119l-6.694-7.201h-7.326v-7.88l-14.315-15.398   v23.278H200.811v-47.011h85.319l-13.308-14.313h-72.012v-49.632h58.695c4.557-7.294,11.845-12.373,20.147-14.315h-78.836v-53.686   h107.378v52.755h14.312v-52.755h110.148v52.755h14.312V32.873c0-9.208-7.49-16.698-16.692-16.698H16.697   C7.485,16.175,0,23.671,0,32.873v365.861c0,5.646,2.839,10.637,7.155,13.663v2.633h5.988c1.149,0.253,2.331,0.398,3.554,0.398   h255.252l14.148-14.709H200.811z M322.503,30.495h107.759c1.316,0,2.395,1.072,2.395,2.389v48.121H322.503V30.495z M322.503,95.316   h110.153v52.494H322.503V95.316z M200.811,30.495h107.377v50.509H200.811V30.495z M200.811,95.316h107.377v52.494H200.811V95.316z    M66.005,400.719H15.458c-0.673-0.415-1.149-1.13-1.149-1.985V355.39h51.697V400.719z M66.005,341.069H14.309v-47.004h51.697   V341.069z M66.005,279.755H14.309v-49.628h51.697V279.755z M66.005,215.81H14.309v-53.686h51.697V215.81z M66.005,147.81H14.309   V95.316h51.697V147.81z M186.493,400.719H80.318V355.39h106.175V400.719z M186.493,341.069H80.318v-47.004h106.175V341.069z    M186.493,279.755H80.318v-49.628h106.175V279.755z M186.493,215.81H80.318v-53.686h106.175V215.81z M186.493,147.81H80.318V95.316   h106.175V147.81z M186.493,80.999H80.318v-50.51h106.175V80.999z M449.929,279.574v-19.376H324.007l74.103,79.69   c4.637,4.988,4.562,12.748-0.141,17.664l-73.271,76.201h125.231v-11.697c0-7.094,5.757-12.862,12.849-12.862   s12.858,5.769,12.858,12.862v24.556c0,7.087-5.767,12.849-12.858,12.849h-168.28c-5.155,0-9.806-3.062-11.823-7.814   c-2.021-4.755-1.031-10.231,2.56-13.953l85.753-89.193l-85.907-92.399c-3.479-3.743-4.408-9.198-2.363-13.895   c2.046-4.688,6.659-7.721,11.781-7.721h168.28c7.092,0,12.858,5.768,12.858,12.854v32.23c0,7.097-5.767,12.858-12.858,12.858   S449.929,286.666,449.929,279.574z"
   id="path2"
   style="fill-opacity:1;fill:url(#linearGradient852)" />
</g>
<g
   id="g6">
</g>
<g
   id="g8">
</g>
<g
   id="g10">
</g>
<g
   id="g12">
</g>
<g
   id="g14">
</g>
<g
   id="g16">
</g>
<g
   id="g18">
</g>
<g
   id="g20">
</g>
<g
   id="g22">
</g>
<g
   id="g24">
</g>
<g
   id="g26">
</g>
<g
   id="g28">
</g>
<g
   id="g30">
</g>
<g
   id="g32">
</g>
<g
   id="g34">
</g>
<path
   style="fill:#fcfcfc;fill-opacity:1;stroke-width:0.71255386"
   d="m 10.964691,414.67522 c -2.1395966,-0.16871 -3.3846305,-0.60303 -3.3846305,-1.18069 0,-0.5026 -1.2144128,-2.19042 -2.6986943,-3.75072 C 3.3970844,408.1835 1.7938381,405.60908 1.3185968,404.02286 0.65110849,401.79498 0.45452165,358.83718 0.45452165,215.20671 V 29.274586 L 2.3069376,25.557271 c 2.2588966,-4.533015 6.5433107,-7.700602 11.7516864,-8.68835 5.162894,-0.979123 413.791726,-0.957416 418.996986,0.02226 5.07654,0.955449 9.06556,3.91896 11.49812,8.54216 l 1.95952,3.72417 v 92.550629 92.55064 h -6.76926 -6.76926 V 187.89429 161.5298 H 377.7518 322.52888 v 26.36449 26.36449 h -7.12554 -7.12554 V 187.89429 161.5298 h -53.79782 -53.79782 v 27.43332 27.43332 h 37.54898 37.54899 l -3.88082,1.90601 c -2.27876,1.11919 -5.84414,3.91361 -8.63682,6.76927 l -4.75602,4.86325 h -28.91215 -28.91216 v 24.93938 24.93939 h 35.88536 35.88536 l 6.57508,7.12554 6.57508,7.12554 H 243.1426 200.68216 v 23.51428 23.51427 h 53.79782 53.79782 l 0.0309,-11.22272 0.0309,-11.22272 7.07545,7.48181 7.07546,7.48182 0.0192,3.74091 0.0192,3.7409 h 3.49673 c 3.3025,0 3.678,0.20161 6.75982,3.62933 l 3.26308,3.62934 -13.70716,14.20367 -13.70723,14.20367 -0.1967,-10.70747 -0.19669,-10.70746 H 254.4615 200.68224 v 22.79607 22.79608 l 42.18533,0.18379 42.18533,0.18379 -6.64189,6.9474 -6.64188,6.9474 -128.70987,-0.12844 C 72.268759,414.9999 12.826238,414.82201 10.964691,414.67522 Z M 66.009479,378.14617 V 355.34445 H 40.001262 13.993045 v 22.32669 c 0,12.27968 0.213767,22.54046 0.475037,22.80172 0.261269,0.26127 11.964966,0.47504 26.008216,0.47504 h 25.533181 z m 121.134161,0 V 355.34445 H 133.7021 80.260556 v 22.80172 22.80173 H 133.7021 187.14364 Z M 66.009479,317.5791 V 294.06482 H 40.001262 13.993045 v 23.51428 23.51427 h 26.008217 26.008217 z m 121.134161,0 V 294.06482 H 133.7021 80.260556 v 23.51428 23.51427 H 133.7021 187.14364 Z M 66.009479,254.87435 V 229.93497 H 40.001262 13.993045 v 24.93938 24.93939 h 26.008217 26.008217 z m 121.134161,0 V 229.93497 H 133.7021 80.260556 v 24.93938 24.93939 H 133.7021 187.14364 Z M 66.009479,188.96312 V 161.5298 H 40.001262 13.993045 v 27.43332 27.43332 h 26.008217 26.008217 z m 120.777881,0 v -27.07705 l -53.2634,-0.18268 -53.263404,-0.18267 v 27.4424 27.44239 l 53.263404,-0.18267 53.2634,-0.18267 z M 66.009479,121.62678 V 95.262284 H 40.001262 13.993045 v 26.364496 26.36449 h 26.008217 26.008217 z m 121.134161,0 V 95.262284 H 133.7021 80.260556 v 26.364496 26.36449 h 53.441544 53.44154 z m 121.13416,0 V 95.262284 h -53.79782 -53.79782 v 26.364496 26.36449 h 53.79782 53.79782 z m 124.69693,0 V 95.262284 H 377.7518 322.52888 v 26.364496 26.36449 h 55.22292 55.22293 z M 187.14364,55.715544 V 30.419881 H 133.7021 80.260556 v 25.295663 25.295663 h 53.441544 53.44154 z m 121.13416,0 V 30.419881 h -53.79782 -53.79782 v 25.295663 25.295663 h 53.79782 53.79782 z m 124.69693,1.127108 c 0,-13.292704 -0.19463,-24.675752 -0.43252,-25.295662 -0.3892,-1.014254 -5.91855,-1.127109 -55.22292,-1.127109 h -54.79041 v 25.295663 25.295663 h 55.22292 55.22293 z"
   id="path854"
   inkscape:connector-curvature="0" /><path
   id="path856"
   style="fill:#fcfcfc;fill-opacity:1;stroke-width:0.71255386"
   d="m 465.49609,234.90625 -87.75,0.18555 -87.75,0.1875 -2.69336,2.05468 c -2.9715,2.26658 -5.36046,6.75233 -5.35546,10.0586 0.002,1.17571 0.55686,3.33863 1.23242,4.80664 0.7005,1.52222 19.75205,22.58787 44.33789,49.02539 23.71023,25.49598 43.10937,46.77183 43.10937,47.2793 0,0.50748 -19.51157,21.20598 -43.35742,45.99804 -25.59574,26.6114 -43.76488,46.05919 -44.35547,47.47266 -1.3987,3.34756 -1.24742,6.46541 0.48633,10.04687 1.65259,3.41379 4.09612,5.45606 7.80273,6.51954 3.4683,0.99512 171.13549,1.08317 174.70508,0.0918 3.15563,-0.8764 6.62091,-3.63817 8.06446,-6.42969 1.48877,-2.87899 1.51977,-32.59751 0.0371,-35.43554 -4.61419,-8.83226 -16.18538,-9.63718 -21.57032,-1.5 -1.84783,2.79227 -2.02568,3.66414 -2.26172,11.09961 l -0.25585,8.07031 h -62.62696 c -34.44531,0 -62.6289,-0.25691 -62.6289,-0.57227 0,-0.31535 16.59394,-17.82945 36.875,-38.91992 20.28107,-21.09045 37.42239,-39.34949 38.09179,-40.57617 1.70453,-3.12353 1.62523,-8.77617 -0.16406,-11.71094 -0.78944,-1.29483 -18.10267,-20.27095 -38.47461,-42.16797 -20.37195,-21.89702 -37.04102,-39.99625 -37.04102,-40.2207 10e-6,-0.22445 28.35017,-0.4082 63,-0.4082 h 63 l 0.2461,11.58008 c 0.1975,9.32473 0.48544,12.02214 1.48437,13.85742 4.60314,8.4571 17.04781,8.77623 21.70313,0.55664 1.55864,-2.75206 1.60547,-3.41236 1.60547,-22.42969 0,-18.96841 -0.0512,-19.68529 -1.5918,-22.39258 -0.99484,-1.74821 -2.77526,-3.42019 -4.74805,-4.46093 z" /></svg>